<svg xmlns="http://www.w3.org/2000/svg" xmlns:xlink="http://www.w3.org/1999/xlink" width="466.065" height="323.607" viewBox="0 0 466.065 323.607">
    <defs>
        <linearGradient id="linear-gradient" x1="0.5" y1="0.5" x2="1" y2="0.5" gradientUnits="objectBoundingBox">
            <stop offset="0" stop-color="#805da8"/>
            <stop offset="1" stop-color="#9374b7"/>
        </linearGradient>
        <filter id="Path_2699" x="242.179" y="232.303" width="223.887" height="91.072" filterUnits="userSpaceOnUse">
            <feOffset dy="5" input="SourceAlpha"/>
            <feGaussianBlur stdDeviation="7.5" result="blur"/>
            <feFlood flood-opacity="0.502"/>
            <feComposite operator="in" in2="blur"/>
            <feComposite in="SourceGraphic"/>
        </filter>
        <linearGradient id="linear-gradient-2" x1="0.416" x2="1" y2="0.5" xlink:href="#linear-gradient"/>
        <filter id="Path_2700" x="96.351" y="0.008" width="177.504" height="177.633" filterUnits="userSpaceOnUse">
            <feOffset dy="5" input="SourceAlpha"/>
            <feGaussianBlur stdDeviation="7.5" result="blur-2"/>
            <feFlood flood-opacity="0.502"/>
            <feComposite operator="in" in2="blur-2"/>
            <feComposite in="SourceGraphic"/>
        </filter>
        <filter id="Path_2701" x="242.179" y="0" width="177.771" height="177.642" filterUnits="userSpaceOnUse">
            <feOffset dy="5" input="SourceAlpha"/>
            <feGaussianBlur stdDeviation="7.5" result="blur-3"/>
            <feFlood flood-opacity="0.502"/>
            <feComposite operator="in" in2="blur-3"/>
            <feComposite in="SourceGraphic"/>
        </filter>
        <linearGradient id="linear-gradient-4" x1="0.443" x2="1" y2="0.5" xlink:href="#linear-gradient"/>
        <filter id="Path_2702" x="96.351" y="145.966" width="177.504" height="177.633" filterUnits="userSpaceOnUse">
            <feOffset dy="5" input="SourceAlpha"/>
            <feGaussianBlur stdDeviation="7.5" result="blur-4"/>
            <feFlood flood-opacity="0.502"/>
            <feComposite operator="in" in2="blur-4"/>
            <feComposite in="SourceGraphic"/>
        </filter>
        <filter id="Path_2703" x="242.179" y="145.966" width="177.771" height="177.641" filterUnits="userSpaceOnUse">
            <feOffset dy="5" input="SourceAlpha"/>
            <feGaussianBlur stdDeviation="7.5" result="blur-5"/>
            <feFlood flood-opacity="0.502"/>
            <feComposite operator="in" in2="blur-5"/>
            <feComposite in="SourceGraphic"/>
        </filter>
        <filter id="Rectangle_90" x="0" y="232.303" width="273.855" height="91.073" filterUnits="userSpaceOnUse">
            <feOffset dy="5" input="SourceAlpha"/>
            <feGaussianBlur stdDeviation="7.5" result="blur-6"/>
            <feFlood flood-opacity="0.502"/>
            <feComposite operator="in" in2="blur-6"/>
            <feComposite in="SourceGraphic"/>
        </filter>
    </defs>
    <g id="Group_795" data-name="Group 795" transform="translate(-657.5 5376.228)">
        <path id="Path_2698" data-name="Path 2698" d="M798.773-5146.44a148.966,148.966,0,0,1-18.975-72.985,149.643,149.643,0,0,1,149.644-149.644,149.643,149.643,0,0,1,149.643,149.644c0,25.827-4.8,45.867-16.322,67.071" transform="translate(-13.791)" fill="none" stroke="#fff" stroke-linecap="round" stroke-linejoin="round" stroke-width="1" stroke-dasharray="5 5"/>
        <g transform="matrix(1, 0, 0, 1, 657.5, -5376.23)" filter="url(#Path_2699)">
            <path id="Path_2699-2" data-name="Path 2699" d="M1139.9-5064.483l-28.44,23.036H961.01v-46.072h150.447Z" transform="translate(-696.33 5337.32)" fill="url(#linear-gradient)"/>
        </g>
        <g transform="matrix(1, 0, 0, 1, 657.5, -5376.23)" filter="url(#Path_2700)">
            <path id="Path_2700-2" data-name="Path 2700" d="M924.3-5357.06v46.159a93.38,93.38,0,0,0-86.354,86.474H791.8A139.469,139.469,0,0,1,924.3-5357.06Z" transform="translate(-672.95 5374.57)" fill="url(#linear-gradient-2)"/>
        </g>
        <g transform="matrix(1, 0, 0, 1, 657.5, -5376.23)" filter="url(#Path_2701)">
            <path id="Path_2701-2" data-name="Path 2701" d="M1093.781-5224.429h-46.15a93.38,93.38,0,0,0-86.621-86.491v-46.15A139.468,139.468,0,0,1,1093.781-5224.429Z" transform="translate(-696.33 5374.57)" fill="url(#linear-gradient)"/>
        </g>
        <g transform="matrix(1, 0, 0, 1, 657.5, -5376.23)" filter="url(#Path_2702)">
            <path id="Path_2702-2" data-name="Path 2702" d="M924.3-5101.217v46.15A139.476,139.476,0,0,1,791.8-5187.7h46.15A93.4,93.4,0,0,0,924.3-5101.217Z" transform="translate(-672.95 5351.17)" fill="url(#linear-gradient-4)"/>
        </g>
        <g transform="matrix(1, 0, 0, 1, 657.5, -5376.23)" filter="url(#Path_2703)">
            <path id="Path_2703-2" data-name="Path 2703" d="M1093.781-5187.7A139.468,139.468,0,0,1,961.01-5055.058v-46.15a93.373,93.373,0,0,0,86.621-86.491Z" transform="translate(-696.33 5351.17)" fill="url(#linear-gradient)"/>
        </g>
        <g transform="matrix(1, 0, 0, 1, 657.5, -5376.23)" filter="url(#Rectangle_90)">
            <rect id="Rectangle_90-2" data-name="Rectangle 90" width="228.855" height="46.073" transform="translate(22.5 249.8)" fill="url(#linear-gradient)"/>
        </g>
        <path id="Path_2704" data-name="Path 2704" d="M910.924-5024.79a179.115,179.115,0,0,1-35.34,3.453H682.147" transform="translate(-0.297 -47.574)" fill="none" stroke="#fff" stroke-linecap="round" stroke-linejoin="round" stroke-width="1" stroke-dasharray="5 5"/>
        <line id="Line_97" data-name="Line 97" x1="145.543" y1="0.14" transform="translate(927.29 -5069.051)" fill="none" stroke="#fff" stroke-linecap="round" stroke-linejoin="round" stroke-width="1" stroke-dasharray="5 5"/>
        <g id="Group_788" data-name="Group 788" transform="translate(806.495 -5170.706)">
            <g id="Group_787" data-name="Group 787">
                <path id="Path_2705" data-name="Path 2705" d="M857.087-5106.553l-5.458,4.926-1.587-1.757a3.481,3.481,0,0,1-.846-1.6,3.117,3.117,0,0,1,.112-1.737,3.761,3.761,0,0,1,1.044-1.538l.251-.227a3.783,3.783,0,0,1,1.629-.9,3.112,3.112,0,0,1,1.736.052,3.419,3.419,0,0,1,1.5.977Zm-5.629,2.694,3.43-3.1-.413-.458a1.38,1.38,0,0,0-1.188-.5,2.661,2.661,0,0,0-1.472.777l-.235.213a2.635,2.635,0,0,0-.919,1.38,1.406,1.406,0,0,0,.4,1.247Z" transform="translate(-829.866 5134.834)" fill="#fff"/>
                <path id="Path_2706" data-name="Path 2706" d="M846.553-5114l1.754,2.168,1.366-1.106L847.6-5115.5l1.06-.858,3.185,3.938-5.716,4.625-3.192-3.945L844-5112.6l2.077,2.567,1.2-.975-1.753-2.166Z" transform="translate(-829.011 5135.786)" fill="#fff"/>
                <path id="Path_2707" data-name="Path 2707" d="M844.735-5117.283l2.022-1.46,1.038,1.436L841.836-5113l-1.718-2.378a3.413,3.413,0,0,1-.622-1.392,2.334,2.334,0,0,1,.127-1.332,2.422,2.422,0,0,1,.846-1.051,2.126,2.126,0,0,1,1.844-.382,3.192,3.192,0,0,1,1.76,1.335Zm-1.109.8-.681-.941a1.091,1.091,0,0,0-.669-.485.955.955,0,0,0-.748.207,1.187,1.187,0,0,0-.5.707.988.988,0,0,0,.19.8l.692.957Z" transform="translate(-828.529 5136.233)" fill="#fff"/>
                <path id="Path_2708" data-name="Path 2708" d="M841.411-5124.614l-1.671-2.594,1.146-.738,2.631,4.083-6.182,3.982-.959-1.49Z" transform="translate(-828.104 5137.386)" fill="#fff"/>
                <path id="Path_2709" data-name="Path 2709" d="M833.889-5132.63a4.355,4.355,0,0,1,1.85-.6,2.962,2.962,0,0,1,1.669.352,3.151,3.151,0,0,1,1.219,1.232,3.187,3.187,0,0,1,.452,1.661,2.937,2.937,0,0,1-.508,1.6,4.2,4.2,0,0,1-1.389,1.285l-.359.205a4.34,4.34,0,0,1-1.851.6,2.949,2.949,0,0,1-1.671-.354,3.174,3.174,0,0,1-1.225-1.239,3.141,3.141,0,0,1-.441-1.667,2.984,2.984,0,0,1,.533-1.617,4.2,4.2,0,0,1,1.429-1.29Zm.627,1.718a3.089,3.089,0,0,0-1.263,1.144,1.172,1.172,0,0,0,.027,1.192q.662,1.157,2.435.231l.472-.264a3.18,3.18,0,0,0,1.264-1.136,1.171,1.171,0,0,0-.025-1.214,1.158,1.158,0,0,0-1.008-.615,3.1,3.1,0,0,0-1.608.494Z" transform="translate(-827.449 5138.118)" fill="#fff"/>
                <path id="Path_2710" data-name="Path 2710" d="M831.091-5136.242l-3.459.209-.853-1.713,5.273.022,2.365-1.176.8,1.609-2.364,1.177-3.166,4.213-.847-1.7Z" transform="translate(-826.778 5138.9)" fill="#fff"/>
            </g>
        </g>
        <g id="Group_790" data-name="Group 790" transform="translate(959.193 -5164.575)">
            <g id="Group_789" data-name="Group 789">
                <path id="Path_2711" data-name="Path 2711" d="M1067.865-5128.106l.494-.823-2.23-1.336.911-1.521,6.307,3.78-1.488,2.48a3.227,3.227,0,0,1-1.549,1.457,1.967,1.967,0,0,1-1.785-.211,2.383,2.383,0,0,1-.931-.92,2.2,2.2,0,0,1-.2-1.254l-3.336-.209-.066-.039.976-1.629Zm1.663-.121-.577.961a1,1,0,0,0-.162.788,1.016,1.016,0,0,0,.505.6,1.028,1.028,0,0,0,.772.163,1,1,0,0,0,.622-.51l.577-.962Z" transform="translate(-1012.255 5131.786)" fill="#fff"/>
                <path id="Path_2712" data-name="Path 2712" d="M1063.086-5119.652l1.562-2.31-1.456-.984-1.845,2.728-1.128-.764,2.837-4.2,6.09,4.12-2.843,4.2-1.133-.768,1.85-2.735-1.284-.868-1.562,2.309Z" transform="translate(-1011.734 5130.874)" fill="#fff"/>
                <path id="Path_2713" data-name="Path 2713" d="M1058.168-5112.447a4.336,4.336,0,0,1-1.211-1.347,3.083,3.083,0,0,1-.4-1.482l-1.466.375-.076-1.435,1.97-.486a3.543,3.543,0,0,1,.245-.372,3.186,3.186,0,0,1,1.356-1.062,2.96,2.96,0,0,1,1.675-.149,4.223,4.223,0,0,1,1.733.792l.31.235a4.34,4.34,0,0,1,1.277,1.472,2.961,2.961,0,0,1,.328,1.671,3.161,3.161,0,0,1-.663,1.612,3.144,3.144,0,0,1-1.364,1.057,3,3,0,0,1-1.7.14,4.233,4.233,0,0,1-1.746-.813Zm1.338-1.248a3.094,3.094,0,0,0,1.545.717,1.176,1.176,0,0,0,1.087-.49,1.168,1.168,0,0,0,.194-1.179,3.134,3.134,0,0,0-1.089-1.28l-.268-.205a3.176,3.176,0,0,0-1.541-.723,1.175,1.175,0,0,0-1.107.5,1.159,1.159,0,0,0-.175,1.171,3.119,3.119,0,0,0,1.084,1.286Z" transform="translate(-1011.014 5129.945)" fill="#fff"/>
                <path id="Path_2714" data-name="Path 2714" d="M1056.174-5103.923l-3.644-3.144a2.764,2.764,0,0,1-.845-1.188,2.262,2.262,0,0,1-.038-1.354,3.537,3.537,0,0,1,.77-1.37,3.042,3.042,0,0,1,1.91-1.147,2.485,2.485,0,0,1,1.96.65l3.67,3.167-1.164,1.35-3.7-3.19a1.048,1.048,0,0,0-1.646.061,1.084,1.084,0,0,0-.315.829,1.417,1.417,0,0,0,.56.858l3.637,3.137Z" transform="translate(-1010.538 5129.072)" fill="#fff"/>
                <path id="Path_2715" data-name="Path 2715" d="M1048.107-5105.923l1.213-1.287,5.354,5.039-1.213,1.288Z" transform="translate(-1010.06 5128.39)" fill="#fff"/>
                <path id="Path_2716" data-name="Path 2716" d="M1046.391-5100.968l.687-.67-1.816-1.861,1.27-1.238,5.133,5.265-2.071,2.02a3.234,3.234,0,0,1-1.869,1.013,1.966,1.966,0,0,1-1.673-.659,2.378,2.378,0,0,1-.664-1.127,2.192,2.192,0,0,1,.125-1.263l-3.172-1.055-.053-.054,1.359-1.326Zm1.639.307-.8.782a1.007,1.007,0,0,0-.359.721,1.02,1.02,0,0,0,.335.709,1.038,1.038,0,0,0,.706.355,1,1,0,0,0,.731-.336l.8-.782Z" transform="translate(-1009.256 5128.049)" fill="#fff"/>
                <path id="Path_2717" data-name="Path 2717" d="M1039.658-5094.025l2.1-1.834-1.157-1.323-2.479,2.167-.9-1.026,3.812-3.334,4.841,5.535-3.821,3.341-.9-1.031,2.486-2.173-1.021-1.167-2.1,1.834Z" transform="translate(-1008.557 5127.308)" fill="#fff"/>
                <path id="Path_2718" data-name="Path 2718" d="M1038.326-5087.775l-4.415-3.061,1.813,5.055-1.851,1.419-4.474-5.834,1.411-1.082,1.045,1.362,2,2.894-1.772-5.233.93-.713,4.6,3.072-2.279-2.688-1.045-1.363,1.406-1.079,4.474,5.836Z" transform="translate(-1007.475 5126.707)" fill="#fff"/>
                <path id="Path_2719" data-name="Path 2719" d="M1025.672-5083.653l2.317-1.549-.977-1.461-2.736,1.83-.758-1.133,4.209-2.816,4.089,6.112-4.219,2.821-.76-1.138,2.745-1.836-.862-1.288-2.317,1.549Z" transform="translate(-1006.663 5125.844)" fill="#fff"/>
                <path id="Path_2720" data-name="Path 2720" d="M1016.756-5081.993l1.519-.894,4.567,2.619-2.322-3.942,1.527-.9,3.732,6.334-1.528.9-4.562-2.622,2.323,3.942-1.523.9Z" transform="translate(-1005.728 5125.336)" fill="#fff"/>
                <path id="Path_2721" data-name="Path 2721" d="M1012.792-5072.853l1.965-1-2.722-5.329,1.578-.807,2.722,5.329,1.93-.986.621,1.219-5.472,2.8Z" transform="translate(-1005.076 5124.629)" fill="#fff"/>
                <path id="Path_2722" data-name="Path 2722" d="M1005.759-5074.189a.728.728,0,0,0,.5.443,3.433,3.433,0,0,0,1.066.021,9.422,9.422,0,0,1,1.216-.047,2.14,2.14,0,0,1,2.086,1.188,1.716,1.716,0,0,1,.11,1.129,2.3,2.3,0,0,1-.627,1.072,3.936,3.936,0,0,1-1.235.83,3.434,3.434,0,0,1-1.414.315,2.26,2.26,0,0,1-1.22-.341,2.112,2.112,0,0,1-.8-.952l1.617-.715a.882.882,0,0,0,.533.526,1.07,1.07,0,0,0,.781-.075,1.2,1.2,0,0,0,.6-.495.643.643,0,0,0,.036-.6.646.646,0,0,0-.484-.346,3.818,3.818,0,0,0-1.167,0,6.544,6.544,0,0,1-1.358.023,2.1,2.1,0,0,1-1.855-1.25,1.8,1.8,0,0,1,.052-1.68,3.24,3.24,0,0,1,1.6-1.31,3.964,3.964,0,0,1,1.61-.36,2.438,2.438,0,0,1,1.352.363,2.293,2.293,0,0,1,.855,1.027l-1.626.719a1.126,1.126,0,0,0-.632-.673,1.442,1.442,0,0,0-1.02.145,1.141,1.141,0,0,0-.559.453A.624.624,0,0,0,1005.759-5074.189Z" transform="translate(-1003.96 5124.189)" fill="#fff"/>
            </g>
        </g>
        <g id="Group_792" data-name="Group 792" transform="translate(985.062 -5314.835)">
            <g id="Group_791" data-name="Group 791">
                <path id="Path_2723" data-name="Path 2723" d="M1033.976-5300.456l4.665-5.683,1.83,1.5a3.481,3.481,0,0,1,1.074,1.453,3.11,3.11,0,0,1,.147,1.735,3.77,3.77,0,0,1-.8,1.675l-.214.262a3.783,3.783,0,0,1-1.479,1.128,3.121,3.121,0,0,1-1.724.206,3.4,3.4,0,0,1-1.625-.745Zm5.167-3.5-2.932,3.57.477.392a1.381,1.381,0,0,0,1.25.324,2.663,2.663,0,0,0,1.34-.988l.2-.246a2.649,2.649,0,0,0,.7-1.5,1.4,1.4,0,0,0-.579-1.174Z" transform="translate(-1033.976 5306.139)" fill="#fff"/>
                <path id="Path_2724" data-name="Path 2724" d="M1045.325-5294.75l-2.056-1.883-1.187,1.3,2.429,2.225-.921,1-3.735-3.421,4.966-5.422,3.743,3.427-.924,1.01-2.435-2.231-1.047,1.145,2.055,1.882Z" transform="translate(-1034.788 5305.422)" fill="#fff"/>
                <path id="Path_2725" data-name="Path 2725" d="M1048.909-5289.522a.726.726,0,0,0,.24-.62,3.425,3.425,0,0,0-.357-1,9.207,9.207,0,0,1-.471-1.122,2.139,2.139,0,0,1,.376-2.371,1.734,1.734,0,0,1,1.018-.5,2.309,2.309,0,0,1,1.225.209,3.944,3.944,0,0,1,1.213.863,3.434,3.434,0,0,1,.793,1.212,2.24,2.24,0,0,1,.109,1.262,2.1,2.1,0,0,1-.608,1.086l-1.238-1.262a.889.889,0,0,0,.3-.684,1.069,1.069,0,0,0-.346-.705,1.213,1.213,0,0,0-.674-.389.641.641,0,0,0-.573.177.647.647,0,0,0-.154.576,3.828,3.828,0,0,0,.408,1.093,6.541,6.541,0,0,1,.5,1.263,2.105,2.105,0,0,1-.516,2.177,1.8,1.8,0,0,1-1.591.542,3.239,3.239,0,0,1-1.79-1.038,3.971,3.971,0,0,1-.9-1.38,2.452,2.452,0,0,1-.137-1.395,2.289,2.289,0,0,1,.661-1.161l1.245,1.269a1.131,1.131,0,0,0-.408.828,1.446,1.446,0,0,0,.5.9,1.137,1.137,0,0,0,.621.362A.625.625,0,0,0,1048.909-5289.522Z" transform="translate(-1035.594 5304.622)" fill="#fff"/>
                <path id="Path_2726" data-name="Path 2726" d="M1051.156-5284.2l-1.184-1.312,5.456-4.928,1.185,1.312Z" transform="translate(-1036.186 5303.971)" fill="#fff"/>
                <path id="Path_2727" data-name="Path 2727" d="M1056.977-5278.728a2.853,2.853,0,0,1-1.326-.457,5.176,5.176,0,0,1-1.313-1.155,3.075,3.075,0,0,1-.789-2.342,3.571,3.571,0,0,1,1.307-2.278l.488-.41a4.385,4.385,0,0,1,1.706-.912,2.857,2.857,0,0,1,1.661.053,3.105,3.105,0,0,1,1.39,1,3.251,3.251,0,0,1,.874,2.045,2.663,2.663,0,0,1-.882,1.878l-1.087-1.316a1.4,1.4,0,0,0,.427-.863,1.272,1.272,0,0,0-.345-.829,1.155,1.155,0,0,0-1.092-.434,3.019,3.019,0,0,0-1.481.744l-.342.284a2.943,2.943,0,0,0-1.036,1.343,1.329,1.329,0,0,0,.328,1.265,1.483,1.483,0,0,0,.894.6l.88-.726-.784-.95.938-.775,1.913,2.316Z" transform="translate(-1036.678 5303.409)" fill="#fff"/>
                <path id="Path_2728" data-name="Path 2728" d="M1060.973-5271.72l-1.036-1.425,2.17-4.8-3.7,2.689-1.042-1.434,5.949-4.321,1.042,1.434-2.173,4.792,3.7-2.688,1.038,1.43Z" transform="translate(-1037.208 5302.667)" fill="#fff"/>
            </g>
        </g>
        <g id="Group_794" data-name="Group 794" transform="translate(810.699 -5329.263)">
            <g id="Group_793" data-name="Group 793">
                <path id="Path_2729" data-name="Path 2729" d="M837.982-5261.228l-6.327-3.744,1.207-2.038a3.478,3.478,0,0,1,1.272-1.283,3.121,3.121,0,0,1,1.692-.411,3.78,3.78,0,0,1,1.779.54l.291.173a3.777,3.777,0,0,1,1.34,1.289,3.12,3.12,0,0,1,.466,1.672,3.416,3.416,0,0,1-.487,1.721Zm-4.247-4.572,3.976,2.353.314-.53a1.378,1.378,0,0,0,.129-1.285,2.663,2.663,0,0,0-1.18-1.173l-.274-.162a2.629,2.629,0,0,0-1.59-.465,1.4,1.4,0,0,0-1.072.75Z" transform="translate(-831.655 5315.394)" fill="#fff"/>
                <path id="Path_2730" data-name="Path 2730" d="M841.9-5273.467l-1.549,2.317,1.461.977,1.83-2.738,1.133.757-2.813,4.212-6.114-4.084,2.818-4.219,1.138.76-1.835,2.746,1.29.861,1.547-2.317Z" transform="translate(-832.235 5316.436)" fill="#fff"/>
                <path id="Path_2731" data-name="Path 2731" d="M845.731-5277.073l-3.4-4.384,1.188-1.583,4.4,6.391-1.163,1.551-7.354-2.449,1.179-1.571Z" transform="translate(-832.725 5317.375)" fill="#fff"/>
                <path id="Path_2732" data-name="Path 2732" d="M851-5285.192l-1.793,2.134,1.346,1.131,2.118-2.522,1.044.876-3.259,3.879-5.629-4.728,3.264-3.887,1.048.88-2.124,2.529,1.188,1,1.793-2.135Z" transform="translate(-833.475 5318.103)" fill="#fff"/>
                <path id="Path_2733" data-name="Path 2733" d="M854.976-5286.593l2.1-2.261,1,.927-3.3,3.561-5.39-5,1.2-1.3Z" transform="translate(-834.104 5318.428)" fill="#fff"/>
                <path id="Path_2734" data-name="Path 2734" d="M861.106-5295.987a4.331,4.331,0,0,1,1.039,1.645,2.947,2.947,0,0,1,.074,1.7,3.155,3.155,0,0,1-.89,1.486,3.2,3.2,0,0,1-1.5.85,2.947,2.947,0,0,1-1.674-.1,4.194,4.194,0,0,1-1.589-1.026l-.289-.3a4.34,4.34,0,0,1-1.043-1.644,2.936,2.936,0,0,1-.072-1.707,3.17,3.17,0,0,1,.9-1.5,3.14,3.14,0,0,1,1.506-.842,3,3,0,0,1,1.7.115,4.226,4.226,0,0,1,1.606,1.063Zm-1.508,1.034a3.094,3.094,0,0,0-1.421-.938,1.174,1.174,0,0,0-1.148.321q-.957.929.381,2.417l.373.392a3.184,3.184,0,0,0,1.413.942,1.173,1.173,0,0,0,1.169-.326,1.156,1.156,0,0,0,.346-1.13,3.094,3.094,0,0,0-.877-1.435Z" transform="translate(-834.891 5319.37)" fill="#fff"/>
                <path id="Path_2735" data-name="Path 2735" d="M864.578-5297.82l1.626,1.892-1.344,1.156-4.793-5.576,2.225-1.912a3.406,3.406,0,0,1,1.334-.737,2.344,2.344,0,0,1,1.338.015,2.413,2.413,0,0,1,1.117.754,2.127,2.127,0,0,1,.538,1.806,3.2,3.2,0,0,1-1.183,1.866Zm-.892-1.038.88-.756a1.091,1.091,0,0,0,.427-.708.954.954,0,0,0-.268-.728,1.182,1.182,0,0,0-.748-.443.985.985,0,0,0-.778.256l-.9.771Z" transform="translate(-835.581 5320.145)" fill="#fff"/>
                <path id="Path_2736" data-name="Path 2736" d="M868.2-5307.435l4.375,3.117-1.75-5.077,1.869-1.4,4.4,5.89-1.424,1.064-1.027-1.375-1.966-2.919,1.707,5.255-.939.7-4.562-3.128,2.244,2.717,1.027,1.375-1.42,1.061-4.4-5.891Z" transform="translate(-836.447 5321.209)" fill="#fff"/>
                <path id="Path_2737" data-name="Path 2737" d="M881.3-5311.121l-2.336,1.52.958,1.473,2.76-1.8.743,1.143-4.245,2.763-4.009-6.163,4.253-2.769.747,1.147-2.768,1.8.845,1.3,2.336-1.521Z" transform="translate(-837.669 5321.784)" fill="#fff"/>
                <path id="Path_2738" data-name="Path 2738" d="M890.109-5312.741l-1.531.875-4.533-2.676,2.272,3.97-1.537.881-3.653-6.381,1.538-.881,4.531,2.679-2.273-3.97,1.534-.878Z" transform="translate(-838.491 5322.361)" fill="#fff"/>
                <path id="Path_2739" data-name="Path 2739" d="M894.538-5321.654l-1.978.979,2.655,5.363-1.589.786-2.654-5.362-1.942.961-.607-1.226,5.507-2.727Z" transform="translate(-839.5 5322.88)" fill="#fff"/>
            </g>
        </g>
        <text id="PLANNING" transform="translate(768.198 -5099.973)" fill="#fff" font-size="10" font-family="Roboto-Black, Roboto" font-weight="800"><tspan x="0" y="0">PLANNING</tspan></text>
        <text id="FEEDBACK" transform="translate(1015.652 -5099.973)" fill="#fff" font-size="10" font-family="Roboto-Black, Roboto" font-weight="800"><tspan x="0" y="0">FEEDBACK</tspan></text>
        <path id="Path_2740" data-name="Path 2740" d="M802.75-5117.287l-1.4,6.247-6.247-1.4" transform="translate(-15.906 -34.793)" fill="none" stroke="#fff" stroke-linecap="round" stroke-linejoin="round" stroke-width="1.25"/>
        <path id="Path_2741" data-name="Path 2741" d="M942.457-5029.047l5.332,3.543-3.543,5.332" transform="translate(-36.268 -46.986)" fill="none" stroke="#fff" stroke-linecap="round" stroke-linejoin="round" stroke-width="1.25"/>
        <path id="Path_2742" data-name="Path 2742" d="M1131.547-5026.034l4.621,4.43-4.429,4.621" transform="translate(-62.397 -47.402)" fill="none" stroke="#fff" stroke-linecap="round" stroke-linejoin="round" stroke-width="1.25"/>
    </g>
</svg>
