<svg xmlns="http://www.w3.org/2000/svg" width="176" height="176" viewBox="0 0 176 176">
    <g id="Group_774" data-name="Group 774" transform="translate(-156 -909)">
        <circle id="Ellipse_225" data-name="Ellipse 225" cx="66" cy="66" r="66" transform="translate(178 931)" fill="#202834"/>
        <g id="Ellipse_226" data-name="Ellipse 226" transform="translate(156 909)" fill="none" stroke="#7f5ca6" stroke-width="10">
            <circle cx="88" cy="88" r="88" stroke="none"/>
            <circle cx="88" cy="88" r="83" fill="none"/>
        </g>
        <g id="Group_719" data-name="Group 719" transform="translate(210.89 963.315)">
            <path id="Path_1792" data-name="Path 1792" d="M-590.5,859.023l6.822-21.4,44.454-45.969,14.943,14.451-44.454,45.969-21.765,6.95" transform="translate(590.5 -791.652)" fill="none" stroke="#805da7" stroke-linecap="round" stroke-linejoin="round" stroke-miterlimit="10" stroke-width="4"/>
            <path id="Path_1793" data-name="Path 1793" d="M-590.5,859.023l6.822-21.4,44.454-45.969,14.943,14.451-44.454,45.969-21.765,6.95" transform="translate(590.5 -791.652)" fill="none" stroke="#805da7" stroke-linecap="round" stroke-linejoin="round" stroke-miterlimit="10" stroke-width="4"/>
            <line id="Line_76" data-name="Line 76" x2="14.563" y2="14.843" transform="translate(43.044 8.513)" fill="none" stroke="#805da7" stroke-linecap="round" stroke-miterlimit="10" stroke-width="4"/>
            <path id="Path_1796" data-name="Path 1796" d="M-506.356,863.623l15.859,16.03a3.381,3.381,0,0,1,0,4.78l-9.241,9.241a3.38,3.38,0,0,1-4.78,0l-15.766-15.731" transform="translate(554.692 -828.308)" fill="none" stroke="#805da7" stroke-linecap="round" stroke-linejoin="round" stroke-miterlimit="10" stroke-width="4"/>
            <path id="Path_1797" data-name="Path 1797" d="M-572.834,825.829-588.9,809.6a3.38,3.38,0,0,1,0-4.78l9.241-9.241a3.379,3.379,0,0,1,4.78,0l15.95,15.886" transform="translate(590.198 -793.109)" fill="none" stroke="#805da7" stroke-linecap="round" stroke-linejoin="round" stroke-miterlimit="10" stroke-width="4"/>
            <line id="Line_77" data-name="Line 77" y1="8.955" x2="8.955" transform="translate(6.157 11.445)" fill="none" stroke="#805da7" stroke-linecap="round" stroke-miterlimit="10" stroke-width="4"/>
            <line id="Line_78" data-name="Line 78" y1="4.477" x2="4.477" transform="translate(12.554 22.318)" fill="none" stroke="#805da7" stroke-linecap="round" stroke-miterlimit="10" stroke-width="4"/>
            <line id="Line_79" data-name="Line 79" y1="8.955" x2="8.955" transform="translate(46.651 52.299)" fill="none" stroke="#805da7" stroke-linecap="round" stroke-miterlimit="10" stroke-width="4"/>
            <line id="Line_80" data-name="Line 80" y1="4.477" x2="4.477" transform="translate(39.935 50.38)" fill="none" stroke="#805da7" stroke-linecap="round" stroke-miterlimit="10" stroke-width="4"/>
            <path id="Path_2691" data-name="Path 2691" d="M7.082,46.087l6.208,6.02,7.982,7.74" fill="none" stroke="#805da7" stroke-linecap="round" stroke-linejoin="round" stroke-width="4"/>
        </g>
    </g>
</svg>
