<svg xmlns="http://www.w3.org/2000/svg" width="186" height="186" viewBox="0 0 186 186">
    <g id="Group_773" data-name="Group 773" transform="translate(-151 -904)">
        <circle id="Ellipse_225" data-name="Ellipse 225" cx="66" cy="66" r="66" transform="translate(178 931)" fill="#202834"/>
        <g id="Group_741" data-name="Group 741" transform="translate(209.336 963.438)">
            <rect id="Rectangle_44" data-name="Rectangle 44" width="69.58" height="67.05" rx="4" transform="translate(-0.126 0.037)" fill="none" stroke="#805da7" stroke-linecap="round" stroke-linejoin="round" stroke-miterlimit="10" stroke-width="4"/>
            <path id="Path_1791" data-name="Path 1791" d="M0,0H68.586" transform="translate(0.312 13.645)" fill="none" stroke="#805da7" stroke-linecap="round" stroke-width="4"/>
            <circle id="Ellipse_195" data-name="Ellipse 195" cx="1.898" cy="1.898" r="1.898" transform="translate(4.935 5.098)" fill="#805da7"/>
            <circle id="Ellipse_196" data-name="Ellipse 196" cx="1.898" cy="1.898" r="1.898" transform="translate(11.26 5.098)" fill="#805da7"/>
            <circle id="Ellipse_197" data-name="Ellipse 197" cx="1.898" cy="1.898" r="1.898" transform="translate(17.585 5.098)" fill="#805da7"/>
            <rect id="Rectangle_46" data-name="Rectangle 46" width="24.215" height="14.153" transform="translate(8.73 44.336)" fill="none" stroke="#805da7" stroke-linecap="round" stroke-linejoin="round" stroke-miterlimit="10" stroke-width="4"/>
            <rect id="Rectangle_48" data-name="Rectangle 48" width="19.215" height="14.153" transform="translate(41.994 44.336)" fill="none" stroke="#805da7" stroke-linecap="round" stroke-linejoin="round" stroke-miterlimit="10" stroke-width="4"/>
            <line id="Line_72" data-name="Line 72" x2="11.625" transform="translate(41.994 25.378)" fill="none" stroke="#805da7" stroke-linecap="round" stroke-miterlimit="10" stroke-width="4"/>
            <line id="Line_73" data-name="Line 73" x2="21.207" transform="translate(41.994 33.19)" fill="none" stroke="#805da7" stroke-linecap="round" stroke-miterlimit="10" stroke-width="4"/>
            <rect id="Rectangle_87" data-name="Rectangle 87" width="23.215" height="14.153" transform="translate(8.73 21.336)" fill="none" stroke="#805da7" stroke-linecap="round" stroke-linejoin="round" stroke-miterlimit="10" stroke-width="4"/>
        </g>
        <g id="Group_778" data-name="Group 778" transform="translate(-3680.665 2863.449)">
            <g id="Ellipse_227" data-name="Ellipse 227" transform="translate(3831.665 -1959.449)" fill="none" stroke="#202834" stroke-width="10">
                <circle cx="93" cy="93" r="93" stroke="none"/>
                <circle cx="93" cy="93" r="88" fill="none"/>
            </g>
            <path id="Path_2696" data-name="Path 2696" d="M3924.665-1954.449a88,88,0,0,1,88,88,88,88,0,0,1-88,88,88,88,0,0,1-88-88,87.9,87.9,0,0,1,4.628-28.237" fill="none" stroke="#7f5ca6" stroke-linecap="round" stroke-linejoin="round" stroke-miterlimit="10" stroke-width="10"/>
        </g>
    </g>
</svg>
