<svg width="74" height="138" viewBox="0 0 74 138" fill="none" xmlns="http://www.w3.org/2000/svg">
<path opacity="0.25" d="M12.8339 35.398C9.35922 35.3984 5.96243 34.3684 3.07312 32.4382C0.183816 30.508 -2.06823 27.7644 -3.39822 24.5543C-4.7282 21.3442 -5.0764 17.8118 -4.39876 14.4038C-3.72112 10.9959 -2.04808 7.86536 0.408765 5.40823C2.86561 2.9511 5.99593 1.27771 9.40384 0.599679C12.8118 -0.0783478 16.3442 0.269448 19.5544 1.59907C22.7647 2.92869 25.5086 5.18041 27.439 8.0695C29.3695 10.9586 30.3999 14.3553 30.3999 17.83C30.3946 22.4873 28.5423 26.9524 25.2492 30.2459C21.9562 33.5393 17.4913 35.3922 12.8339 35.398Z" fill="#FCFCFC"/>
<path opacity="0.25" d="M12.7879 137.254C12.5731 137.249 12.3614 137.202 12.165 137.115C11.9686 137.028 11.7915 136.902 11.6438 136.746C11.4961 136.59 11.3808 136.406 11.3047 136.206C11.2285 136.005 11.1929 135.791 11.1999 135.576C11.2046 135.361 11.2518 135.148 11.3387 134.951C11.4256 134.754 11.5507 134.576 11.7066 134.427C11.8625 134.279 12.0462 134.162 12.2472 134.085C12.4482 134.007 12.6626 133.97 12.8779 133.976C13.312 133.989 13.723 134.174 14.0207 134.49C14.3185 134.807 14.4786 135.228 14.4659 135.662C14.4529 136.088 14.2748 136.491 13.9693 136.788C13.6637 137.085 13.2548 137.251 12.8289 137.251H12.7879V137.254ZM17.7729 135.568C17.7369 135.136 17.8734 134.707 18.1527 134.376C18.4319 134.044 18.8311 133.837 19.2629 133.799C19.6959 133.761 20.1261 133.897 20.4591 134.177C20.792 134.456 21.0006 134.856 21.0389 135.289C21.0731 135.723 20.9347 136.153 20.6539 136.485C20.373 136.818 19.9724 137.026 19.5389 137.065V137.057C19.4929 137.064 19.4464 137.066 19.3999 137.065C18.9907 137.064 18.5967 136.91 18.2955 136.633C17.9944 136.355 17.8079 135.976 17.7729 135.568ZM6.05093 136.688C5.83787 136.658 5.63274 136.587 5.44732 136.478C5.26189 136.369 5.09985 136.225 4.97049 136.053C4.84113 135.881 4.74701 135.685 4.69354 135.477C4.64007 135.269 4.62831 135.052 4.65893 134.839C4.68874 134.626 4.76028 134.421 4.86945 134.236C4.97861 134.05 5.12326 133.888 5.29512 133.759C5.46697 133.63 5.66264 133.536 5.87093 133.482C6.07921 133.429 6.29602 133.417 6.50893 133.447C6.72181 133.477 6.92668 133.549 7.11185 133.658C7.29701 133.767 7.45885 133.912 7.58811 134.084C7.71737 134.255 7.81153 134.451 7.8652 134.659C7.91888 134.867 7.93102 135.084 7.90093 135.297C7.84555 135.687 7.6511 136.045 7.3533 136.304C7.05551 136.562 6.67437 136.705 6.27993 136.705C6.20333 136.704 6.12687 136.698 6.05093 136.688ZM24.3049 134.823C24.221 134.397 24.3091 133.956 24.55 133.595C24.7908 133.235 25.1648 132.984 25.5899 132.899C26.0154 132.813 26.4575 132.899 26.8196 133.138C27.1817 133.378 27.4342 133.751 27.5219 134.176C27.6046 134.602 27.5161 135.044 27.2756 135.405C27.0351 135.766 26.662 136.019 26.2369 136.107C26.1287 136.127 26.019 136.138 25.9089 136.14C25.5312 136.137 25.1659 136.005 24.8739 135.765C24.582 135.525 24.3812 135.193 24.3049 134.823ZM-0.580067 135.354C-0.788448 135.3 -0.984097 135.205 -1.15578 135.075C-1.32747 134.945 -1.47181 134.783 -1.58051 134.597C-1.68922 134.411 -1.76016 134.206 -1.78926 133.992C-1.81836 133.779 -1.80504 133.562 -1.75007 133.354C-1.69596 133.146 -1.60125 132.95 -1.47137 132.778C-1.34149 132.606 -1.17898 132.462 -0.993176 132.353C-0.807369 132.244 -0.601913 132.173 -0.388596 132.144C-0.175278 132.115 0.0417137 132.128 0.249931 132.183C0.458267 132.237 0.653862 132.332 0.825516 132.462C0.997169 132.592 1.14151 132.754 1.25029 132.94C1.35906 133.126 1.43011 133.331 1.4594 133.544C1.48868 133.758 1.47561 133.975 1.42093 134.183C1.32894 134.533 1.12437 134.842 0.83881 135.064C0.553253 135.286 0.202583 135.408 -0.159069 135.411C-0.30114 135.408 -0.442421 135.389 -0.580067 135.354ZM30.7139 133.333C30.5812 132.92 30.6169 132.472 30.8132 132.086C31.0095 131.699 31.3505 131.406 31.7619 131.27H31.7699C32.1836 131.138 32.6328 131.174 33.0193 131.372C33.4059 131.57 33.6984 131.913 33.8329 132.326C33.9659 132.74 33.9293 133.189 33.7314 133.576C33.5334 133.962 33.1902 134.255 32.7769 134.389C32.6123 134.437 32.4415 134.462 32.2699 134.462C31.9246 134.462 31.5881 134.353 31.3086 134.15C31.0291 133.947 30.821 133.661 30.7139 133.333ZM-7.02107 133.267C-7.42369 133.107 -7.74723 132.795 -7.92194 132.398C-8.09665 132.001 -8.10855 131.552 -7.95507 131.147C-7.79574 130.741 -7.48226 130.416 -7.08324 130.241C-6.68423 130.066 -6.23219 130.056 -5.82607 130.214H-5.83507C-5.63454 130.292 -5.45132 130.408 -5.29588 130.557C-5.14045 130.706 -5.01584 130.884 -4.92919 131.081C-4.84254 131.277 -4.79555 131.489 -4.79089 131.705C-4.78624 131.92 -4.82402 132.133 -4.90207 132.334C-5.02004 132.642 -5.22868 132.907 -5.50042 133.094C-5.77217 133.281 -6.09423 133.381 -6.42407 133.381C-6.6283 133.379 -6.83053 133.34 -7.02107 133.267ZM36.9109 131.122C36.8209 130.926 36.7704 130.715 36.7624 130.5C36.7544 130.285 36.7891 130.071 36.8644 129.869C36.9397 129.668 37.0541 129.483 37.2011 129.326C37.3482 129.169 37.5248 129.042 37.7209 128.954C38.1149 128.773 38.5644 128.756 38.9711 128.906C39.3778 129.056 39.7085 129.361 39.8909 129.754C40.0699 130.151 40.085 130.602 39.9332 131.01C39.7813 131.417 39.4747 131.749 39.0799 131.932C38.8664 132.028 38.6351 132.078 38.4009 132.079C38.0872 132.078 37.7803 131.987 37.5164 131.818C37.2524 131.648 37.0424 131.407 36.9109 131.122ZM-13.1691 130.46C-13.5526 130.257 -13.8402 129.911 -13.9692 129.496C-14.0981 129.082 -14.0578 128.634 -13.8571 128.249C-13.7574 128.058 -13.6211 127.889 -13.456 127.752C-13.2908 127.614 -13.1001 127.51 -12.8948 127.446C-12.6894 127.382 -12.4735 127.36 -12.2594 127.38C-12.0453 127.4 -11.8372 127.461 -11.6471 127.562C-11.2634 127.764 -10.9756 128.111 -10.8467 128.525C-10.7177 128.939 -10.7581 129.387 -10.9591 129.772C-11.0987 130.035 -11.3073 130.256 -11.5625 130.41C-11.8177 130.564 -12.1099 130.646 -12.4081 130.647C-12.6735 130.65 -12.9354 130.586 -13.1691 130.46ZM42.7999 128.217C42.5769 127.844 42.5103 127.398 42.6147 126.976C42.719 126.554 42.9858 126.191 43.3569 125.965C43.7286 125.741 44.1739 125.673 44.5956 125.775C45.0173 125.878 45.3812 126.144 45.6079 126.514C45.8314 126.887 45.8983 127.333 45.7939 127.754C45.6895 128.176 45.4224 128.539 45.0509 128.765C44.7979 128.922 44.5056 129.004 44.2079 129.002C43.9256 129.003 43.6479 128.931 43.4013 128.793C43.1548 128.656 42.9477 128.457 42.7999 128.217ZM-18.9691 126.964C-19.3261 126.718 -19.5713 126.34 -19.6509 125.914C-19.7305 125.488 -19.6382 125.047 -19.3941 124.689C-19.1483 124.331 -18.7707 124.085 -18.3441 124.006C-17.9175 123.926 -17.4766 124.018 -17.1181 124.263C-16.7605 124.509 -16.515 124.886 -16.4353 125.313C-16.3557 125.74 -16.4484 126.181 -16.6931 126.539C-16.8439 126.758 -17.0455 126.937 -17.2806 127.061C-17.5157 127.185 -17.7773 127.25 -18.0431 127.251C-18.3724 127.251 -18.6941 127.151 -18.9651 126.964H-18.9691ZM48.3309 124.647C48.1984 124.478 48.1008 124.284 48.0439 124.076C47.9869 123.869 47.9717 123.652 47.9991 123.439C48.0266 123.226 48.0961 123.02 48.2037 122.834C48.3113 122.648 48.4548 122.485 48.6259 122.355C48.7956 122.223 48.9898 122.126 49.1973 122.069C49.4048 122.013 49.6214 121.998 49.8346 122.026C50.0478 122.054 50.2533 122.124 50.4393 122.232C50.6252 122.34 50.7879 122.484 50.9179 122.655C51.0502 122.824 51.1476 123.018 51.2044 123.226C51.2612 123.433 51.2763 123.649 51.2489 123.863C51.2214 124.076 51.152 124.281 51.0445 124.467C50.9371 124.654 50.7938 124.817 50.6229 124.947C50.3393 125.174 49.986 125.295 49.6229 125.291C49.3736 125.289 49.1279 125.23 48.9051 125.119C48.6822 125.007 48.4881 124.845 48.3379 124.646L48.3309 124.647ZM-24.3251 122.838C-24.4885 122.697 -24.6224 122.525 -24.7191 122.332C-24.8159 122.139 -24.8735 121.929 -24.8886 121.714C-24.9038 121.499 -24.8762 121.282 -24.8074 121.078C-24.7387 120.873 -24.6301 120.684 -24.4881 120.522C-24.2029 120.195 -23.8001 119.995 -23.3677 119.964C-22.9352 119.934 -22.5083 120.076 -22.1801 120.359C-21.8537 120.644 -21.6533 121.046 -21.6226 121.479C-21.5918 121.911 -21.7333 122.338 -22.0161 122.666C-22.1692 122.844 -22.359 122.987 -22.5725 123.084C-22.7861 123.182 -23.0182 123.232 -23.2531 123.232C-23.6434 123.23 -24.0207 123.091 -24.3181 122.838H-24.3251ZM53.4139 120.481C53.1117 120.169 52.9454 119.75 52.9516 119.316C52.9578 118.881 53.1359 118.467 53.4469 118.164C53.7589 117.862 54.1779 117.695 54.6123 117.702C55.0466 117.708 55.4607 117.886 55.7639 118.197C56.0662 118.509 56.2325 118.928 56.2263 119.362C56.2201 119.797 56.042 120.211 55.7309 120.514C55.4273 120.812 55.0188 120.98 54.5929 120.981C54.1515 120.976 53.7302 120.796 53.4209 120.481H53.4139ZM-29.1791 118.124C-29.4725 117.803 -29.6268 117.379 -29.6081 116.945C-29.5893 116.51 -29.3991 116.101 -29.0791 115.807C-28.9206 115.662 -28.7352 115.55 -28.5334 115.477C-28.3316 115.404 -28.1174 115.372 -27.9031 115.382C-27.6888 115.391 -27.4785 115.443 -27.2842 115.535C-27.09 115.626 -26.9156 115.754 -26.7711 115.913C-26.6251 116.07 -26.5117 116.255 -26.4372 116.456C-26.3627 116.658 -26.3287 116.872 -26.3371 117.086C-26.3454 117.301 -26.396 117.511 -26.4859 117.706C-26.5758 117.901 -26.7033 118.076 -26.8611 118.222C-27.1658 118.5 -27.5628 118.654 -27.9751 118.656C-28.2004 118.654 -28.4231 118.606 -28.629 118.515C-28.835 118.423 -29.0198 118.29 -29.1721 118.124H-29.1791ZM57.9979 115.766C57.6627 115.489 57.4504 115.092 57.4075 114.659C57.3646 114.227 57.4945 113.795 57.7689 113.458C58.0456 113.123 58.4436 112.91 58.8762 112.867C59.3088 112.824 59.7408 112.954 60.0779 113.229C60.413 113.506 60.6251 113.903 60.668 114.336C60.7109 114.768 60.5811 115.2 60.3069 115.537C60.1527 115.724 59.9589 115.875 59.7396 115.979C59.5202 116.083 59.2806 116.137 59.0379 116.137C58.6618 116.132 58.2981 116.002 58.0049 115.766H57.9979ZM-33.4601 112.893C-33.716 112.543 -33.8227 112.106 -33.7567 111.678C-33.6907 111.25 -33.4574 110.865 -33.1081 110.609C-32.9341 110.482 -32.7367 110.39 -32.5272 110.339C-32.3177 110.289 -32.1003 110.28 -31.8873 110.313C-31.6744 110.347 -31.4702 110.422 -31.2864 110.534C-31.1025 110.647 -30.9427 110.795 -30.8161 110.969C-30.5612 111.32 -30.456 111.757 -30.5235 112.185C-30.591 112.614 -30.8257 112.998 -31.1761 113.253C-31.4569 113.456 -31.7952 113.565 -32.1421 113.564C-32.398 113.563 -32.6503 113.502 -32.8781 113.386C-33.106 113.269 -33.303 113.1 -33.4531 112.893H-33.4601ZM62.0169 110.552C61.8364 110.436 61.6807 110.285 61.5586 110.108C61.4366 109.932 61.3506 109.733 61.3058 109.523C61.2609 109.313 61.2579 109.096 61.2971 108.885C61.3362 108.674 61.4167 108.473 61.5339 108.293C61.6496 108.112 61.8 107.955 61.9763 107.832C62.1527 107.71 62.3516 107.623 62.5616 107.577C62.7717 107.531 62.9887 107.528 63.2001 107.566C63.4116 107.604 63.6134 107.684 63.7939 107.801C63.9747 107.917 64.1308 108.067 64.2534 108.244C64.3759 108.42 64.4624 108.619 64.508 108.829C64.5536 109.039 64.5574 109.256 64.5191 109.467C64.4808 109.679 64.4013 109.88 64.2849 110.061C64.1367 110.293 63.932 110.484 63.69 110.616C63.4479 110.747 63.1765 110.816 62.9009 110.814C62.5894 110.813 62.2849 110.722 62.0239 110.552H62.0169ZM-37.1271 107.212C-37.234 107.026 -37.3029 106.82 -37.3299 106.607C-37.3568 106.394 -37.3413 106.178 -37.2842 105.971C-37.2271 105.764 -37.1296 105.57 -36.9972 105.401C-36.8649 105.232 -36.7003 105.091 -36.5131 104.986C-36.326 104.879 -36.1198 104.811 -35.9062 104.784C-35.6927 104.757 -35.4759 104.773 -35.2683 104.83C-35.0607 104.887 -34.8664 104.984 -34.6965 105.116C-34.5266 105.248 -34.3844 105.413 -34.2781 105.6C-34.0665 105.977 -34.0123 106.422 -34.1273 106.839C-34.2423 107.256 -34.5171 107.611 -34.8921 107.826C-35.1389 107.968 -35.4182 108.044 -35.7031 108.047C-35.9919 108.045 -36.2752 107.967 -36.524 107.82C-36.7729 107.674 -36.9786 107.464 -37.1201 107.212H-37.1271ZM65.4229 104.92C65.2298 104.825 65.0572 104.693 64.9152 104.531C64.7731 104.37 64.6644 104.182 64.5952 103.978C64.526 103.774 64.4977 103.559 64.5118 103.344C64.526 103.13 64.5825 102.92 64.6779 102.727C64.8712 102.339 65.2102 102.042 65.621 101.903C66.0318 101.763 66.4811 101.792 66.8709 101.982C67.2605 102.174 67.5578 102.513 67.6975 102.924C67.8372 103.335 67.8079 103.785 67.6159 104.175C67.4808 104.45 67.2711 104.682 67.0107 104.844C66.7503 105.006 66.4497 105.092 66.1429 105.092C65.8954 105.088 65.6518 105.03 65.4299 104.92H65.4229ZM-40.1231 101.155C-40.2906 100.754 -40.2934 100.303 -40.131 99.9003C-39.9685 99.4973 -39.6538 99.1745 -39.2551 99.0019C-38.8532 98.8357 -38.4021 98.8345 -37.9994 98.9984C-37.5966 99.1624 -37.2746 99.4783 -37.1031 99.8779C-36.9349 100.278 -36.9327 100.729 -37.0967 101.131C-37.2608 101.533 -37.5778 101.854 -37.9781 102.022C-38.1796 102.11 -38.3972 102.155 -38.6171 102.154C-38.9368 102.15 -39.2486 102.054 -39.5147 101.877C-39.7808 101.699 -39.9897 101.449 -40.1161 101.155H-40.1231ZM68.1559 98.9369C67.9528 98.8643 67.766 98.7524 67.6063 98.6075C67.4466 98.4625 67.317 98.2875 67.225 98.0924C67.133 97.8973 67.0805 97.686 67.0703 97.4706C67.0602 97.2551 67.0927 97.0398 67.1659 96.8369C67.313 96.427 67.6169 96.0924 68.0107 95.9065C68.4045 95.7207 68.856 95.6989 69.2659 95.8459C69.6756 95.9932 70.0101 96.2971 70.1957 96.6909C70.3814 97.0847 70.403 97.5361 70.2559 97.9459C70.1433 98.2641 69.9348 98.5395 69.6592 98.7343C69.3836 98.9292 69.0544 99.0338 68.7169 99.0339C68.5281 99.0329 68.3408 99.0002 68.1629 98.9369H68.1559ZM-42.3921 94.7859C-42.515 94.3709 -42.4682 93.924 -42.262 93.5434C-42.0558 93.1628 -41.7069 92.8796 -41.2921 92.7559C-41.0856 92.6945 -40.869 92.6744 -40.6547 92.6967C-40.4404 92.7191 -40.2326 92.7834 -40.0433 92.8862C-39.8539 92.9889 -39.6866 93.128 -39.551 93.2954C-39.4154 93.4628 -39.3142 93.6553 -39.2531 93.8619C-39.1318 94.2787 -39.181 94.7266 -39.3899 95.1071C-39.5988 95.4876 -39.9503 95.7695 -40.3671 95.8909C-40.5153 95.9367 -40.6699 95.959 -40.8251 95.9569C-41.1776 95.9567 -41.5206 95.8427 -41.803 95.6316C-42.0854 95.4206 -42.292 95.124 -42.3921 94.7859ZM70.1939 92.6739C69.7717 92.5752 69.406 92.3129 69.1772 91.9446C68.9484 91.5762 68.8753 91.1321 68.9739 90.7099C69.0229 90.5008 69.1126 90.3035 69.2378 90.129C69.3631 89.9546 69.5215 89.8066 69.7039 89.6934C69.8864 89.5802 70.0894 89.5041 70.3013 89.4693C70.5132 89.4346 70.7299 89.4419 70.9389 89.4909C71.1482 89.5393 71.3459 89.6286 71.5206 89.7536C71.6953 89.8786 71.8435 90.0369 71.9568 90.2195C72.0701 90.402 72.1462 90.6051 72.1807 90.8171C72.2152 91.0291 72.2075 91.2459 72.1579 91.4549C72.0752 91.8138 71.873 92.134 71.5845 92.3629C71.296 92.5918 70.9382 92.7159 70.5699 92.7149C70.4434 92.7172 70.317 92.7034 70.1939 92.6739ZM-43.9221 88.1969C-43.959 87.9851 -43.9537 87.7681 -43.9066 87.5584C-43.8595 87.3486 -43.7714 87.1502 -43.6475 86.9746C-43.5236 86.7989 -43.3662 86.6494 -43.1844 86.5347C-43.0026 86.4199 -42.8 86.3422 -42.5881 86.3059C-42.3763 86.2691 -42.1593 86.2745 -41.9496 86.3217C-41.7399 86.3689 -41.5416 86.4569 -41.366 86.5808C-41.1903 86.7047 -41.0408 86.862 -40.9261 87.0438C-40.8113 87.2255 -40.7335 87.4281 -40.6971 87.6399C-40.6602 87.8517 -40.6654 88.0687 -40.7125 88.2784C-40.7597 88.4882 -40.8477 88.6866 -40.9716 88.8623C-41.0955 89.0379 -41.2529 89.1874 -41.4347 89.3022C-41.6165 89.4169 -41.8192 89.4946 -42.0311 89.5309C-42.1232 89.5468 -42.2165 89.5551 -42.3101 89.5559C-42.696 89.5564 -43.0697 89.4202 -43.3648 89.1714C-43.6599 88.9227 -43.8573 88.5774 -43.9221 88.1969ZM71.4999 86.2239C71.2861 86.2008 71.079 86.1356 70.8905 86.0319C70.7021 85.9283 70.536 85.7883 70.402 85.62C70.268 85.4518 70.1687 85.2587 70.1098 85.0518C70.0509 84.845 70.0336 84.6285 70.0589 84.4149C70.0827 84.2014 70.1483 83.9946 70.2522 83.8066C70.3561 83.6185 70.4961 83.4528 70.6642 83.319C70.8323 83.1852 71.0251 83.0859 71.2317 83.0268C71.4383 82.9678 71.6545 82.9501 71.8679 82.9749C72.0817 82.9983 72.2887 83.0637 72.477 83.1674C72.6653 83.2712 72.8312 83.4111 72.9652 83.5793C73.0991 83.7475 73.1985 83.9405 73.2575 84.1472C73.3165 84.354 73.334 84.5704 73.3089 84.7839C73.2647 85.1832 73.0752 85.5522 72.7765 85.8207C72.4777 86.0892 72.0906 86.2384 71.6889 86.2399C71.6257 86.2386 71.5625 86.2332 71.4999 86.2239ZM-44.7001 81.4769V81.4849C-44.7244 81.0497 -44.5752 80.6227 -44.2852 80.2973C-43.9953 79.9719 -43.5882 79.7747 -43.1531 79.7489C-42.7192 79.7263 -42.294 79.8763 -41.9704 80.1661C-41.6468 80.456 -41.4511 80.8622 -41.4261 81.2959C-41.4028 81.7287 -41.5515 82.1531 -41.8398 82.4768C-42.128 82.8005 -42.5325 82.9971 -42.9651 83.0239H-43.0651C-43.483 83.0216 -43.8845 82.8605 -44.1881 82.5733C-44.4917 82.286 -44.6747 81.8941 -44.7001 81.4769ZM70.4149 78.0389V77.9729V77.9159C70.4139 77.7013 70.4552 77.4885 70.5366 77.2899C70.618 77.0913 70.7378 76.9107 70.8892 76.7585C71.0405 76.6063 71.2204 76.4855 71.4186 76.403C71.6168 76.3206 71.8293 76.278 72.0439 76.2779C72.4791 76.2776 72.8966 76.4499 73.2049 76.757C73.5133 77.064 73.6873 77.4808 73.6889 77.9159V77.9729V78.0389C73.6876 78.4727 73.5147 78.8883 73.208 79.195C72.9013 79.5017 72.4857 79.6746 72.0519 79.6759C71.8369 79.676 71.624 79.6338 71.4253 79.5516C71.2267 79.4693 71.0461 79.3488 70.8941 79.1967C70.7421 79.0447 70.6215 78.8642 70.5393 78.6655C70.4571 78.4669 70.4148 78.2539 70.4149 78.0389ZM-43.1611 76.4459C-43.5934 76.4193 -43.9977 76.2231 -44.2859 75.8998C-44.5742 75.5765 -44.723 75.1524 -44.7001 74.7199C-44.6893 74.5052 -44.6363 74.2948 -44.544 74.1007C-44.4517 73.9066 -44.3219 73.7326 -44.1622 73.5887C-44.0025 73.4449 -43.8159 73.334 -43.6132 73.2625C-43.4105 73.191 -43.1957 73.1602 -42.9811 73.1719C-42.547 73.1959 -42.1401 73.3913 -41.8501 73.7152C-41.56 74.039 -41.4103 74.4648 -41.4341 74.8989C-41.4581 75.3169 -41.6409 75.71 -41.9453 75.9976C-42.2496 76.2852 -42.6523 76.4456 -43.0711 76.4459H-43.1611ZM70.0389 71.5349C70.014 71.3209 70.0315 71.1042 70.0905 70.897C70.1494 70.6898 70.2487 70.4963 70.3825 70.3275C70.5164 70.1587 70.6822 70.018 70.8705 69.9134C71.0588 69.8088 71.2659 69.7424 71.4799 69.7179C71.6933 69.6933 71.9095 69.711 72.116 69.7701C72.3225 69.8292 72.5154 69.9285 72.6834 70.0623C72.8515 70.1961 72.9915 70.3617 73.0954 70.5497C73.1993 70.7378 73.2651 70.9444 73.2889 71.1579C73.3152 71.371 73.2989 71.5873 73.2409 71.794C73.1829 72.0008 73.0843 72.194 72.951 72.3623C72.8176 72.5306 72.6522 72.6707 72.4642 72.7745C72.2762 72.8783 72.0694 72.9437 71.8559 72.9669C71.7937 72.9767 71.7309 72.9824 71.6679 72.9839C71.2663 72.985 70.8783 72.8383 70.5777 72.5719C70.2772 72.3054 70.085 71.9378 70.0379 71.5389L70.0389 71.5349ZM-42.6001 69.8939C-43.028 69.8195 -43.4092 69.579 -43.6606 69.2248C-43.9119 68.8706 -44.0131 68.4314 -43.9421 68.0029C-43.8679 67.5748 -43.6275 67.1934 -43.2733 66.9418C-42.9191 66.6902 -42.4797 66.5889 -42.0511 66.6599C-41.8391 66.6963 -41.6365 66.7742 -41.4547 66.889C-41.2728 67.0038 -41.1155 67.1534 -40.9916 67.3292C-40.8676 67.5049 -40.7796 67.7034 -40.7325 67.9132C-40.6854 68.123 -40.6802 68.3401 -40.7171 68.5519C-40.7803 68.9338 -40.9771 69.2808 -41.2723 69.5311C-41.5675 69.7815 -41.942 69.9189 -42.3291 69.9189C-42.42 69.919 -42.5107 69.9107 -42.6001 69.8939ZM68.9409 65.2459C68.8433 64.8225 68.9179 64.3777 69.1481 64.0092C69.3784 63.6407 69.7456 63.3788 70.1689 63.2809C70.5912 63.1831 71.0351 63.2565 71.4033 63.4852C71.7716 63.7138 72.0343 64.079 72.1339 64.5009C72.2323 64.9231 72.159 65.3671 71.9303 65.7353C71.7016 66.1036 71.336 66.366 70.9139 66.4649C70.791 66.4963 70.6648 66.5128 70.5379 66.5139C70.1682 66.5121 69.8097 66.3861 69.5201 66.1561C69.2305 65.9262 69.0265 65.6056 68.9409 65.2459ZM-41.3201 63.4459C-41.7357 63.3223 -42.0858 63.0396 -42.2942 62.6593C-42.5026 62.279 -42.5525 61.8318 -42.4331 61.4149C-42.3096 60.9993 -42.0271 60.6493 -41.647 60.4409C-41.2669 60.2324 -40.8198 60.1825 -40.4031 60.3019C-39.9855 60.423 -39.633 60.7046 -39.4227 61.0851C-39.2124 61.4656 -39.1615 61.9139 -39.2811 62.3319C-39.3829 62.6721 -39.5915 62.9704 -39.8761 63.1827C-40.1606 63.3951 -40.506 63.5101 -40.8611 63.5109C-41.0162 63.5083 -41.1703 63.4865 -41.3201 63.4459ZM67.1319 59.1229C67.0589 58.92 67.0265 58.7046 67.0368 58.4891C67.0471 58.2737 67.0997 58.0624 67.1918 57.8673C67.2838 57.6723 67.4135 57.4973 67.5732 57.3524C67.733 57.2075 67.9198 57.0955 68.1229 57.0229C68.5328 56.8761 68.9842 56.8981 69.378 57.0839C69.7717 57.2697 70.0756 57.6042 70.2229 58.0139C70.2951 58.2159 70.3268 58.4302 70.3161 58.6445C70.3055 58.8588 70.2526 59.0689 70.1607 59.2627C70.0687 59.4565 69.9395 59.6303 69.7803 59.7742C69.6211 59.918 69.4351 60.029 69.2329 60.1009C69.0545 60.1662 68.866 60.2001 68.6759 60.2009C68.3389 60.2009 68.01 60.0972 67.7339 59.904C67.4577 59.7109 67.2476 59.4375 67.1319 59.1209V59.1229ZM-39.2891 57.1829C-39.4876 57.0998 -39.6679 56.9784 -39.8194 56.8256C-39.9709 56.6727 -40.0908 56.4915 -40.1722 56.2922C-40.2536 56.0929 -40.2949 55.8796 -40.2936 55.6643C-40.2924 55.4491 -40.2487 55.2362 -40.1651 55.0379C-39.9965 54.6378 -39.676 54.321 -39.274 54.157C-38.8721 53.9929 -38.4215 53.9951 -38.0211 54.1629C-37.6206 54.3313 -37.3033 54.6519 -37.1391 55.0541C-36.9748 55.4563 -36.977 55.9073 -37.1451 56.3079C-37.2684 56.6058 -37.4773 56.8604 -37.7454 57.0395C-38.0135 57.2186 -38.3287 57.3141 -38.6511 57.3139C-38.8707 57.3146 -39.088 57.2693 -39.2891 57.1809V57.1829ZM64.6359 53.2459C64.54 53.0536 64.483 52.8443 64.4681 52.63C64.4532 52.4156 64.4807 52.2005 64.5491 51.9968C64.6175 51.7931 64.7253 51.6048 64.8665 51.4429C65.0077 51.2809 65.1795 51.1484 65.3719 51.0529C65.5643 50.9569 65.7736 50.8997 65.9881 50.8847C66.2026 50.8697 66.4179 50.8972 66.6217 50.9656C66.8255 51.034 67.0138 51.1419 67.1758 51.2832C67.3379 51.4244 67.4704 51.5963 67.5659 51.7889V51.7969C67.6618 51.9886 67.7187 52.1974 67.7335 52.4112C67.7483 52.6251 67.7207 52.8397 67.6522 53.0428C67.5836 53.2459 67.4756 53.4334 67.3344 53.5946C67.1931 53.7558 67.0213 53.8874 66.8289 53.9819C66.6027 54.0946 66.3537 54.1538 66.1009 54.1549C65.7965 54.154 65.4983 54.0685 65.2396 53.908C64.9809 53.7475 64.7719 53.5183 64.6359 53.2459ZM-36.5641 51.1999C-36.9419 50.9849 -37.2188 50.6287 -37.3339 50.2096C-37.4491 49.7904 -37.393 49.3427 -37.1781 48.9649C-36.9649 48.5875 -36.6107 48.3101 -36.1932 48.1935C-35.7757 48.0769 -35.329 48.1306 -34.9511 48.3429C-34.5735 48.5557 -34.296 48.9098 -34.1793 49.3272C-34.0627 49.7446 -34.1165 50.1912 -34.3291 50.5689V50.5779C-34.4736 50.83 -34.6823 51.0393 -34.934 51.1844C-35.1858 51.3295 -35.4715 51.4052 -35.7621 51.4039C-36.0424 51.4034 -36.3182 51.3326 -36.5641 51.1979V51.1999ZM61.4759 47.6879C61.3596 47.5074 61.2801 47.3057 61.2418 47.0944C61.2035 46.8832 61.2073 46.6664 61.2529 46.4566C61.2985 46.2467 61.3851 46.048 61.5076 45.8716C61.6301 45.6953 61.7862 45.5448 61.9669 45.4289C62.3309 45.194 62.7731 45.113 63.1967 45.2035C63.6203 45.294 63.9908 45.5488 64.2269 45.9119C64.344 46.0925 64.4244 46.2945 64.4634 46.5061C64.5025 46.7178 64.4994 46.9351 64.4545 47.1457C64.4096 47.3562 64.3236 47.5558 64.2015 47.7331C64.0794 47.9103 63.9236 48.0618 63.7429 48.1789C63.4804 48.3511 63.1729 48.4422 62.8589 48.4409C62.5836 48.4413 62.3125 48.3723 62.0708 48.2404C61.8291 48.1084 61.6245 47.9177 61.4759 47.6859V47.6879ZM-33.1581 45.5599C-33.3329 45.4347 -33.4812 45.2761 -33.5945 45.0933C-33.7078 44.9105 -33.7838 44.707 -33.8181 44.4947C-33.8524 44.2824 -33.8443 44.0654 -33.7944 43.8562C-33.7444 43.6471 -33.6536 43.4498 -33.5271 43.2759C-33.2713 42.924 -32.8866 42.6876 -32.4571 42.6187C-32.0275 42.5497 -31.5881 42.6537 -31.2351 42.9079C-30.8842 43.1647 -30.6493 43.55 -30.5818 43.9796C-30.5143 44.4091 -30.6198 44.8479 -30.8751 45.1999C-31.0267 45.4092 -31.2262 45.5793 -31.4568 45.696C-31.6874 45.8127 -31.9426 45.8727 -32.2011 45.8709C-32.5455 45.8729 -32.8814 45.7631 -33.1581 45.5579V45.5599ZM57.7109 42.5309C57.5743 42.3652 57.4717 42.174 57.4093 41.9685C57.3468 41.7629 57.3256 41.547 57.3469 41.3333C57.3681 41.1195 57.4315 40.912 57.5333 40.7229C57.6351 40.5337 57.7733 40.3665 57.9399 40.2309C58.2744 39.9555 58.7044 39.8241 59.1357 39.8656C59.5669 39.907 59.9641 40.1179 60.2399 40.4519C60.5155 40.7878 60.647 41.219 60.6056 41.6515C60.5642 42.084 60.3533 42.4825 60.0189 42.7599C59.7236 42.9962 59.3571 43.1258 58.9789 43.1279C58.7365 43.1277 58.4971 43.074 58.2779 42.9704C58.0586 42.8668 57.865 42.7161 57.7109 42.5289V42.5309ZM-29.1471 40.3459C-29.3055 40.201 -29.4338 40.0263 -29.5246 39.8318C-29.6154 39.6372 -29.6669 39.4266 -29.6762 39.2122C-29.6855 38.9977 -29.6524 38.7835 -29.5787 38.5818C-29.5051 38.3801 -29.3924 38.1949 -29.2471 38.0369C-29.1025 37.8782 -28.9281 37.7495 -28.7338 37.6582C-28.5394 37.567 -28.329 37.515 -28.1145 37.5051C-27.9001 37.4953 -27.6858 37.5278 -27.4839 37.6009C-27.282 37.6739 -27.0966 37.7861 -26.9381 37.9309C-26.6175 38.2245 -26.4263 38.6332 -26.4064 39.0675C-26.3865 39.5018 -26.5396 39.9263 -26.8321 40.2479C-26.9865 40.4149 -27.1738 40.5483 -27.3822 40.6397C-27.5906 40.7311 -27.8155 40.7785 -28.0431 40.7789C-28.4529 40.7813 -28.8481 40.6263 -29.1471 40.3459ZM53.3809 37.8329C53.2268 37.6837 53.1037 37.5055 53.0186 37.3085C52.9335 37.1116 52.8881 36.8998 52.885 36.6853C52.882 36.4708 52.9213 36.2577 53.0007 36.0584C53.0801 35.8591 53.1981 35.6775 53.3479 35.5239C53.4961 35.3686 53.6737 35.2442 53.8703 35.158C54.0669 35.0717 54.2787 35.0254 54.4934 35.0215C54.708 35.0177 54.9213 35.0565 55.1209 35.1357C55.3204 35.2149 55.5023 35.3329 55.6559 35.4829C55.8113 35.632 55.9357 35.8104 56.0219 36.0078C56.1081 36.2051 56.1544 36.4176 56.1582 36.6329C56.162 36.8482 56.1232 37.0622 56.0441 37.2624C55.9649 37.4627 55.8469 37.6454 55.6969 37.7999C55.5435 37.9575 55.3603 38.0829 55.1578 38.1687C54.9554 38.2546 54.7378 38.2992 54.5179 38.2999C54.0921 38.2989 53.6837 38.1305 53.3809 37.8309V37.8329ZM-24.5631 35.6329C-24.8492 35.3051 -24.9936 34.8771 -24.9645 34.4429C-24.9355 34.0087 -24.7353 33.6037 -24.4081 33.3169V33.3249C-24.2464 33.1833 -24.0583 33.0749 -23.8546 33.006C-23.6509 32.9372 -23.4357 32.9092 -23.2212 32.9237C-23.0067 32.9382 -22.7972 32.9949 -22.6046 33.0905C-22.412 33.1861 -22.2403 33.3188 -22.0991 33.4809C-21.9577 33.6427 -21.8495 33.8307 -21.7809 34.0342C-21.7122 34.2378 -21.6843 34.4529 -21.6988 34.6672C-21.7133 34.8816 -21.7698 35.091 -21.8653 35.2834C-21.9607 35.4759 -22.0932 35.6477 -22.2551 35.7889C-22.5526 36.047 -22.9332 36.1891 -23.3271 36.1889C-23.5613 36.1898 -23.793 36.1401 -24.0063 36.0433C-24.2196 35.9465 -24.4095 35.8048 -24.5631 35.6279V35.6329ZM48.5429 33.6609C48.3726 33.5301 48.2298 33.367 48.1228 33.1808C48.0157 32.9947 47.9465 32.7892 47.9191 32.5762C47.8917 32.3632 47.9066 32.1469 47.963 31.9398C48.0195 31.7326 48.1163 31.5386 48.2479 31.3689C48.3784 31.1983 48.5414 31.0552 48.7273 30.9478C48.9133 30.8403 49.1187 30.7707 49.3316 30.7428C49.5446 30.7149 49.7609 30.7294 49.9683 30.7853C50.1757 30.8413 50.3699 30.9377 50.5399 31.0689C50.7103 31.1996 50.8532 31.3626 50.9605 31.5485C51.0678 31.7345 51.1374 31.9398 51.1652 32.1527C51.1931 32.3656 51.1787 32.5819 51.1229 32.7892C51.0671 32.9965 50.9709 33.1908 50.8399 33.3609C50.6873 33.5605 50.4904 33.7219 50.2649 33.8326C50.0393 33.9433 49.7912 34.0002 49.5399 33.9989C49.179 33.9969 48.8287 33.8764 48.5429 33.6559V33.6609ZM-19.4801 31.4609C-19.6026 31.2842 -19.689 31.085 -19.7344 30.8748C-19.7797 30.6646 -19.783 30.4475 -19.7442 30.236C-19.7054 30.0245 -19.6251 29.8228 -19.508 29.6424C-19.391 29.462 -19.2394 29.3065 -19.0621 29.1849C-18.8847 29.0624 -18.685 28.9761 -18.4743 28.9308C-18.2636 28.8855 -18.046 28.8822 -17.834 28.921C-17.622 28.9598 -17.4197 29.04 -17.2387 29.157C-17.0577 29.274 -16.9015 29.4256 -16.7791 29.6029C-16.5349 29.9613 -16.4426 30.4018 -16.5222 30.8281C-16.6019 31.2544 -16.847 31.6318 -17.2041 31.8779C-17.4755 32.0682 -17.7986 32.1711 -18.1301 32.1729C-18.3965 32.1713 -18.6585 32.105 -18.8937 31.9797C-19.1288 31.8545 -19.33 31.6741 -19.4801 31.4539V31.4609ZM43.2709 30.0609H43.2629C42.8917 29.8353 42.6247 29.472 42.5204 29.0502C42.416 28.6285 42.4827 28.1826 42.7059 27.8099C42.9315 27.4386 43.2949 27.1717 43.7167 27.0675C44.1385 26.9633 44.5844 27.0303 44.9569 27.2539C45.3284 27.4793 45.5955 27.8427 45.6999 28.2645C45.8043 28.6863 45.7374 29.1323 45.5139 29.5049C45.3674 29.7473 45.1609 29.9477 44.9142 30.0868C44.6675 30.2259 44.3891 30.299 44.1059 30.2989C43.8106 30.2943 43.522 30.2096 43.2709 30.0539V30.0609ZM-13.9551 27.8919C-14.0569 27.7024 -14.1201 27.4946 -14.141 27.2806C-14.1618 27.0665 -14.14 26.8504 -14.0768 26.6448C-14.0135 26.4393 -13.9101 26.2483 -13.7725 26.083C-13.6348 25.9177 -13.4658 25.7814 -13.2751 25.6819C-12.893 25.4781 -12.4456 25.4342 -12.0312 25.56C-11.6168 25.6859 -11.2693 25.971 -11.0651 26.3529C-10.9636 26.5431 -10.9007 26.7515 -10.88 26.966C-10.8593 27.1806 -10.8812 27.3971 -10.9443 27.6032C-11.0075 27.8092 -11.1108 28.0008 -11.2482 28.1669C-11.3856 28.333 -11.5545 28.4703 -11.7451 28.5709C-11.9793 28.6957 -12.2407 28.7606 -12.5061 28.7599C-12.8046 28.7607 -13.0975 28.6795 -13.3531 28.5253C-13.6086 28.371 -13.8168 28.1495 -13.9551 27.8849V27.8919ZM37.6149 27.0819C37.4187 26.9932 37.2421 26.8666 37.095 26.7093C36.948 26.552 36.8335 26.3672 36.7582 26.1655C36.6829 25.9638 36.6483 25.7492 36.6563 25.5341C36.6643 25.3189 36.7148 25.1075 36.8049 24.9119C36.8936 24.7169 37.0197 24.5412 37.1762 24.395C37.3328 24.2487 37.5166 24.1347 37.7171 24.0595C37.9177 23.9843 38.1312 23.9493 38.3453 23.9566C38.5594 23.9639 38.7699 24.0132 38.9649 24.1019H38.9739C39.3685 24.2827 39.6752 24.6125 39.8271 25.0191C39.9789 25.4256 39.9634 25.8758 39.7839 26.2709C39.6532 26.5563 39.4433 26.7983 39.1792 26.9681C38.9151 27.1379 38.6079 27.2284 38.2939 27.2289C38.0593 27.2254 37.8281 27.173 37.6149 27.0749V27.0819ZM-8.06107 24.9819C-8.21843 24.5771 -8.20853 24.1263 -8.03357 23.7287C-7.8586 23.3311 -7.53289 23.0194 -7.12807 22.8619C-6.72418 22.7047 -6.27448 22.7137 -5.87723 22.887C-5.47998 23.0603 -5.1675 23.3839 -5.00807 23.7869C-4.85071 24.1918 -4.86061 24.6425 -5.03557 25.0401C-5.21054 25.4377 -5.53624 25.7495 -5.94107 25.9069C-6.13142 25.9847 -6.33545 26.0235 -6.54107 26.0209C-6.87085 26.02 -7.1926 25.9191 -7.46394 25.7317C-7.73528 25.5443 -7.94347 25.279 -8.06107 24.9709V24.9819ZM31.6559 24.7769C31.2425 24.6431 30.8991 24.3507 30.7011 23.9639C30.5031 23.5771 30.4667 23.1275 30.5999 22.7139C30.734 22.3007 31.0264 21.9574 31.4131 21.7595C31.7999 21.5615 32.2493 21.525 32.6629 21.6579C33.076 21.7922 33.4191 22.0847 33.617 22.4713C33.8149 22.858 33.8516 23.3073 33.7189 23.7209C33.6116 24.0513 33.4025 24.3393 33.1216 24.5437C32.8407 24.7481 32.5023 24.8584 32.1549 24.8589C31.9845 24.8565 31.8158 24.825 31.6559 24.7659V24.7769ZM-1.86507 22.7639C-1.9207 22.5562 -1.93472 22.3396 -1.90632 22.1264C-1.87791 21.9133 -1.80764 21.7079 -1.69956 21.522C-1.59147 21.3361 -1.4477 21.1735 -1.27651 21.0434C-1.10532 20.9133 -0.910099 20.8183 -0.702068 20.7639C-0.283714 20.652 0.161953 20.7105 0.537235 20.9266C0.912518 21.1428 1.18679 21.4989 1.29993 21.9169C1.35476 22.1251 1.36798 22.342 1.33882 22.5553C1.30967 22.7685 1.2387 22.9739 1.13002 23.1597C1.02133 23.3455 0.877041 23.5081 0.705425 23.638C0.53381 23.7679 0.338245 23.8627 0.129932 23.9169C-0.00589752 23.9562 -0.146671 23.9757 -0.288067 23.9749C-0.648891 23.9736 -0.999176 23.8531 -1.28439 23.6321C-1.56961 23.4111 -1.77376 23.102 -1.86507 22.7529V22.7639ZM25.4669 23.1639V23.1719C25.0418 23.0834 24.6686 22.831 24.4282 22.4695C24.1877 22.1079 24.0992 21.6662 24.1819 21.2399C24.268 20.8135 24.5199 20.4386 24.8821 20.1977C25.2443 19.9568 25.6874 19.8695 26.1139 19.9549C26.5386 20.0413 26.9118 20.292 27.1525 20.6524C27.3932 21.0127 27.4818 21.4536 27.3989 21.8789C27.3243 22.249 27.1244 22.5821 26.833 22.8221C26.5416 23.0621 26.1765 23.1945 25.7989 23.1969C25.6871 23.1944 25.5758 23.18 25.4669 23.1539V23.1639ZM4.53593 21.2629C4.47506 20.8321 4.58736 20.3947 4.84824 20.0465C5.10913 19.6982 5.49735 19.4675 5.92793 19.4049C6.14093 19.3739 6.35798 19.3853 6.56652 19.4386C6.77507 19.4919 6.971 19.586 7.14301 19.7154C7.31501 19.8448 7.45967 20.007 7.56865 20.1926C7.67762 20.3783 7.74875 20.5837 7.77793 20.7969C7.83965 21.2255 7.72863 21.661 7.46928 22.0078C7.20993 22.3545 6.82349 22.584 6.39493 22.6459C6.31591 22.6552 6.23648 22.6606 6.15693 22.6619C5.76417 22.6608 5.38478 22.5191 5.08744 22.2625C4.7901 22.0059 4.59446 21.6513 4.53593 21.2629ZM19.1479 22.2699C18.7152 22.2327 18.3148 22.026 18.0338 21.6948C17.7528 21.3637 17.6141 20.9349 17.6479 20.5019C17.665 20.2871 17.7243 20.0778 17.8224 19.886C17.9206 19.6942 18.0558 19.5237 18.2201 19.3843C18.3844 19.2449 18.5746 19.1394 18.7798 19.0738C18.9851 19.0081 19.2012 18.9837 19.4159 19.0019C19.6305 19.0194 19.8396 19.0791 20.0311 19.1774C20.2227 19.2758 20.393 19.4109 20.5322 19.5751C20.6715 19.7393 20.7771 19.9293 20.843 20.1343C20.9088 20.3393 20.9336 20.5553 20.9159 20.7699C20.8797 21.1792 20.6916 21.5602 20.3887 21.8378C20.0857 22.1154 19.6898 22.2695 19.2789 22.2699H19.1479ZM11.0679 20.5099C11.0615 20.2949 11.0976 20.0807 11.174 19.8795C11.2504 19.6784 11.3656 19.4943 11.5132 19.3378C11.6607 19.1812 11.8377 19.0552 12.0339 18.9671C12.2302 18.8789 12.4419 18.8303 12.6569 18.8239C12.872 18.8167 13.0864 18.8521 13.2877 18.9281C13.4891 19.0041 13.6734 19.1191 13.8301 19.2666C13.9868 19.4141 14.1128 19.5912 14.2008 19.7875C14.2888 19.9839 14.3371 20.1958 14.3429 20.4109C14.3496 20.626 14.3138 20.8403 14.2376 21.0415C14.1613 21.2427 14.0462 21.427 13.8987 21.5836C13.7512 21.7403 13.5743 21.8664 13.378 21.9546C13.1818 22.0429 12.97 22.0916 12.7549 22.0979H12.7059C12.2805 22.0966 11.8721 21.9304 11.5667 21.6343C11.2612 21.3381 11.0824 20.9351 11.0679 20.5099Z" fill="white"/>
</svg>
