<svg width="94" height="261" viewBox="0 0 94 261" fill="none" xmlns="http://www.w3.org/2000/svg">
<path opacity="0.25" d="M104.673 59.888C98.7764 59.888 93.0123 58.1395 88.1096 54.8636C83.2069 51.5877 79.3857 46.9315 77.1293 41.4839C74.8728 36.0363 74.2824 30.0419 75.4327 24.2587C76.5831 18.4756 79.4225 13.1634 83.5919 8.994C87.7613 4.82458 93.0735 1.98517 98.8567 0.834824C104.64 -0.315517 110.634 0.274882 116.082 2.53136C121.529 4.78783 126.186 8.60904 129.461 13.5118C132.737 18.4145 134.486 24.1785 134.486 30.075C134.477 37.9791 131.333 45.5569 125.744 51.146C120.155 56.7351 112.577 59.879 104.673 59.888Z" fill="white"/>
<path opacity="0.25" d="M104.594 232.737C104.229 232.729 103.87 232.649 103.537 232.501C103.203 232.353 102.903 232.141 102.652 231.876C102.402 231.611 102.206 231.299 102.076 230.958C101.947 230.618 101.887 230.254 101.899 229.89C101.908 229.525 101.989 229.165 102.137 228.832C102.285 228.498 102.497 228.197 102.761 227.945C103.026 227.694 103.337 227.497 103.678 227.366C104.019 227.234 104.382 227.172 104.747 227.181C105.112 227.191 105.472 227.273 105.805 227.423C106.139 227.572 106.439 227.786 106.69 228.052C106.941 228.317 107.137 228.63 107.267 228.971C107.397 229.313 107.458 229.677 107.447 230.042C107.426 230.765 107.125 231.452 106.606 231.956C106.087 232.46 105.392 232.742 104.669 232.742H104.599L104.594 232.737ZM113.054 229.876C112.993 229.143 113.225 228.416 113.698 227.854C114.172 227.292 114.849 226.94 115.582 226.876C116.317 226.812 117.047 227.042 117.612 227.516C118.177 227.99 118.531 228.668 118.596 229.403C118.655 230.139 118.421 230.869 117.945 231.433C117.469 231.998 116.789 232.351 116.054 232.417V232.404C115.976 232.415 115.897 232.42 115.818 232.417C115.123 232.416 114.453 232.155 113.942 231.684C113.43 231.214 113.113 230.569 113.054 229.876ZM93.1618 231.776C92.8003 231.726 92.4522 231.605 92.1377 231.42C91.8231 231.234 91.5482 230.989 91.3288 230.697C91.1094 230.406 90.9498 230.073 90.8592 229.72C90.7686 229.366 90.7488 228.998 90.8009 228.637C90.8514 228.276 90.9727 227.928 91.1579 227.613C91.3431 227.299 91.5886 227.024 91.8802 226.805C92.1718 226.585 92.5038 226.426 92.8573 226.335C93.2107 226.244 93.5785 226.223 93.9398 226.275C94.3011 226.326 94.6488 226.448 94.963 226.634C95.2772 226.819 95.5518 227.065 95.7711 227.356C95.9903 227.648 96.1499 227.98 96.2408 228.333C96.3317 228.687 96.3521 229.055 96.3009 229.416C96.2069 230.079 95.8771 230.685 95.3719 231.124C94.8667 231.563 94.2201 231.805 93.5509 231.805C93.4208 231.803 93.2909 231.794 93.1618 231.778V231.776ZM124.139 228.61C123.997 227.888 124.147 227.139 124.556 226.527C124.964 225.916 125.599 225.491 126.32 225.345C127.042 225.199 127.792 225.345 128.407 225.752C129.021 226.158 129.449 226.791 129.598 227.513C129.739 228.236 129.589 228.986 129.18 229.599C128.772 230.213 128.138 230.641 127.417 230.79C127.234 230.824 127.048 230.842 126.862 230.846C126.221 230.842 125.601 230.617 125.105 230.211C124.609 229.804 124.268 229.24 124.139 228.612V228.61ZM81.9099 229.51C81.5568 229.418 81.2253 229.258 80.9343 229.038C80.6433 228.818 80.3985 228.543 80.2141 228.228C80.0296 227.913 79.909 227.565 79.8592 227.204C79.8094 226.843 79.8313 226.475 79.9238 226.122C80.0155 225.769 80.176 225.437 80.3961 225.146C80.6161 224.855 80.8914 224.61 81.2061 224.425C81.5209 224.241 81.8689 224.12 82.2304 224.07C82.5919 224.02 82.9598 224.042 83.3128 224.134C83.666 224.226 83.9976 224.387 84.2887 224.607C84.5797 224.827 84.8245 225.102 85.009 225.417C85.1935 225.732 85.3142 226.08 85.3641 226.442C85.414 226.803 85.3922 227.171 85.2999 227.524C85.143 228.117 84.7957 228.642 84.3114 229.019C83.827 229.395 83.2323 229.602 82.6189 229.608C82.3797 229.604 82.1418 229.573 81.9099 229.514V229.51ZM135.01 226.079C134.785 225.379 134.845 224.618 135.178 223.963C135.512 223.307 136.09 222.81 136.789 222.579H136.803C137.505 222.354 138.267 222.417 138.923 222.753C139.579 223.088 140.075 223.67 140.303 224.371C140.529 225.073 140.467 225.835 140.131 226.492C139.795 227.148 139.212 227.644 138.511 227.871C138.231 227.953 137.941 227.995 137.65 227.995C137.065 227.994 136.496 227.809 136.023 227.466C135.55 227.122 135.197 226.638 135.015 226.083L135.01 226.079ZM70.9729 225.968C70.2886 225.697 69.7388 225.167 69.4423 224.493C69.1459 223.819 69.1267 223.056 69.3889 222.368C69.6591 221.68 70.1909 221.127 70.8679 220.83C71.5449 220.534 72.3118 220.517 73.0008 220.785H72.9869C73.3275 220.917 73.6386 221.115 73.9025 221.368C74.1665 221.62 74.3781 221.922 74.5252 222.257C74.6723 222.591 74.7521 222.951 74.76 223.316C74.7678 223.681 74.7035 224.045 74.5709 224.385C74.3703 224.908 74.016 225.357 73.5546 225.675C73.0933 225.992 72.5468 226.162 71.9869 226.162C71.642 226.159 71.3003 226.095 70.9779 225.972L70.9729 225.968ZM145.526 222.329C145.373 221.997 145.288 221.639 145.275 221.274C145.261 220.909 145.32 220.545 145.448 220.203C145.576 219.861 145.77 219.547 146.019 219.28C146.269 219.014 146.568 218.799 146.901 218.648C147.57 218.342 148.333 218.313 149.023 218.568C149.713 218.823 150.274 219.341 150.583 220.009C150.889 220.682 150.916 221.449 150.658 222.143C150.4 222.836 149.878 223.399 149.207 223.709C148.845 223.873 148.452 223.958 148.055 223.959C147.523 223.956 147.003 223.801 146.556 223.513C146.109 223.225 145.754 222.816 145.531 222.333L145.526 222.329ZM60.5399 221.204C59.8891 220.86 59.4011 220.272 59.1826 219.569C58.9641 218.866 59.0328 218.105 59.3739 217.453C59.5427 217.129 59.7739 216.842 60.054 216.609C60.3342 216.375 60.6579 216.199 61.0064 216.09C61.3549 215.982 61.7214 215.943 62.0848 215.977C62.4482 216.011 62.8013 216.116 63.1239 216.287C63.7747 216.631 64.2629 217.218 64.4816 217.921C64.7004 218.624 64.6318 219.385 64.2909 220.037C64.054 220.484 63.7 220.859 63.2669 221.12C62.8338 221.382 62.3379 221.521 61.8319 221.523C61.3832 221.528 60.9404 221.42 60.5449 221.208L60.5399 221.204ZM155.528 217.398C155.149 216.765 155.036 216.009 155.213 215.293C155.39 214.577 155.843 213.96 156.473 213.577C157.103 213.196 157.859 213.08 158.575 213.255C159.29 213.429 159.908 213.88 160.293 214.508C160.672 215.14 160.785 215.897 160.608 216.613C160.431 217.328 159.978 217.945 159.348 218.328C158.918 218.593 158.422 218.732 157.917 218.728C157.439 218.729 156.969 218.608 156.552 218.376C156.134 218.144 155.783 217.809 155.533 217.402L155.528 217.398ZM50.7098 215.276C50.1035 214.859 49.6871 214.218 49.5518 213.495C49.4165 212.771 49.5733 212.023 49.9879 211.415C50.4053 210.808 51.0459 210.392 51.7696 210.256C52.4933 210.121 53.2413 210.277 53.8498 210.692C54.4564 211.109 54.873 211.75 55.0085 212.474C55.144 213.198 54.9873 213.945 54.5728 214.554C54.3165 214.925 53.9742 215.229 53.5752 215.44C53.1761 215.65 52.732 215.761 52.2808 215.763C51.7198 215.765 51.1715 215.595 50.7098 215.276ZM164.924 211.344C164.699 211.057 164.534 210.728 164.437 210.376C164.341 210.024 164.315 209.657 164.362 209.295C164.408 208.933 164.526 208.584 164.708 208.269C164.891 207.953 165.134 207.676 165.424 207.455C165.711 207.23 166.04 207.065 166.392 206.969C166.744 206.872 167.111 206.847 167.473 206.893C167.835 206.94 168.184 207.057 168.5 207.24C168.816 207.422 169.092 207.665 169.314 207.955C169.538 208.242 169.704 208.571 169.8 208.923C169.897 209.275 169.923 209.642 169.876 210.004C169.83 210.366 169.712 210.715 169.529 211.03C169.347 211.346 169.104 211.623 168.814 211.844C168.333 212.228 167.734 212.434 167.119 212.427C166.694 212.428 166.275 212.332 165.894 212.144C165.514 211.957 165.181 211.683 164.924 211.346V211.344ZM41.6239 208.275C41.3465 208.036 41.1191 207.744 40.9549 207.416C40.7907 207.089 40.6929 206.732 40.6671 206.367C40.6412 206.001 40.6879 205.634 40.8044 205.287C40.9209 204.94 41.1048 204.619 41.3458 204.343C41.8298 203.789 42.5135 203.449 43.2474 203.397C43.9813 203.345 44.7058 203.586 45.2628 204.067C45.8168 204.551 46.1571 205.234 46.2092 205.968C46.2613 206.701 46.021 207.426 45.5409 207.983C45.2809 208.285 44.9586 208.527 44.596 208.693C44.2335 208.858 43.8394 208.943 43.4409 208.942C42.7759 208.942 42.1324 208.706 41.6258 208.275H41.6239ZM173.548 204.275C173.035 203.746 172.753 203.035 172.763 202.298C172.773 201.561 173.075 200.858 173.603 200.344C174.132 199.831 174.843 199.549 175.58 199.559C176.317 199.57 177.02 199.872 177.535 200.399C178.048 200.928 178.33 201.64 178.319 202.377C178.309 203.114 178.007 203.816 177.479 204.331C176.964 204.837 176.27 205.122 175.548 205.123C175.175 205.12 174.807 205.043 174.464 204.897C174.121 204.752 173.811 204.54 173.55 204.274L173.548 204.275ZM33.3858 200.275C32.8878 199.731 32.6258 199.011 32.6571 198.275C32.6884 197.538 33.0105 196.843 33.5528 196.343C33.8217 196.097 34.1365 195.907 34.479 195.783C34.8215 195.659 35.1851 195.604 35.5489 195.621C35.9127 195.638 36.2697 195.726 36.5993 195.881C36.9289 196.036 37.2247 196.255 37.4698 196.524C37.7175 196.791 37.9101 197.104 38.0366 197.446C38.163 197.787 38.2207 198.15 38.2066 198.514C38.1925 198.878 38.1067 199.235 37.9542 199.566C37.8017 199.897 37.5855 200.194 37.3178 200.441C36.8011 200.913 36.1274 201.175 35.4278 201.178C35.0438 201.177 34.6642 201.096 34.3131 200.94C33.9619 200.784 33.6468 200.558 33.3878 200.274L33.3858 200.275ZM181.327 196.275C180.758 195.806 180.397 195.13 180.325 194.396C180.252 193.662 180.472 192.929 180.938 192.357C181.407 191.788 182.083 191.428 182.816 191.356C183.55 191.283 184.283 191.503 184.855 191.969C185.424 192.438 185.784 193.113 185.857 193.847C185.93 194.581 185.71 195.314 185.244 195.886C184.982 196.203 184.653 196.459 184.281 196.634C183.909 196.809 183.502 196.9 183.091 196.9C182.45 196.895 181.829 196.674 181.329 196.273L181.327 196.275ZM26.1208 191.4C25.6868 190.806 25.5062 190.065 25.6187 189.338C25.7312 188.611 26.1276 187.959 26.7208 187.524C27.016 187.308 27.351 187.152 27.7065 187.066C28.062 186.98 28.4312 186.965 28.7926 187.021C29.154 187.078 29.5005 187.205 29.8126 187.396C30.1246 187.587 30.3959 187.838 30.6108 188.134C31.0434 188.729 31.2221 189.472 31.1075 190.198C30.9929 190.925 30.5945 191.577 29.9998 192.01C29.5235 192.356 28.9494 192.541 28.3608 192.538C27.9241 192.539 27.4934 192.436 27.1042 192.238C26.7151 192.04 26.3788 191.752 26.1229 191.398L26.1208 191.4ZM188.147 187.426C187.84 187.229 187.576 186.973 187.369 186.673C187.162 186.374 187.016 186.036 186.94 185.68C186.864 185.324 186.859 184.956 186.925 184.598C186.992 184.24 187.129 183.898 187.328 183.593C187.524 183.286 187.779 183.02 188.078 182.812C188.378 182.603 188.715 182.456 189.071 182.378C189.428 182.301 189.796 182.294 190.154 182.36C190.513 182.425 190.856 182.56 191.162 182.758C191.469 182.955 191.734 183.21 191.942 183.51C192.15 183.809 192.296 184.147 192.374 184.503C192.451 184.86 192.458 185.228 192.393 185.586C192.327 185.945 192.192 186.288 191.995 186.594C191.743 186.988 191.396 187.312 190.985 187.535C190.575 187.758 190.114 187.874 189.647 187.871C189.115 187.871 188.594 187.716 188.149 187.424L188.147 187.426ZM19.8999 181.757C19.7187 181.441 19.6019 181.092 19.5562 180.731C19.5106 180.369 19.537 180.002 19.6339 179.651C19.7307 179.3 19.8962 178.971 20.1207 178.684C20.3452 178.397 20.6243 178.158 20.9419 177.979C21.2592 177.798 21.609 177.682 21.9714 177.636C22.3338 177.591 22.7016 177.617 23.0538 177.714C23.406 177.811 23.7356 177.976 24.0239 178.2C24.3122 178.424 24.5534 178.703 24.7338 179.021C25.093 179.661 25.1851 180.417 24.9902 181.124C24.7953 181.831 24.3291 182.433 23.6928 182.799C23.2742 183.041 22.8002 183.17 22.3169 183.174C21.8246 183.173 21.3413 183.041 20.9166 182.793C20.4919 182.544 20.141 182.186 19.8999 181.757ZM193.928 177.867C193.6 177.706 193.307 177.482 193.066 177.207C192.826 176.933 192.641 176.614 192.524 176.268C192.406 175.922 192.358 175.557 192.382 175.193C192.406 174.828 192.502 174.472 192.664 174.145C192.992 173.486 193.568 172.984 194.265 172.747C194.962 172.51 195.725 172.558 196.387 172.881C197.048 173.207 197.552 173.783 197.789 174.48C198.026 175.178 197.976 175.942 197.651 176.603C197.421 177.07 197.065 177.464 196.623 177.739C196.182 178.014 195.671 178.159 195.151 178.159C194.726 178.155 194.308 178.055 193.928 177.867ZM14.8159 171.478C14.5302 170.798 14.5245 170.032 14.8001 169.348C15.0758 168.663 15.6104 168.115 16.2878 167.823C16.9701 167.541 17.7358 167.54 18.4195 167.818C19.1032 168.096 19.65 168.632 19.9419 169.31C20.2266 169.99 20.23 170.755 19.9513 171.438C19.6725 172.12 19.1342 172.664 18.4548 172.95C18.113 173.098 17.7442 173.173 17.3718 173.172C16.8272 173.169 16.2954 173.007 15.8414 172.706C15.3874 172.405 15.031 171.978 14.8159 171.478ZM198.567 167.714C198.223 167.591 197.907 167.401 197.636 167.156C197.365 166.91 197.146 166.614 196.99 166.284C196.834 165.953 196.744 165.595 196.727 165.23C196.709 164.866 196.763 164.501 196.887 164.157C197.136 163.463 197.651 162.896 198.317 162.581C198.984 162.266 199.748 162.228 200.443 162.476C201.137 162.726 201.703 163.24 202.019 163.907C202.334 164.574 202.371 165.338 202.124 166.033C201.933 166.573 201.579 167.04 201.111 167.371C200.643 167.701 200.085 167.879 199.512 167.879C199.19 167.877 198.87 167.821 198.567 167.714ZM10.9538 160.67C10.8504 160.321 10.8169 159.954 10.8552 159.592C10.8935 159.23 11.0028 158.879 11.177 158.559C11.3511 158.239 11.5866 157.956 11.8701 157.727C12.1535 157.499 12.4793 157.328 12.8288 157.225C13.1791 157.121 13.5466 157.087 13.9101 157.124C14.2736 157.162 14.6261 157.271 14.9473 157.446C15.2686 157.62 15.5524 157.856 15.7824 158.14C16.0124 158.424 16.1841 158.751 16.2878 159.101C16.3901 159.451 16.4225 159.818 16.383 160.181C16.3435 160.543 16.2329 160.895 16.0576 161.215C15.8822 161.535 15.6456 161.817 15.3612 162.045C15.0767 162.274 14.7501 162.444 14.3999 162.546C14.1482 162.623 13.8861 162.66 13.6229 162.657C13.023 162.659 12.4387 162.466 11.9575 162.108C11.4763 161.75 11.1242 161.245 10.9538 160.67ZM202.013 157.086C201.296 156.918 200.676 156.473 200.288 155.847C199.9 155.222 199.775 154.469 199.943 153.752C200.111 153.036 200.556 152.415 201.181 152.027C201.807 151.639 202.56 151.515 203.277 151.683C203.632 151.765 203.967 151.917 204.264 152.129C204.56 152.341 204.812 152.61 205.004 152.919C205.197 153.229 205.326 153.574 205.385 153.934C205.443 154.293 205.431 154.661 205.347 155.016C205.206 155.626 204.862 156.17 204.372 156.559C203.881 156.948 203.273 157.158 202.647 157.156C202.433 157.159 202.22 157.136 202.013 157.086ZM8.35689 149.486C8.2943 149.127 8.30317 148.758 8.38314 148.402C8.46311 148.046 8.61252 147.71 8.82284 147.412C9.03315 147.114 9.30032 146.86 9.60885 146.665C9.91737 146.47 10.2612 146.339 10.6208 146.277C10.9806 146.215 11.3491 146.224 11.7053 146.304C12.0615 146.385 12.3984 146.534 12.6965 146.745C12.9946 146.956 13.2482 147.224 13.4427 147.533C13.6372 147.842 13.7687 148.186 13.8298 148.546C13.8922 148.905 13.8832 149.274 13.8032 149.629C13.7232 149.985 13.5738 150.322 13.3635 150.62C13.1532 150.918 12.8862 151.172 12.5777 151.367C12.2693 151.561 11.9254 151.693 11.5659 151.755C11.4096 151.782 11.2514 151.796 11.0929 151.797C10.4374 151.798 9.80276 151.566 9.30184 151.144C8.80092 150.721 8.46618 150.134 8.35689 149.488V149.486ZM204.222 146.138C203.859 146.099 203.507 145.988 203.187 145.813C202.867 145.637 202.585 145.399 202.358 145.114C202.13 144.828 201.962 144.5 201.862 144.149C201.762 143.798 201.733 143.43 201.776 143.068C201.816 142.706 201.928 142.355 202.104 142.036C202.28 141.717 202.518 141.435 202.803 141.208C203.088 140.981 203.416 140.813 203.766 140.712C204.117 140.612 204.484 140.582 204.846 140.624C205.208 140.664 205.56 140.775 205.879 140.951C206.199 141.127 206.48 141.365 206.707 141.65C206.935 141.935 207.103 142.263 207.203 142.614C207.304 142.964 207.333 143.332 207.291 143.694C207.216 144.372 206.894 144.998 206.387 145.454C205.88 145.91 205.223 146.163 204.541 146.165C204.434 146.164 204.328 146.155 204.222 146.14V146.138ZM7.03682 138.082V138.095C6.99557 137.357 7.24876 136.632 7.7408 136.08C8.23285 135.528 8.92362 135.194 9.66182 135.15C10.3981 135.112 11.1197 135.366 11.6689 135.858C12.2181 136.35 12.5503 137.039 12.5929 137.775C12.6323 138.509 12.38 139.229 11.891 139.778C11.4019 140.328 10.7158 140.661 9.98189 140.707H9.81478C9.10565 140.703 8.42451 140.43 7.90889 139.943C7.39328 139.456 7.08164 138.792 7.03682 138.084V138.082ZM202.388 132.247V132.136V132.036C202.386 131.672 202.457 131.311 202.595 130.974C202.733 130.637 202.936 130.331 203.193 130.073C203.45 129.815 203.755 129.61 204.091 129.47C204.427 129.33 204.788 129.258 205.152 129.258C205.89 129.257 206.598 129.55 207.122 130.07C207.645 130.591 207.941 131.298 207.944 132.036V132.136V132.247C207.942 132.983 207.648 133.689 207.128 134.209C206.607 134.73 205.902 135.023 205.166 135.025C204.801 135.025 204.44 134.953 204.102 134.814C203.765 134.674 203.459 134.469 203.201 134.211C202.943 133.953 202.738 133.647 202.599 133.31C202.459 132.972 202.388 132.611 202.388 132.246V132.247ZM9.64779 129.547C8.91415 129.502 8.22824 129.168 7.73922 128.619C7.2502 128.071 6.99771 127.351 7.03682 126.617C7.05512 126.253 7.14519 125.896 7.30184 125.566C7.45849 125.237 7.67864 124.942 7.94967 124.698C8.22069 124.454 8.53725 124.265 8.88118 124.144C9.22512 124.022 9.58962 123.97 9.95382 123.99C10.3188 124.01 10.6762 124.102 11.0057 124.26C11.3352 124.418 11.6303 124.64 11.8741 124.912C12.118 125.184 12.3059 125.502 12.427 125.847C12.548 126.192 12.5999 126.557 12.5798 126.922C12.5387 127.631 12.2282 128.298 11.7116 128.786C11.195 129.274 10.5115 129.546 9.80086 129.547H9.64779ZM201.748 121.212C201.706 120.849 201.735 120.481 201.836 120.13C201.936 119.778 202.104 119.45 202.331 119.163C202.558 118.877 202.839 118.638 203.159 118.461C203.478 118.283 203.83 118.171 204.193 118.129C204.555 118.087 204.922 118.117 205.272 118.217C205.623 118.318 205.95 118.486 206.235 118.713C206.521 118.94 206.758 119.222 206.935 119.541C207.111 119.86 207.222 120.211 207.263 120.573C207.307 120.935 207.28 121.301 207.181 121.652C207.083 122.003 206.916 122.331 206.689 122.616C206.463 122.902 206.182 123.14 205.864 123.316C205.545 123.492 205.194 123.603 204.832 123.643C204.726 123.659 204.619 123.669 204.512 123.672C203.831 123.673 203.173 123.424 202.663 122.971C202.154 122.519 201.829 121.895 201.749 121.219L201.748 121.212ZM10.5919 118.42C9.86561 118.294 9.21845 117.886 8.79171 117.285C8.36496 116.684 8.19317 115.939 8.3138 115.212C8.43956 114.485 8.84753 113.838 9.44869 113.411C10.0498 112.984 10.7954 112.812 11.5228 112.933C11.8824 112.995 12.2265 113.127 12.535 113.322C12.8435 113.516 13.1106 113.77 13.3209 114.068C13.5312 114.366 13.6806 114.703 13.7606 115.059C13.8405 115.415 13.8494 115.784 13.7868 116.143C13.6796 116.791 13.3455 117.38 12.8442 117.805C12.3429 118.23 11.707 118.463 11.0499 118.462C10.8968 118.465 10.7438 118.453 10.5929 118.427L10.5919 118.42ZM199.886 110.531C199.72 109.812 199.847 109.058 200.238 108.432C200.628 107.807 201.251 107.362 201.97 107.196C202.686 107.031 203.439 107.155 204.064 107.543C204.688 107.931 205.134 108.55 205.304 109.266C205.471 109.982 205.347 110.736 204.959 111.361C204.571 111.986 203.95 112.431 203.234 112.599C203.025 112.654 202.81 112.682 202.595 112.683C201.969 112.68 201.361 112.467 200.871 112.078C200.38 111.689 200.033 111.147 199.887 110.538L199.886 110.531ZM12.7728 107.474C12.067 107.265 11.4726 106.785 11.1187 106.14C10.7649 105.495 10.6805 104.735 10.8839 104.028C11.0934 103.323 11.5728 102.729 12.218 102.375C12.8631 102.022 13.6217 101.937 14.3288 102.14C15.0366 102.346 15.634 102.824 15.9901 103.47C16.3462 104.115 16.432 104.875 16.2288 105.584C16.0567 106.161 15.7028 106.668 15.2198 107.028C14.7368 107.389 14.1504 107.584 13.5478 107.584C13.2865 107.582 13.0265 107.548 12.7739 107.481L12.7728 107.474ZM196.816 100.139C196.568 99.4446 196.606 98.6804 196.921 98.014C197.236 97.3475 197.803 96.8333 198.497 96.584C199.191 96.3375 199.955 96.3759 200.622 96.6909C201.288 97.0059 201.802 97.5718 202.053 98.265C202.175 98.6078 202.229 98.9715 202.211 99.3352C202.193 99.6989 202.104 100.055 201.948 100.384C201.792 100.714 201.572 101.009 201.302 101.253C201.032 101.497 200.716 101.685 200.373 101.807C200.07 101.917 199.75 101.973 199.428 101.973C198.858 101.971 198.303 101.795 197.836 101.469C197.369 101.142 197.014 100.681 196.817 100.146L196.816 100.139ZM16.2158 96.847C15.8789 96.7059 15.5733 96.4997 15.3162 96.2403C15.0592 95.9809 14.8557 95.6734 14.7176 95.3354C14.5795 94.9973 14.5094 94.6353 14.5113 94.2701C14.5132 93.9049 14.5872 93.5436 14.7288 93.207C15.0151 92.5278 15.5592 91.9899 16.2417 91.7115C16.9241 91.433 17.6892 91.4368 18.3689 91.722C19.0484 92.0079 19.5867 92.5518 19.8653 93.2343C20.144 93.9169 20.1402 94.6822 19.8548 95.362C19.6455 95.8675 19.2909 96.2995 18.8359 96.6034C18.3809 96.9072 17.8459 97.0693 17.2988 97.069C16.9278 97.0723 16.5602 96.9991 16.2188 96.854L16.2158 96.847ZM192.578 90.166C192.415 89.8396 192.318 89.4844 192.293 89.1205C192.268 88.7567 192.314 88.3914 192.431 88.0457C192.547 87.7 192.73 87.3805 192.97 87.1057C193.209 86.8308 193.501 86.606 193.828 86.444C194.154 86.2812 194.509 86.1844 194.873 86.1591C195.237 86.1337 195.602 86.1804 195.948 86.2964C196.294 86.4124 196.613 86.5955 196.888 86.8351C197.163 87.0748 197.388 87.3663 197.55 87.693V87.706C197.713 88.0313 197.809 88.3857 197.835 88.7486C197.86 89.1116 197.813 89.4759 197.697 89.8207C197.581 90.1654 197.397 90.4838 197.158 90.7574C196.918 91.031 196.626 91.2545 196.3 91.415C195.916 91.6057 195.493 91.7059 195.065 91.708C194.549 91.7068 194.044 91.5627 193.606 91.2917C193.167 91.0207 192.813 90.6335 192.581 90.173L192.578 90.166ZM20.8408 86.693C20.5233 86.5124 20.2445 86.271 20.0203 85.9826C19.7962 85.6942 19.6309 85.3645 19.5343 85.0122C19.4376 84.66 19.4113 84.2921 19.4569 83.9297C19.5024 83.5673 19.619 83.2174 19.7999 82.9C20.1616 82.2598 20.7624 81.7892 21.4707 81.5914C22.1789 81.3936 22.9367 81.4848 23.5778 81.845C24.2184 82.2064 24.6894 82.8072 24.8874 83.5155C25.0854 84.2239 24.9942 84.9818 24.6339 85.623V85.638C24.3886 86.0655 24.0344 86.4202 23.6074 86.6662C23.1803 86.9121 22.6956 87.0404 22.2028 87.038C21.7287 87.0405 21.2615 86.9243 20.8438 86.7L20.8408 86.693ZM187.216 80.734C187.018 80.4277 186.883 80.0854 186.818 79.7268C186.753 79.3682 186.76 79.0003 186.837 78.6442C186.914 78.288 187.061 77.9507 187.269 77.6514C187.477 77.3521 187.742 77.0967 188.049 76.9C188.666 76.5013 189.417 76.3637 190.135 76.5174C190.854 76.6711 191.483 77.1036 191.883 77.72C192.082 78.0264 192.218 78.369 192.285 78.7282C192.351 79.0874 192.346 79.4562 192.27 79.8134C192.194 80.1707 192.048 80.5095 191.841 80.8104C191.634 81.1113 191.369 81.3684 191.063 81.567C190.617 81.8585 190.096 82.0132 189.563 82.012C189.097 82.0138 188.639 81.8988 188.23 81.6777C187.82 81.4565 187.473 81.1362 187.219 80.746L187.216 80.734ZM26.6158 77.123C26.3193 76.9103 26.0677 76.6411 25.8757 76.3308C25.6836 76.0205 25.5549 75.6753 25.4968 75.315C25.4387 74.9548 25.4525 74.5866 25.5373 74.2317C25.6221 73.8767 25.7762 73.5421 25.9908 73.247C26.4248 72.6496 27.0778 72.2485 27.8068 72.1313C28.5359 72.0142 29.2816 72.1906 29.8808 72.622C30.4762 73.0577 30.8747 73.7115 30.9892 74.4403C31.1037 75.1692 30.9248 75.9137 30.4918 76.511C30.2343 76.866 29.8959 77.1545 29.5046 77.3526C29.1133 77.5507 28.6804 77.6526 28.2418 77.65C27.6603 77.655 27.0927 77.4727 26.6229 77.13L26.6158 77.123ZM180.822 71.983C180.59 71.7018 180.417 71.3776 180.311 71.0291C180.205 70.6805 180.169 70.3145 180.206 69.9521C180.242 69.5897 180.349 69.238 180.522 68.9172C180.694 68.5965 180.928 68.3129 181.211 68.083C181.778 67.6164 182.507 67.3939 183.238 67.4642C183.969 67.5345 184.643 67.8919 185.111 68.458C185.579 69.0279 185.802 69.7599 185.731 70.4939C185.661 71.2278 185.303 71.9042 184.736 72.375C184.235 72.776 183.613 72.9962 182.972 73C182.562 72.9989 182.158 72.9079 181.788 72.7334C181.418 72.5588 181.09 72.3051 180.829 71.99L180.822 71.983ZM33.4218 68.274C33.1533 68.0279 32.9358 67.7313 32.7821 67.4011C32.6283 67.0709 32.5412 66.7136 32.5257 66.3496C32.5102 65.9857 32.5666 65.6223 32.6917 65.2802C32.8169 64.9381 33.0082 64.624 33.2548 64.356C33.5 64.0865 33.7959 63.8681 34.1257 63.7131C34.4554 63.5582 34.8125 63.4699 35.1765 63.4532C35.5404 63.4364 35.9041 63.4917 36.2467 63.6157C36.5892 63.7397 36.9039 63.9301 37.1728 64.176C37.7169 64.674 38.0414 65.3675 38.0752 66.1043C38.1089 66.8412 37.8492 67.5613 37.3529 68.107C37.0908 68.3907 36.7727 68.6171 36.4189 68.772C36.0651 68.9269 35.6831 69.0069 35.2968 69.007C34.6048 69.0112 33.9373 68.7516 33.4299 68.281L33.4218 68.274ZM173.473 64.009C173.211 63.7557 173.003 63.4533 172.858 63.1191C172.714 62.7849 172.637 62.4256 172.632 62.0616C172.627 61.6977 172.693 61.3362 172.828 60.9981C172.963 60.6599 173.163 60.3517 173.417 60.091C173.668 59.8275 173.97 59.6165 174.304 59.4702C174.637 59.324 174.997 59.2453 175.361 59.2389C175.725 59.2325 176.087 59.2984 176.426 59.4328C176.765 59.5673 177.073 59.7675 177.334 60.022C177.598 60.275 177.809 60.5776 177.955 60.9124C178.101 61.2473 178.18 61.6078 178.186 61.9732C178.193 62.3385 178.127 62.7015 177.992 63.0413C177.858 63.3811 177.657 63.691 177.403 63.953C177.142 64.2201 176.831 64.4326 176.488 64.5782C176.145 64.7238 175.776 64.7995 175.403 64.801C174.684 64.8001 173.995 64.5184 173.481 64.016L173.473 64.009ZM41.2009 60.271C40.7154 59.7144 40.4705 58.9878 40.52 58.2509C40.5695 57.5139 40.9092 56.8267 41.4648 56.34V56.355C41.7391 56.1144 42.0581 55.9304 42.4036 55.8134C42.7492 55.6963 43.1145 55.6487 43.4785 55.6731C43.8425 55.6975 44.1981 55.7936 44.5249 55.9557C44.8517 56.1179 45.1433 56.3429 45.3829 56.618C45.6231 56.8925 45.8067 57.2117 45.9234 57.5573C46.0401 57.9028 46.0876 58.268 46.0629 58.632C46.0383 58.9959 45.9422 59.3514 45.78 59.6781C45.6178 60.0048 45.3929 60.2963 45.1179 60.536C44.6137 60.9752 43.9675 61.2171 43.2988 61.217C42.9036 61.2187 42.5127 61.1358 42.1522 60.9738C41.7917 60.8119 41.47 60.5746 41.2088 60.278L41.2009 60.271ZM165.263 56.925C164.974 56.7027 164.732 56.4257 164.55 56.1096C164.369 55.7936 164.251 55.4448 164.205 55.0833C164.158 54.7218 164.184 54.3547 164.28 54.003C164.375 53.6514 164.539 53.3221 164.763 53.034C164.984 52.7446 165.261 52.5017 165.576 52.3192C165.891 52.1367 166.24 52.0181 166.601 51.9704C166.962 51.9226 167.329 51.9466 167.681 52.0409C168.033 52.1352 168.363 52.298 168.652 52.52C168.941 52.7415 169.185 53.0179 169.367 53.3334C169.55 53.649 169.668 53.9974 169.716 54.3589C169.764 54.7203 169.74 55.0876 169.645 55.4397C169.551 55.7919 169.388 56.1219 169.166 56.411C168.906 56.7497 168.572 57.0237 168.188 57.2115C167.805 57.3992 167.384 57.4956 166.957 57.493C166.349 57.494 165.757 57.2971 165.271 56.932L165.263 56.925ZM49.8269 53.188C49.6188 52.8881 49.4721 52.5501 49.3951 52.1933C49.3181 51.8365 49.3125 51.4681 49.3784 51.1091C49.4443 50.7501 49.5804 50.4077 49.779 50.1015C49.9777 49.7954 50.2349 49.5315 50.5358 49.325C51.1442 48.9058 51.894 48.7452 52.6207 48.8783C53.3474 49.0114 53.9915 49.4274 54.4118 50.035C54.8261 50.6434 54.9827 51.391 54.8474 52.1144C54.7121 52.8379 54.2959 53.4784 53.6898 53.896C53.2289 54.218 52.6811 54.3924 52.1189 54.396C51.6697 54.3937 51.2278 54.2833 50.8303 54.0743C50.4328 53.8653 50.0913 53.5637 49.8348 53.195L49.8269 53.188ZM156.317 50.812H156.303C155.673 50.4292 155.22 49.8125 155.043 49.0967C154.866 48.381 154.979 47.6243 155.359 46.992C155.742 46.362 156.358 45.9091 157.074 45.7323C157.79 45.5554 158.546 45.6689 159.179 46.048C159.809 46.4312 160.261 47.0478 160.438 47.7634C160.615 48.4791 160.502 49.2356 160.123 49.868C159.875 50.2795 159.524 50.6198 159.106 50.8558C158.687 51.0918 158.214 51.2156 157.734 51.215C157.237 51.212 156.75 51.0752 156.325 50.819L156.317 50.812ZM59.2038 47.131C59.0314 46.8095 58.9244 46.457 58.8891 46.0938C58.8538 45.7307 58.8908 45.3642 58.998 45.0155C59.1052 44.6668 59.2805 44.3427 59.5138 44.0622C59.747 43.7816 60.0336 43.5501 60.3569 43.381C61.0053 43.0351 61.7645 42.9607 62.4677 43.174C63.171 43.3874 63.7609 43.8711 64.1079 44.519C64.2799 44.8418 64.3867 45.1954 64.4218 45.5595C64.457 45.9236 64.4199 46.291 64.3128 46.6408C64.2057 46.9906 64.0306 47.3158 63.7976 47.5977C63.5645 47.8797 63.2781 48.1129 62.9548 48.284C62.557 48.4952 62.1132 48.6051 61.6628 48.604C61.1595 48.6059 60.6653 48.4703 60.2334 48.212C59.8014 47.9536 59.4483 47.5823 59.2119 47.138L59.2038 47.131ZM146.718 45.756C146.385 45.6055 146.085 45.3907 145.836 45.1239C145.587 44.8571 145.392 44.5436 145.265 44.2015C145.137 43.8594 145.078 43.4954 145.091 43.1304C145.105 42.7655 145.19 42.4068 145.343 42.075C145.647 41.4063 146.204 40.8858 146.891 40.6277C147.579 40.3697 148.341 40.3953 149.01 40.699H149.024C149.694 41.0055 150.215 41.5653 150.473 42.2556C150.731 42.9459 150.704 43.7103 150.399 44.381C150.177 44.8652 149.821 45.2756 149.373 45.5636C148.925 45.8516 148.403 46.0051 147.871 46.006C147.476 46.0054 147.086 45.9226 146.726 45.763L146.718 45.756ZM69.2059 42.186C69.0732 41.8457 69.0088 41.4826 69.0166 41.1174C69.0243 40.7522 69.104 40.3922 69.2511 40.0578C69.3981 39.7235 69.6096 39.4214 69.8735 39.1689C70.1374 38.9163 70.4483 38.7182 70.7888 38.586C71.4745 38.3184 72.2383 38.3334 72.913 38.6276C73.5877 38.9219 74.1184 39.4714 74.3889 40.156C74.5215 40.4963 74.5858 40.8595 74.578 41.2247C74.5701 41.59 74.4903 41.95 74.3432 42.2844C74.1961 42.6188 73.9845 42.9208 73.7205 43.1733C73.4566 43.4259 73.1455 43.6238 72.8049 43.756C72.4834 43.8884 72.1385 43.9544 71.7909 43.95C71.2346 43.9498 70.6912 43.782 70.2315 43.4687C69.7719 43.1553 69.4173 42.7108 69.2138 42.193L69.2059 42.186ZM136.606 41.839C135.905 41.6117 135.322 41.1156 134.986 40.4594C134.65 39.8033 134.588 39.0408 134.814 38.339C135.041 37.6378 135.537 37.0554 136.193 36.7195C136.849 36.3835 137.612 36.3215 138.314 36.547C139.015 36.775 139.597 37.2712 139.932 37.9271C140.268 38.583 140.33 39.3452 140.106 40.047C139.924 40.6075 139.569 41.0961 139.093 41.4428C138.616 41.7894 138.042 41.9764 137.453 41.977C137.168 41.98 136.884 41.9357 136.614 41.846L136.606 41.839ZM79.7208 38.421C79.6269 38.0689 79.6035 37.7017 79.6519 37.3406C79.7004 36.9794 79.8197 36.6314 80.003 36.3164C80.1864 36.0015 80.4301 35.7259 80.7203 35.5055C81.0105 35.2851 81.3413 35.1241 81.6938 35.032C82.0465 34.9378 82.4144 34.9141 82.7763 34.9622C83.1382 35.0104 83.4871 35.1295 83.8029 35.3127C84.1188 35.4958 84.3954 35.7395 84.6169 36.0297C84.8384 36.32 85.0005 36.651 85.0938 37.004C85.1864 37.3571 85.2084 37.7249 85.1587 38.0865C85.1089 38.4481 84.9883 38.7963 84.8037 39.1112C84.6191 39.4261 84.3743 39.7016 84.0831 39.9217C83.7919 40.1418 83.4602 40.3023 83.1069 40.394C82.8769 40.4611 82.6385 40.4948 82.3989 40.494C81.7886 40.4912 81.1963 40.2872 80.7136 39.9137C80.2309 39.5402 79.8848 39.018 79.7288 38.428L79.7208 38.421ZM126.104 39.102V39.116C125.382 38.9669 124.747 38.5389 124.339 37.925C123.93 37.3111 123.78 36.5607 123.922 35.837C124.068 35.1133 124.495 34.4772 125.11 34.0685C125.725 33.6597 126.477 33.5117 127.201 33.657C127.921 33.8036 128.555 34.2288 128.963 34.8401C129.372 35.4514 129.522 36.1993 129.382 36.921C129.255 37.5503 128.914 38.1165 128.418 38.5241C127.922 38.9316 127.301 39.1555 126.659 39.158C126.475 39.1607 126.292 39.1443 126.112 39.109L126.104 39.102ZM90.5838 35.893C90.4795 35.1619 90.6696 34.4193 91.1123 33.8282C91.5549 33.2371 92.2139 32.8457 92.9448 32.74C93.3063 32.6872 93.6747 32.7066 94.0286 32.797C94.3826 32.8873 94.7152 33.0469 95.0072 33.2665C95.2991 33.4862 95.5446 33.7614 95.7296 34.0765C95.9146 34.3915 96.0353 34.74 96.0848 35.102C96.1897 35.8296 96.0012 36.5691 95.5609 37.1578C95.1205 37.7464 94.4645 38.1361 93.7369 38.241C93.6041 38.2569 93.4706 38.2659 93.3369 38.268C92.6723 38.2649 92.0305 38.0247 91.5273 37.5906C91.0241 37.1565 90.6924 36.557 90.5919 35.9L90.5838 35.893ZM115.384 37.602C114.65 37.538 113.971 37.187 113.495 36.6252C113.019 36.0634 112.784 35.3363 112.841 34.602C112.87 34.2378 112.971 33.8831 113.138 33.558C113.305 33.233 113.534 32.9441 113.813 32.708C114.092 32.4718 114.414 32.293 114.762 32.1818C115.11 32.0706 115.477 32.0292 115.841 32.06C116.575 32.1217 117.255 32.4721 117.732 33.0345C118.209 33.5969 118.443 34.3253 118.383 35.06C118.321 35.7539 118.001 36.3994 117.487 36.8698C116.973 37.3401 116.302 37.6013 115.605 37.602H115.383H115.384ZM101.673 34.615C101.662 34.2501 101.722 33.8866 101.852 33.5453C101.981 33.2039 102.177 32.8914 102.427 32.6257C102.677 32.36 102.978 32.1462 103.311 31.9966C103.644 31.847 104.003 31.7646 104.368 31.754C104.733 31.7417 105.097 31.8018 105.439 31.9308C105.78 32.0598 106.093 32.2551 106.359 32.5055C106.625 32.7559 106.839 33.0565 106.988 33.3898C107.137 33.7232 107.219 34.0829 107.229 34.448C107.24 34.8134 107.179 35.1774 107.05 35.5192C106.92 35.8609 106.724 36.1738 106.473 36.4397C106.222 36.7056 105.921 36.9193 105.588 37.0687C105.254 37.218 104.894 37.3 104.529 37.31H104.446C103.727 37.3056 103.037 37.0234 102.521 36.5225C102.005 36.0216 101.703 35.3407 101.677 34.622L101.673 34.615Z" fill="white"/>
<path opacity="0.25" d="M21.3609 219.146C17.2668 219.146 13.2647 220.36 9.86064 222.635C6.45654 224.909 3.80335 228.142 2.23661 231.924C0.66988 235.707 0.259921 239.869 1.05864 243.884C1.85735 247.9 3.82885 251.588 6.7238 254.483C9.61874 257.378 13.3071 259.35 17.3226 260.148C21.338 260.947 25.5001 260.537 29.2825 258.97C33.0649 257.404 36.2978 254.75 38.5723 251.346C40.8469 247.942 42.061 243.94 42.061 239.846C42.0554 234.358 39.8727 229.096 35.9919 225.215C32.1111 221.334 26.8492 219.152 21.3609 219.146ZM21.3609 257.116C17.9447 257.116 14.6052 256.104 11.7646 254.206C8.92394 252.308 6.70985 249.611 5.40226 246.455C4.09468 243.299 3.75228 239.826 4.4185 236.476C5.08472 233.125 6.72961 230.047 9.14506 227.632C11.5605 225.216 14.6381 223.571 17.9886 222.904C21.3391 222.237 24.812 222.579 27.9682 223.887C31.1243 225.194 33.8219 227.408 35.7199 230.248C37.6179 233.088 38.6309 236.428 38.6309 239.844C38.6264 244.423 36.8056 248.814 33.5679 252.052C30.3302 255.291 25.9402 257.112 21.3609 257.118V257.116Z" fill="white"/>
</svg>
