<svg xmlns="http://www.w3.org/2000/svg" width="61.274" height="61.274" viewBox="0 0 61.274 61.274">
    <g id="Group_209" data-name="Group 209" transform="translate(-942 -1265)">
        <circle id="Ellipse_36" data-name="Ellipse 36" cx="24" cy="24" r="24" transform="translate(949 1272)" fill="#81de76"/>
        <g id="Path_103" data-name="Path 103" transform="translate(942 1265)" fill="none">
            <path d="M30.637,0A30.637,30.637,0,1,1,0,30.637,30.637,30.637,0,0,1,30.637,0Z" stroke="none"/>
            <path d="M 30.63720512390137 1.999996185302734 C 26.77032470703125 1.999996185302734 23.02017593383789 2.756885528564453 19.49092483520508 4.249626159667969 C 16.0810661315918 5.691875457763672 13.01827621459961 7.757003784179688 10.38764572143555 10.38764572143555 C 7.757003784179688 13.01827621459961 5.691875457763672 16.0810661315918 4.249626159667969 19.49092483520508 C 2.756885528564453 23.02017593383789 1.999996185302734 26.77032470703125 1.999996185302734 30.63720512390137 C 1.999996185302734 34.50408554077148 2.756885528564453 38.25423431396484 4.249626159667969 41.78348541259766 C 5.691875457763672 45.19334411621094 7.757003784179688 48.25612640380859 10.38764572143555 50.88676452636719 C 13.01827621459961 53.51739501953125 16.0810661315918 55.58252716064453 19.49092483520508 57.02477645874023 C 23.02017593383789 58.51751708984375 26.77032470703125 59.27440643310547 30.63720512390137 59.27440643310547 C 34.50408554077148 59.27440643310547 38.25423431396484 58.51751708984375 41.78348541259766 57.02477645874023 C 45.19334411621094 55.58252716064453 48.25612640380859 53.51740646362305 50.88676452636719 50.88676452636719 C 53.51740646362305 48.25612640380859 55.58252716064453 45.19334411621094 57.02477645874023 41.78348541259766 C 58.51751708984375 38.25423431396484 59.27440643310547 34.50408554077148 59.27440643310547 30.63720512390137 C 59.27440643310547 26.77032470703125 58.51751708984375 23.02017593383789 57.02477645874023 19.49092483520508 C 55.58252716064453 16.0810661315918 53.51739501953125 13.01827621459961 50.88676452636719 10.38764572143555 C 48.25612640380859 7.757003784179688 45.19334411621094 5.691875457763672 41.78348541259766 4.249626159667969 C 38.25423431396484 2.756885528564453 34.50408554077148 1.999996185302734 30.63720512390137 1.999996185302734 M 30.63720512390137 -3.814697265625e-06 C 47.55766296386719 -3.814697265625e-06 61.27440643310547 13.71674346923828 61.27440643310547 30.63720512390137 C 61.27440643310547 47.55766296386719 47.55766296386719 61.27440643310547 30.63720512390137 61.27440643310547 C 13.71674346923828 61.27440643310547 -3.814697265625e-06 47.55766296386719 -3.814697265625e-06 30.63720512390137 C -3.814697265625e-06 13.71674346923828 13.71674346923828 -3.814697265625e-06 30.63720512390137 -3.814697265625e-06 Z" stroke="none" fill="#81de76"/>
        </g>
        <g id="Group_212" data-name="Group 212" transform="translate(-3496.863 962.707)">
            <g id="Group_212-2" data-name="Group 212">
                <path id="Path_106" data-name="Path 106" d="M4476.021,332.668a6.415,6.415,0,0,1-1.7,4.359,3.848,3.848,0,0,0-.594.569,3.913,3.913,0,0,0-.928,2.536v.442a.815.815,0,0,1-.816.815h-4.811a.815.815,0,0,1-.816-.815v-.442a3.91,3.91,0,0,0-.928-2.536,3.852,3.852,0,0,0-.594-.569,6.442,6.442,0,1,1,11.186-4.359Z" fill="none" stroke="#1c232e" stroke-linecap="round" stroke-linejoin="round" stroke-miterlimit="10" stroke-width="1.5"/>
                <path id="Path_107" data-name="Path 107" d="M4465.429,337.6a6.484,6.484,0,0,1-.594-.569A3.852,3.852,0,0,1,4465.429,337.6Z" fill="none" stroke="#1c232e" stroke-linecap="round" stroke-linejoin="round" stroke-miterlimit="10" stroke-width="1.5"/>
                <path id="Path_108" data-name="Path 108" d="M4474.322,337.027a6.478,6.478,0,0,1-.594.569A3.848,3.848,0,0,1,4474.322,337.027Z" fill="none" stroke="#1c232e" stroke-linecap="round" stroke-linejoin="round" stroke-miterlimit="10" stroke-width="1.5"/>
            </g>
            <path id="Path_109" data-name="Path 109" d="M4465.446,331.455a2.731,2.731,0,0,1-.031-.412,2.7,2.7,0,0,1,2.7-2.7,2.668,2.668,0,0,1,.447.037" transform="translate(0.942 1.213)" fill="none" stroke="#1c232e" stroke-linecap="round" stroke-linejoin="round" stroke-miterlimit="10" stroke-width="1.5"/>
            <rect id="Rectangle_79" data-name="Rectangle 79" width="6.442" height="2.986" rx="1.001" transform="translate(4466.357 344.432)" fill="none" stroke="#1c232e" stroke-linecap="round" stroke-linejoin="round" stroke-miterlimit="10" stroke-width="1.5"/>
            <line id="Line_65" data-name="Line 65" y1="2.751" x2="2.774" transform="translate(4476.311 323.162)" fill="none" stroke="#1c232e" stroke-linecap="round" stroke-miterlimit="10" stroke-width="1.5"/>
            <line id="Line_66" data-name="Line 66" y1="2.859" x2="2.883" transform="translate(4459.915 339.316)" fill="none" stroke="#1c232e" stroke-linecap="round" stroke-miterlimit="10" stroke-width="1.5"/>
            <line id="Line_67" data-name="Line 67" x2="2.823" y2="2.823" transform="translate(4476.223 339.391)" fill="none" stroke="#1c232e" stroke-linecap="round" stroke-miterlimit="10" stroke-width="1.5"/>
            <line id="Line_68" data-name="Line 68" x2="2.903" y2="2.903" transform="translate(4459.954 323.122)" fill="none" stroke="#1c232e" stroke-linecap="round" stroke-miterlimit="10" stroke-width="1.5"/>
            <line id="Line_69" data-name="Line 69" x2="4.011" transform="translate(4478.989 332.668)" fill="none" stroke="#1c232e" stroke-linecap="round" stroke-miterlimit="10" stroke-width="1.5"/>
            <line id="Line_70" data-name="Line 70" x2="4.106" transform="translate(4456 332.668)" fill="none" stroke="#1c232e" stroke-linecap="round" stroke-miterlimit="10" stroke-width="1.5"/>
            <line id="Line_71" data-name="Line 71" y1="4.021" transform="translate(4469.5 319.168)" fill="none" stroke="#1c232e" stroke-linecap="round" stroke-miterlimit="10" stroke-width="1.5"/>
        </g>
    </g>
</svg>
