<svg width="627" height="651" viewBox="0 0 627 651" fill="none" xmlns="http://www.w3.org/2000/svg">
<path d="M554.5 18C558.918 18 562.5 14.4183 562.5 10C562.5 5.58172 558.918 2 554.5 2C550.082 2 546.5 5.58172 546.5 10C546.5 14.4183 550.082 18 554.5 18Z" stroke="#805DA7" stroke-width="4" stroke-linecap="round" stroke-linejoin="round"/>

<path d="M10 387.536C14.4183 387.536 18 383.954 18 379.536C18 375.118 14.4183 371.536 10 371.536C5.58172 371.536 2 375.118 2 379.536C2 383.954 5.58172 387.536 10 387.536Z" stroke="#805DA7" stroke-width="4" stroke-linecap="round" stroke-linejoin="round"/>

<path d="M564.062 10C580.224 10 595.724 16.4202 607.152 27.8483C618.58 39.2764 625 54.7762 625 70.938V588.062C625 604.224 618.58 619.724 607.152 631.152C595.724 642.58 580.224 649 564.062 649H70.938C54.7762 649 39.2762 642.58 27.8481 631.152C16.4201 619.724 10 604.224 10 588.062V388.236" stroke="#805DA7" stroke-width="6" stroke-miterlimit="10" stroke-linecap="round" stroke-linejoin="round"/>
</svg>
