<svg width="284" height="1268" viewBox="0 0 284 1268" fill="none" xmlns="http://www.w3.org/2000/svg">
<path d="M70.939 114.239C37.283 114.239 10 143.489 10 179.569V1250.38" stroke="#805DA7" stroke-width="6" stroke-miterlimit="10" stroke-linecap="round" stroke-linejoin="round"/>
<path d="M273.909 17.939V53.062C273.909 86.718 252.128 114.001 225.259 114.001H69.5319" stroke="#805DA7" stroke-width="6" stroke-miterlimit="10" stroke-linecap="round" stroke-linejoin="round"/>
<path d="M10.5 1266C14.9183 1266 18.5 1262.42 18.5 1258C18.5 1253.58 14.9183 1250 10.5 1250C6.08172 1250 2.5 1253.58 2.5 1258C2.5 1262.42 6.08172 1266 10.5 1266Z" stroke="#805DA7" stroke-width="4" stroke-linecap="round" stroke-linejoin="round"/>
<path d="M273.5 18C277.918 18 281.5 14.4183 281.5 10C281.5 5.58172 277.918 2 273.5 2C269.082 2 265.5 5.58172 265.5 10C265.5 14.4183 269.082 18 273.5 18Z" stroke="#805DA7" stroke-width="4" stroke-linecap="round" stroke-linejoin="round"/>
</svg>
