<svg width="356" height="268" viewBox="0 0 356 268" fill="none" xmlns="http://www.w3.org/2000/svg">
<path opacity="0.25" d="M12.295 33.2209C9.88204 33.2209 7.5233 33.9365 5.51702 35.277C3.51074 36.6176 1.94703 38.523 1.02364 40.7522C0.100253 42.9815 -0.141342 45.4345 0.329397 47.8011C0.800137 50.1676 1.96207 52.3415 3.66827 54.0477C5.37447 55.7539 7.54831 56.9158 9.91488 57.3865C12.2814 57.8573 14.7345 57.6157 16.9637 56.6923C19.193 55.7689 21.0983 54.2052 22.4389 52.1989C23.7795 50.1926 24.495 47.8339 24.495 45.421C24.4921 42.1862 23.2058 39.0848 20.9185 36.7975C18.6311 34.5102 15.5297 33.2239 12.295 33.2209ZM12.295 55.5959C10.2822 55.5959 8.31462 54.9991 6.64104 53.8809C4.96747 52.7627 3.66305 51.1733 2.89275 49.3138C2.12245 47.4542 1.92085 45.408 2.31345 43.4339C2.70605 41.4598 3.67522 39.6464 5.09839 38.2231C6.52157 36.7998 8.33485 35.8304 10.3089 35.4376C12.283 35.0448 14.3292 35.2462 16.1888 36.0164C18.0485 36.7865 19.638 38.0907 20.7564 39.7642C21.8747 41.4377 22.4718 43.4052 22.472 45.418C22.4691 48.1163 21.3959 50.7032 19.488 52.6113C17.5801 54.5194 14.9933 55.5928 12.295 55.5959Z" fill="white"/>
<path d="M293.5 268C322.495 268 346 244.495 346 215.5C346 186.505 322.495 163 293.5 163C264.505 163 241 186.505 241 215.5C241 244.495 264.505 268 293.5 268Z" fill="white"/>
<path d="M163.5 179C212.929 179 253 138.929 253 89.5C253 40.0705 212.929 0 163.5 0C114.071 0 74 40.0705 74 89.5C74 138.929 114.071 179 163.5 179Z" fill="#81DE76"/>
<path d="M246.5 248C306.975 248 356 198.975 356 138.5C356 78.0248 306.975 29 246.5 29C186.025 29 137 78.0248 137 138.5C137 198.975 186.025 248 246.5 248Z" fill="#805DA7"/>
</svg>
