<svg xmlns="http://www.w3.org/2000/svg" width="61.274" height="61.274" viewBox="0 0 61.274 61.274">
    <g id="Group_211" data-name="Group 211" transform="translate(-792 -1070)">
        <g id="Group_210" data-name="Group 210" transform="translate(2)">
            <path id="Path_104" data-name="Path 104" d="M24,0A24,24,0,1,1,0,24,24,24,0,0,1,24,0Z" transform="translate(797 1077)" fill="#81de76"/>
            <g id="Group_206" data-name="Group 206" transform="translate(-3647.451 766.347)">
                <path id="Path_98" data-name="Path 98" d="M4465.349,344.213l-8.43-8.43a1.6,1.6,0,0,1,0-2.26l8.43-8.43" fill="none" stroke="#1c232e" stroke-linecap="round" stroke-linejoin="round" stroke-miterlimit="10" stroke-width="2"/>
                <path id="Path_99" data-name="Path 99" d="M4475.553,344.213l8.43-8.43a1.6,1.6,0,0,0,0-2.26l-8.43-8.43" transform="translate(-3)" fill="none" stroke="#1c232e" stroke-linecap="round" stroke-linejoin="round" stroke-miterlimit="10" stroke-width="2"/>
            </g>
        </g>
        <g id="Path_105" data-name="Path 105" transform="translate(792 1070)" fill="none">
            <path d="M30.637,0A30.637,30.637,0,1,1,0,30.637,30.637,30.637,0,0,1,30.637,0Z" stroke="none"/>
            <path d="M 30.63720512390137 1.999996185302734 C 26.77032470703125 1.999996185302734 23.02017593383789 2.756885528564453 19.49092483520508 4.249626159667969 C 16.0810661315918 5.691875457763672 13.01827621459961 7.757003784179688 10.38764572143555 10.38764572143555 C 7.757003784179688 13.01827621459961 5.691875457763672 16.0810661315918 4.249626159667969 19.49092483520508 C 2.756885528564453 23.02017593383789 1.999996185302734 26.77032470703125 1.999996185302734 30.63720512390137 C 1.999996185302734 34.50408554077148 2.756885528564453 38.25423431396484 4.249626159667969 41.78348541259766 C 5.691875457763672 45.19334411621094 7.757003784179688 48.25612640380859 10.38764572143555 50.88676452636719 C 13.01827621459961 53.51739501953125 16.0810661315918 55.58252716064453 19.49092483520508 57.02477645874023 C 23.02017593383789 58.51751708984375 26.77032470703125 59.27440643310547 30.63720512390137 59.27440643310547 C 34.50408554077148 59.27440643310547 38.25423431396484 58.51751708984375 41.78348541259766 57.02477645874023 C 45.19334411621094 55.58252716064453 48.25612640380859 53.51740646362305 50.88676452636719 50.88676452636719 C 53.51740646362305 48.25612640380859 55.58252716064453 45.19334411621094 57.02477645874023 41.78348541259766 C 58.51751708984375 38.25423431396484 59.27440643310547 34.50408554077148 59.27440643310547 30.63720512390137 C 59.27440643310547 26.77032470703125 58.51751708984375 23.02017593383789 57.02477645874023 19.49092483520508 C 55.58252716064453 16.0810661315918 53.51739501953125 13.01827621459961 50.88676452636719 10.38764572143555 C 48.25612640380859 7.757003784179688 45.19334411621094 5.691875457763672 41.78348541259766 4.249626159667969 C 38.25423431396484 2.756885528564453 34.50408554077148 1.999996185302734 30.63720512390137 1.999996185302734 M 30.63720512390137 -3.814697265625e-06 C 47.55766296386719 -3.814697265625e-06 61.27440643310547 13.71674346923828 61.27440643310547 30.63720512390137 C 61.27440643310547 47.55766296386719 47.55766296386719 61.27440643310547 30.63720512390137 61.27440643310547 C 13.71674346923828 61.27440643310547 -3.814697265625e-06 47.55766296386719 -3.814697265625e-06 30.63720512390137 C -3.814697265625e-06 13.71674346923828 13.71674346923828 -3.814697265625e-06 30.63720512390137 -3.814697265625e-06 Z" stroke="none" fill="#81de76"/>
        </g>
    </g>
</svg>
