<svg xmlns="http://www.w3.org/2000/svg" width="61.274" height="61.274" viewBox="0 0 61.274 61.274">
    <g id="Group_208" data-name="Group 208" transform="translate(-919.363 -826.363)">
        <path id="Path_100" data-name="Path 100" d="M24,0A24,24,0,1,1,0,24,24,24,0,0,1,24,0Z" transform="translate(926 833)" fill="#81de76"/>
        <g id="Group_207" data-name="Group 207" transform="translate(-3651.72 525.5)">
            <line id="Line_64" data-name="Line 64" x2="7.034" y2="0.006" transform="translate(4597.769 333.255)" fill="none" stroke="#1c232e" stroke-linecap="round" stroke-miterlimit="10" stroke-width="1.5"/>
            <path id="Rectangle_77" data-name="Rectangle 77" d="M0,0H5.986a0,0,0,0,1,0,0V2.993A2.993,2.993,0,0,1,2.993,5.986h0A2.993,2.993,0,0,1,0,2.993V0A0,0,0,0,1,0,0Z" transform="translate(4598.217 320.092)" fill="none" stroke="#1c232e" stroke-linecap="round" stroke-linejoin="round" stroke-miterlimit="10" stroke-width="1.5"/>
            <path id="Path_101" data-name="Path 101" d="M4604.2,325.881l8.345,15.864a4.1,4.1,0,0,1-1.2,4.789l-9.578-18.557h-.861l-9.578,18.557a4.1,4.1,0,0,1-1.2-4.789l8.68-15.864" transform="translate(0 -1.001)" fill="none" stroke="#1c232e" stroke-linecap="round" stroke-linejoin="round" stroke-miterlimit="10" stroke-width="1.5"/>
            <rect id="Rectangle_78" data-name="Rectangle 78" width="2.993" height="3.592" transform="translate(4599.714 316.085)" fill="none" stroke="#1c232e" stroke-linecap="round" stroke-linejoin="round" stroke-miterlimit="10" stroke-width="1.5"/>
            <circle id="Ellipse_47" data-name="Ellipse 47" cx="0.5" cy="0.5" r="0.5" transform="translate(4600.786 322.585)" fill="#1c232e"/>
        </g>
        <g id="Path_102" data-name="Path 102" transform="translate(919.363 826.363)" fill="none">
            <path d="M30.637,0A30.637,30.637,0,1,1,0,30.637,30.637,30.637,0,0,1,30.637,0Z" stroke="none"/>
            <path d="M 30.63720512390137 1.999996185302734 C 26.77032470703125 1.999996185302734 23.02017593383789 2.756885528564453 19.49092483520508 4.249626159667969 C 16.0810661315918 5.691875457763672 13.01827621459961 7.757003784179688 10.38764572143555 10.38764572143555 C 7.757003784179688 13.01827621459961 5.691875457763672 16.0810661315918 4.249626159667969 19.49092483520508 C 2.756885528564453 23.02017593383789 1.999996185302734 26.77032470703125 1.999996185302734 30.63720512390137 C 1.999996185302734 34.50408554077148 2.756885528564453 38.25423431396484 4.249626159667969 41.78348541259766 C 5.691875457763672 45.19334411621094 7.757003784179688 48.25612640380859 10.38764572143555 50.88676452636719 C 13.01827621459961 53.51739501953125 16.0810661315918 55.58252716064453 19.49092483520508 57.02477645874023 C 23.02017593383789 58.51751708984375 26.77032470703125 59.27440643310547 30.63720512390137 59.27440643310547 C 34.50408554077148 59.27440643310547 38.25423431396484 58.51751708984375 41.78348541259766 57.02477645874023 C 45.19334411621094 55.58252716064453 48.25612640380859 53.51740646362305 50.88676452636719 50.88676452636719 C 53.51740646362305 48.25612640380859 55.58252716064453 45.19334411621094 57.02477645874023 41.78348541259766 C 58.51751708984375 38.25423431396484 59.27440643310547 34.50408554077148 59.27440643310547 30.63720512390137 C 59.27440643310547 26.77032470703125 58.51751708984375 23.02017593383789 57.02477645874023 19.49092483520508 C 55.58252716064453 16.0810661315918 53.51739501953125 13.01827621459961 50.88676452636719 10.38764572143555 C 48.25612640380859 7.757003784179688 45.19334411621094 5.691875457763672 41.78348541259766 4.249626159667969 C 38.25423431396484 2.756885528564453 34.50408554077148 1.999996185302734 30.63720512390137 1.999996185302734 M 30.63720512390137 -3.814697265625e-06 C 47.55766296386719 -3.814697265625e-06 61.27440643310547 13.71674346923828 61.27440643310547 30.63720512390137 C 61.27440643310547 47.55766296386719 47.55766296386719 61.27440643310547 30.63720512390137 61.27440643310547 C 13.71674346923828 61.27440643310547 -3.814697265625e-06 47.55766296386719 -3.814697265625e-06 30.63720512390137 C -3.814697265625e-06 13.71674346923828 13.71674346923828 -3.814697265625e-06 30.63720512390137 -3.814697265625e-06 Z" stroke="none" fill="#81de76"/>
        </g>
    </g>
</svg>
