<svg id="Layer_1" data-name="Layer 1" xmlns="http://www.w3.org/2000/svg" viewBox="0 0 341.98 443.86"><defs><style>.cls-1{fill:#cfc3e0;opacity:0.61;}.cls-1,.cls-2{stroke:#351954;stroke-miterlimit:10;}.cls-2{fill:#805da7;}</style></defs><g id="Base_Logo" data-name="Base Logo"><path class="cls-1" d="M188.14,265.12l-13.33-30.91a124,124,0,0,0-45.12,174.27L157,387.82a91.13,91.13,0,0,1,31.15-122.7Z" transform="translate(-79.01 -28.07)"/><path class="cls-1" d="M214,254.16a91.25,91.25,0,0,1,67.5,9.29l22.2-24A124.15,124.15,0,0,0,200,223.65Z" transform="translate(-79.01 -28.07)"/><path class="cls-1" d="M302.48,280A91.2,91.2,0,0,1,173.24,408.63l-26.47,21.45A124.08,124.08,0,0,0,324.9,257.32Z" transform="translate(-79.01 -28.07)"/><path class="cls-2" d="M385.41,142.88A47,47,0,0,0,328,176.41c-.3,1.16-.55,2.33-.76,3.5l-33.79-2.86a25.56,25.56,0,1,0-.86,11.34l33.9,2a47.1,47.1,0,0,0,10.41,27.46l-26.05,26.7-22.6,23.16L269.9,286.55a65.33,65.33,0,0,0-53.54-8l-10.08-22.1-13.83-30.3L187.38,215a55.76,55.76,0,0,0,7.33-82.84l28.37-37.95A34.9,34.9,0,1,0,214.75,88l-27.63,37.44a55.78,55.78,0,1,0-16.85,98.26,54.67,54.67,0,0,0,7.74-3l4.34,9.65L196,260.75l9.81,21.83a65.33,65.33,0,0,0-24.31,97.31l-19.87,15.29-27,20.75-5.57,4.28a30.62,30.62,0,0,0-12.57-6.91,29.59,29.59,0,1,0,19,15.65l5.93-4.46L168.78,404l20.45-15.37a65.35,65.35,0,0,0,90.37-94.43l18.07-19,22.05-23.15,25.18-26.45a47,47,0,1,0,40.51-82.8Z" transform="translate(-79.01 -28.07)"/></g></svg>