<?xml version="1.0" encoding="utf-8"?>
<!-- Generator: Adobe Illustrator 25.2.3, SVG Export Plug-In . SVG Version: 6.00 Build 0)  -->
<svg version="1.1" xmlns="http://www.w3.org/2000/svg" xmlns:xlink="http://www.w3.org/1999/xlink" x="0px" y="0px"
	 viewBox="0 0 342 443.9" style="enable-background:new 0 0 342 443.9;" xml:space="preserve">
<style type="text/css">
	.st0{display:none;}
	.st1{display:inline;fill:#1C232E;stroke:#351954;stroke-miterlimit:10;}
	.st2{fill:#FFFFFF;stroke:#351954;stroke-miterlimit:10;enable-background:new    ;}
	.st3{fill:#FFFFFF;stroke:#351954;stroke-miterlimit:10;}
</style>
<g id="Dark_BG" class="st0">
	<rect x="0.3" y="0.5" class="st1" width="341.1" height="443.4"/>
</g>
<g id="All_White">
	<g id="Regular">
		<path class="st2" d="M109.1,237l-13.3-30.9c-59.9,33.1-81.6,108.6-48.5,168.5c1.1,1.9,2.2,3.9,3.4,5.7L78,359.8
			C53.6,317.1,67.4,262.9,109.1,237L109.1,237z"/>
		<path class="st2" d="M135,226.1c22.9-5.7,47-2.4,67.5,9.3l22.2-24c-30.5-20.3-68.5-26.1-103.7-15.8L135,226.1z"/>
		<path class="st2" d="M223.5,251.9c34.6,36.6,33,94.3-3.6,128.9c-35.3,33.4-90.6,33.3-125.7-0.3L67.8,402
			c48.2,48.7,126.8,49,175.5,0.8c47.9-47.5,49.1-124.6,2.7-173.6L223.5,251.9z"/>
		<path class="st3" d="M306.4,114.8c-25.1-6.6-50.8,8.4-57.4,33.5c0,0,0,0,0,0c-0.3,1.2-0.5,2.3-0.8,3.5l-33.8-2.9
			c-2.1-14-15.1-23.6-29.1-21.5c-14,2.1-23.6,15.1-21.5,29.1s15.1,23.6,29.1,21.5c9.7-1.5,17.7-8.3,20.6-17.7l33.9,2
			c0.5,10,4.1,19.6,10.4,27.5l-26,26.7l-22.6,23.2l-18.4,18.8c-15.9-10.3-35.4-13.2-53.5-8l-10.1-22.1l-13.8-30.3l-5.1-11.1
			c24.7-18.4,29.8-53.4,11.4-78c-1.3-1.7-2.6-3.3-4-4.8l28.4-37.9c17,9.1,38.1,2.7,47.2-14.3c9.1-17,2.7-38.1-14.3-47.2
			s-38.1-2.7-47.2,14.3c-7.2,13.5-4.8,30.1,6,41l-27.6,37.4c-24.8-18.3-59.7-13-78,11.8s-13,59.7,11.8,78
			c14.2,10.5,32.5,13.6,49.3,8.5c2.7-0.8,5.2-1.8,7.7-3l4.3,9.6l13.7,30.4l9.8,21.8c-32.5,15.7-46.1,54.8-30.3,87.3
			c1.7,3.5,3.7,6.9,6,10l-19.9,15.3l-27,20.8l-5.6,4.3c-3.6-3.3-7.9-5.6-12.6-6.9c-15.8-4.2-32,5.2-36.2,21
			c-4.2,15.8,5.2,32,21,36.2c15.8,4.2,32-5.2,36.2-21c1.8-6.9,1.1-14.2-2-20.6l5.9-4.5l27.4-20.5l20.4-15.4c26.1,25,67.4,24,92.4-2
			c25-26.1,24-67.4-2-92.4l18.1-19l22-23.1l25.2-26.4c20.6,15.8,50.1,11.8,65.9-8.8c15.8-20.6,11.8-50.1-8.8-65.9
			C318,119.1,312.4,116.3,306.4,114.8L306.4,114.8z"/>
	</g>
</g>
</svg>
