<svg xmlns="http://www.w3.org/2000/svg" width="118.848" height="111" viewBox="0 0 118.848 111">
    <g id="Group_123" data-name="Group 123" transform="translate(-343.5 79.5)">
        <rect id="Rectangle_26" data-name="Rectangle 26" width="24" height="88.533" transform="translate(360.942 -75.149)" fill="none" stroke="#dbd1ff" stroke-linecap="round" stroke-linejoin="round" stroke-miterlimit="10" stroke-width="4"/>
        <rect id="Rectangle_27" data-name="Rectangle 27" width="24" height="74.093" transform="translate(396.685 -61.709)" fill="none" stroke="#dbd1ff" stroke-linecap="round" stroke-linejoin="round" stroke-miterlimit="10" stroke-width="4"/>
        <rect id="Rectangle_28" data-name="Rectangle 28" width="24" height="42.279" transform="translate(433.929 -30.152)" fill="none" stroke="#dbd1ff" stroke-linecap="round" stroke-linejoin="round" stroke-miterlimit="10" stroke-width="4"/>
        <g id="Group_122" data-name="Group 122" transform="translate(438.102 -64.149)">
            <path id="Path_1782" data-name="Path 1782" d="M601.153-17.51a3.027,3.027,0,0,0-.644-2.049,6.024,6.024,0,0,0-2.263-1.4q-1.619-.661-2.99-1.338a10.39,10.39,0,0,1-2.362-1.57,6.159,6.159,0,0,1-1.52-2.065,6.881,6.881,0,0,1-.529-2.841,6.105,6.105,0,0,1,1.883-4.6,8.1,8.1,0,0,1,5.022-2.107v-3.486h2.627v3.552a7.379,7.379,0,0,1,4.75,2.486,7.742,7.742,0,0,1,1.726,5.179h-5.584a4.506,4.506,0,0,0-.661-2.643,2.176,2.176,0,0,0-1.883-.925,2.138,2.138,0,0,0-1.693.685,2.767,2.767,0,0,0-.6,1.892,2.677,2.677,0,0,0,.694,1.941,6.837,6.837,0,0,0,2.23,1.371q1.536.653,2.9,1.355a11.123,11.123,0,0,1,2.354,1.594,6.525,6.525,0,0,1,1.553,2.082,6.653,6.653,0,0,1,.562,2.858,6.223,6.223,0,0,1-1.792,4.609,7.717,7.717,0,0,1-4.882,2.081v3.321H597.42v-3.337a8.4,8.4,0,0,1-5.526-2.47,7.811,7.811,0,0,1-1.925-5.51h5.567a4.319,4.319,0,0,0,.834,2.866,2.937,2.937,0,0,0,2.371.983,2.338,2.338,0,0,0,1.768-.669A2.545,2.545,0,0,0,601.153-17.51Z" transform="translate(-589.969 27.971)" fill="#dbd1ff"/>
        </g>
        <path id="Path_1783" data-name="Path 1783" d="M440.883,29.5H345.5v-107" fill="none" stroke="#dbd1ff" stroke-linecap="round" stroke-linejoin="round" stroke-miterlimit="10" stroke-width="4"/>
        <line id="Line_58" data-name="Line 58" x1="11.512" transform="translate(448.836 29.5)" fill="none" stroke="#dbd1ff" stroke-linecap="round" stroke-miterlimit="10" stroke-width="4"/>
    </g>
</svg>
