<svg xmlns="http://www.w3.org/2000/svg" width="106.491" height="104" viewBox="0 0 106.491 104">
    <g id="Loading_Browser" data-name="Loading Browser" transform="translate(-132 -2354)">
        <g id="Group_127" data-name="Group 127" transform="translate(176.5 2491)">
            <rect id="Rectangle_29" data-name="Rectangle 29" width="102.491" height="100" rx="9.957" transform="translate(-42.5 -135)" fill="none" stroke="#dbd1ff" stroke-miterlimit="10" stroke-width="4"/>
            <line id="Line_59" data-name="Line 59" x2="102.491" transform="translate(-42 -114.914)" fill="none" stroke="#dbd1ff" stroke-miterlimit="10" stroke-width="4"/>
            <circle id="Ellipse_176" data-name="Ellipse 176" cx="3.5" cy="3.5" r="3.5" transform="translate(-33.5 -128)" fill="#dbd1ff"/>
            <circle id="Ellipse_177" data-name="Ellipse 177" cx="3.5" cy="3.5" r="3.5" transform="translate(-24.585 -128)" fill="#dbd1ff"/>
            <circle id="Ellipse_178" data-name="Ellipse 178" cx="3.5" cy="3.5" r="3.5" transform="translate(-15.436 -128)" fill="#dbd1ff"/>
            <g id="Group_124" data-name="Group 124" transform="translate(-15.537 -98.581)">
                <g id="_Radial_Repeat_" data-name="&lt;Radial Repeat&gt;" transform="translate(22.238 39.715)" opacity="0.4">
                    <circle id="Ellipse_179" data-name="Ellipse 179" cx="3.559" cy="3.559" r="3.559" transform="matrix(0.309, -0.951, 0.951, 0.309, 0, 6.77)" fill="#dbd1ff"/>
                </g>
                <g id="_Radial_Repeat_2" data-name="&lt;Radial Repeat&gt;" transform="translate(11.449 37.704)" opacity="0.5">
                    <circle id="Ellipse_180" data-name="Ellipse 180" cx="3.559" cy="3.559" r="3.559" transform="translate(0 4.763) rotate(-42)" fill="#dbd1ff"/>
                </g>
                <g id="_Radial_Repeat_3" data-name="&lt;Radial Repeat&gt;" transform="translate(4.114 32.112)" opacity="0.6">
                    <circle id="Ellipse_181" data-name="Ellipse 181" cx="3.559" cy="3.559" r="3.559" transform="matrix(0.978, -0.208, 0.208, 0.978, 0, 1.48)" fill="#dbd1ff"/>
                </g>
                <g id="_Radial_Repeat_4" data-name="&lt;Radial Repeat&gt;" transform="translate(0 22.238)" opacity="0.7">
                    <circle id="Ellipse_182" data-name="Ellipse 182" cx="3.56" cy="3.56" r="3.56" transform="matrix(0.309, -0.951, 0.951, 0.309, 0, 6.771)" fill="#dbd1ff"/>
                </g>
                <g id="_Radial_Repeat_5" data-name="&lt;Radial Repeat&gt;" transform="translate(0.929 11.447)" opacity="0.8">
                    <circle id="Ellipse_183" data-name="Ellipse 183" cx="3.56" cy="3.56" r="3.56" transform="translate(0 4.764) rotate(-42)" fill="#dbd1ff"/>
                </g>
                <g id="_Radial_Repeat_6" data-name="&lt;Radial Repeat&gt;" transform="translate(8.131 4.113)" opacity="0.9">
                    <circle id="Ellipse_184" data-name="Ellipse 184" cx="3.56" cy="3.56" r="3.56" transform="matrix(0.978, -0.208, 0.208, 0.978, 0, 1.48)" fill="#dbd1ff"/>
                </g>
                <g id="_Radial_Repeat_7" data-name="&lt;Radial Repeat&gt;" transform="translate(17.479)">
                    <circle id="Ellipse_185" data-name="Ellipse 185" cx="3.559" cy="3.559" r="3.559" transform="matrix(0.309, -0.951, 0.951, 0.309, 0, 6.77)" fill="#dbd1ff"/>
                </g>
                <g id="_Radial_Repeat_8" data-name="&lt;Radial Repeat&gt;" transform="translate(27.185 0.929)" opacity="0.05">
                    <circle id="Ellipse_186" data-name="Ellipse 186" cx="3.559" cy="3.559" r="3.559" transform="translate(0 4.763) rotate(-42)" fill="#dbd1ff"/>
                </g>
                <g id="_Radial_Repeat_9" data-name="&lt;Radial Repeat&gt;" transform="translate(36.13 8.131)" opacity="0.1">
                    <circle id="Ellipse_187" data-name="Ellipse 187" cx="3.559" cy="3.559" r="3.559" transform="matrix(0.978, -0.208, 0.208, 0.978, 0, 1.48)" fill="#dbd1ff"/>
                </g>
                <g id="_Radial_Repeat_10" data-name="&lt;Radial Repeat&gt;" transform="translate(39.717 17.478)" opacity="0.15">
                    <circle id="Ellipse_188" data-name="Ellipse 188" cx="3.56" cy="3.56" r="3.56" transform="matrix(0.309, -0.951, 0.951, 0.309, 0, 6.771)" fill="#dbd1ff"/>
                </g>
                <g id="_Radial_Repeat_11" data-name="&lt;Radial Repeat&gt;" transform="translate(37.703 27.184)" opacity="0.2">
                    <circle id="Ellipse_189" data-name="Ellipse 189" cx="3.56" cy="3.56" r="3.56" transform="translate(0 4.764) rotate(-42)" fill="#dbd1ff"/>
                </g>
                <g id="_Radial_Repeat_12" data-name="&lt;Radial Repeat&gt;" transform="translate(32.112 36.128)" opacity="0.3">
                    <circle id="Ellipse_190" data-name="Ellipse 190" cx="3.56" cy="3.56" r="3.56" transform="matrix(0.978, -0.208, 0.208, 0.978, 0, 1.48)" fill="#dbd1ff"/>
                </g>
            </g>
        </g>
    </g>
</svg>
