<svg xmlns="http://www.w3.org/2000/svg" width="123.982" height="124.906" viewBox="0 0 123.982 124.906">
    <g id="Group_121" data-name="Group 121" transform="translate(-118.292 -182.316)">
        <ellipse id="Ellipse_174" data-name="Ellipse 174" cx="53.059" cy="53.054" rx="53.059" ry="53.054" transform="translate(134.156 199.114)" fill="none" stroke="#dbd1ff" stroke-linecap="round" stroke-linejoin="round" stroke-miterlimit="10" stroke-width="4"/>
        <path id="Path_1778" data-name="Path 1778" d="M219.928,188.517a69.27,69.27,0,0,1,11.465-3.794" transform="translate(-60.174 0)" fill="none" stroke="#dbd1ff" stroke-linecap="round" stroke-miterlimit="10" stroke-width="4"/>
        <path id="Path_1779" data-name="Path 1779" d="M120.779,243.105a70,70,0,0,1,33.165-41.189" transform="translate(0 -10.373)" fill="none" stroke="#dbd1ff" stroke-linecap="round" stroke-miterlimit="10" stroke-width="4"/>
        <circle id="Ellipse_175" data-name="Ellipse 175" cx="5.752" cy="5.752" r="5.752" transform="translate(180.857 247.433)" fill="none" stroke="#dbd1ff" stroke-linecap="round" stroke-linejoin="round" stroke-miterlimit="10" stroke-width="4"/>
        <line id="Line_49" data-name="Line 49" x2="46.017" transform="translate(164.508 279.256)" fill="none" stroke="#dbd1ff" stroke-linecap="round" stroke-miterlimit="10" stroke-width="4"/>
        <line id="Line_50" data-name="Line 50" x2="22.215" transform="translate(176.432 291.339)" fill="none" stroke="#dbd1ff" stroke-linecap="round" stroke-miterlimit="10" stroke-width="4"/>
        <g id="Group_126" data-name="Group 126" transform="translate(146.564 210.924)">
            <line id="Line_51" data-name="Line 51" y1="4.043" x2="11.895" transform="translate(68.922 28.841)" fill="none" stroke="#dbd1ff" stroke-linecap="round" stroke-miterlimit="10" stroke-width="4"/>
            <line id="Line_52" data-name="Line 52" y1="3.792" x2="10.059" transform="translate(1.772 52.29)" fill="none" stroke="#dbd1ff" stroke-linecap="round" stroke-miterlimit="10" stroke-width="4"/>
            <line id="Line_53" data-name="Line 53" x2="10.723" y2="3.111" transform="translate(68.908 51.487)" fill="none" stroke="#dbd1ff" stroke-linecap="round" stroke-miterlimit="10" stroke-width="4"/>
            <line id="Line_54" data-name="Line 54" x2="11.27" y2="3.561" transform="translate(0 29.715)" fill="none" stroke="#dbd1ff" stroke-linecap="round" stroke-miterlimit="10" stroke-width="4"/>
            <line id="Line_55" data-name="Line 55" x2="6.993" y2="9.339" transform="translate(15.061 8.486)" fill="none" stroke="#dbd1ff" stroke-linecap="round" stroke-miterlimit="10" stroke-width="4"/>
            <line id="Line_56" data-name="Line 56" y2="11.787" transform="translate(40.552)" fill="none" stroke="#dbd1ff" stroke-linecap="round" stroke-miterlimit="10" stroke-width="4"/>
            <line id="Line_57" data-name="Line 57" x1="6.96" y2="9.931" transform="translate(57.999 7.702)" fill="none" stroke="#dbd1ff" stroke-linecap="round" stroke-miterlimit="10" stroke-width="4"/>
        </g>
        <path id="Path_1780" data-name="Path 1780" d="M192.345,317.634a41.312,41.312,0,0,1-9.845-26.795c0-23.107,19-41.839,42.447-41.839s42.447,18.732,42.447,41.839a41.321,41.321,0,0,1-10.039,27.022" transform="translate(-38.228 -38.778)" fill="none" stroke="#dbd1ff" stroke-linecap="round" stroke-linejoin="round" stroke-miterlimit="10" stroke-width="4"/>
        <path id="Path_1781" data-name="Path 1781" d="M261.849,319.332l-5.092-19.5L269.9,314.892Z" transform="translate(-123.864 -27.306) rotate(-8)" fill="#dbd1ff"/>
    </g>
</svg>
