<svg xmlns="http://www.w3.org/2000/svg" xmlns:xlink="http://www.w3.org/1999/xlink" width="1368" height="1149.735" viewBox="0 0 1368 1149.735">
  <defs>
    <clipPath id="clip-path">
      <path id="Path_58" data-name="Path 58" d="M-2,937.33-4,1760H1364V610.265S1090.221,862.335,529.411,716.27C113.465,607.934-2,698.772-2,698.772V937.33Z" transform="translate(0 -170)" fill="none"/>
    </clipPath>
    <linearGradient id="linear-gradient" x1="-2.096" y1="11.688" x2="-1.096" y2="11.688" gradientUnits="objectBoundingBox">
      <stop offset="0" stop-color="#805da7"/>
      <stop offset="1" stop-color="#9474b6"/>
    </linearGradient>
    <linearGradient id="linear-gradient-2" x1="0" y1="0.5" x2="1" y2="0.5" xlink:href="#linear-gradient"/>
    <linearGradient id="linear-gradient-3" x1="1" y1="0.5" x2="0" y2="0.5" xlink:href="#linear-gradient"/>
  </defs>
  <g id="Group_57" data-name="Group 57" transform="translate(4 -440.265)" clip-path="url(#clip-path)">
    <g id="Group_56" data-name="Group 56">
      <g id="Group_33" data-name="Group 33">
        <circle id="Ellipse_2" data-name="Ellipse 2" cx="15.31" cy="15.31" r="15.31" transform="translate(345.352 1055.681)" fill="#90e189"/>
        <path id="Path_13" data-name="Path 13" d="M321.714,1085.061h0a22.482,22.482,0,1,1,22.483,22.483A22.483,22.483,0,0,1,321.714,1085.061Zm.517,0h0A21.966,21.966,0,1,0,344.2,1063.1,21.966,21.966,0,0,0,322.231,1085.061Z" fill="#fff"/>
      </g>
      <g id="Group_46" data-name="Group 46" transform="translate(-448 1808) rotate(-90)">
        <g id="Group_44" data-name="Group 44">
          <circle id="Ellipse_7" data-name="Ellipse 7" cx="230" cy="230" r="230" transform="translate(450 898)" fill="none" stroke="#fff" stroke-linecap="round" stroke-miterlimit="10" stroke-width="1" opacity="0.25"/>
          <circle id="Ellipse_8" data-name="Ellipse 8" cx="266.5" cy="266.5" r="266.5" transform="translate(413.5 861.5)" fill="none" stroke="#fff" stroke-linecap="round" stroke-miterlimit="10" stroke-width="1" opacity="0.2"/>
          <circle id="Ellipse_9" data-name="Ellipse 9" cx="304.5" cy="304.5" r="304.5" transform="translate(375.5 823.5)" fill="none" stroke="#fff" stroke-linecap="round" stroke-miterlimit="10" stroke-width="1" opacity="0.15"/>
          <circle id="Ellipse_10" data-name="Ellipse 10" cx="344" cy="344" r="344" transform="translate(336 784)" fill="none" stroke="#fff" stroke-linecap="round" stroke-miterlimit="10" stroke-width="1" opacity="0.1"/>
          <circle id="Ellipse_11" data-name="Ellipse 11" cx="382.5" cy="382.5" r="382.5" transform="translate(297.5 745.5)" fill="none" stroke="#fff" stroke-linecap="round" stroke-miterlimit="10" stroke-width="1.112" opacity="0.05"/>
          <circle id="Ellipse_12" data-name="Ellipse 12" cx="421.5" cy="421.5" r="421.5" transform="translate(258.5 706.5)" fill="none" stroke="#fff" stroke-linecap="round" stroke-miterlimit="10" stroke-width="1.225" opacity="0.03"/>
          <circle id="Ellipse_13" data-name="Ellipse 13" cx="458.5" cy="458.5" r="458.5" transform="translate(221.5 669.5)" fill="none" stroke="#fff" stroke-linecap="round" stroke-miterlimit="10" stroke-width="1.333" opacity="0.03"/>
          <circle id="Ellipse_14" data-name="Ellipse 14" cx="492.5" cy="492.5" r="492.5" transform="translate(187.5 635.5)" fill="none" stroke="#fff" stroke-linecap="round" stroke-miterlimit="10" stroke-width="1.432" opacity="0.02"/>
          <circle id="Ellipse_15" data-name="Ellipse 15" cx="530" cy="530" r="530" transform="translate(150 598)" fill="none" stroke="#fff" stroke-linecap="round" stroke-miterlimit="10" stroke-width="1.541" opacity="0.01"/>
          <circle id="Ellipse_16" data-name="Ellipse 16" cx="568" cy="568" r="568" transform="translate(112 560)" fill="none" stroke="#fff" stroke-linecap="round" stroke-miterlimit="10" stroke-width="1.651" opacity="0.01"/>
          <g id="Group_43" data-name="Group 43">
            <path id="Path_41" data-name="Path 41" d="M844.36,1238.15l-37.88-37.69a146.56,146.56,0,0,0,15.37-107.71l47.83-22.7a198.71,198.71,0,0,1-25.32,168.1Z" fill="#805da7" opacity="0.2"/>
            <path id="Path_42" data-name="Path 42" d="M679.88,981.33a145.4,145.4,0,0,0-73.52,19.82l-30.94-42.21a198.324,198.324,0,0,1,276.73,70.36l-47.28,22.44A146.023,146.023,0,0,0,679.88,981.33Z" fill="#805da7" opacity="0.2"/>
            <path id="Path_43" data-name="Path 43" d="M679.88,1325.71c-109.5,0-198.26-88.76-198.26-198.25,0-55.54,21.08-103.98,57.88-139.96l33.01,40.85a146.119,146.119,0,0,0,206.93,206.06l36.97,36.78A197.546,197.546,0,0,1,679.88,1325.71Z" fill="#805da7" opacity="0.2"/>
            <path id="Path_44" data-name="Path 44" d="M926,1429a77,77,0,0,1-61.02-123.96l-41.38-41.03-37.03-36.72-28.68-28.44a105.746,105.746,0,1,1-152.04-146.9l-24.8-32.14-31.92-41.38-8.27-10.72a48.093,48.093,0,1,1,14.69-10.4l7.62,9.87,31.85,41.3,24.7,32.01a105.755,105.755,0,0,1,155.01,40.2l36.52-17.26,47.14-22.28,15.73-7.43a88.908,88.908,0,1,1,151.69,15.42l59.4,45.38a54.879,54.879,0,1,1-10.54,14.15l-60.69-46.61a88.9,88.9,0,0,1-130.34-12.58L865.6,1058l-47.35,22.38-36.86,17.41a105.919,105.919,0,0,1-11.46,85.11l29.23,28.98,37.38,37.07,42.44,42.08a76.505,76.505,0,0,1,42.75-15.91l4.06-55.32a40.992,40.992,0,1,1,17.91,1.24l-4.05,55.16A77.011,77.011,0,0,1,926,1429Z" fill="#805da7"/>
            <g id="Group_34" data-name="Group 34" transform="matrix(-0.017, -1, 1, -0.017, -24.667, 1967.737)">
              <path id="Path_59" data-name="Path 59" d="M88,0A87.962,87.962,0,1,1,43.366,12.143a86.887,86.887,0,0,1,18.476-8.2A87.779,87.779,0,0,1,88,0Z" transform="translate(866.5 908)" fill="#1c232e" stroke="#302e45" stroke-width="4"/>
              <path id="Path_45" data-name="Path 45" d="M947.4,908.269a88.058,88.058,0,0,1,75.972,142.542" fill="none" stroke="#805da7" stroke-linecap="round" stroke-miterlimit="10" stroke-width="4"/>
              <circle id="Ellipse_18" data-name="Ellipse 18" cx="74.302" cy="74.302" r="74.302" transform="translate(880.198 921.698)" fill="url(#linear-gradient)"/>
            </g>
            <g id="Group_35" data-name="Group 35" transform="translate(997.374 -24.414) rotate(56)">
              <path id="Path_60" data-name="Path 60" d="M54,0A54,54,0,1,1,0,54,54,54,0,0,1,54,0Z" transform="translate(467.5 872)" fill="#1c232e" stroke="#302e45" stroke-width="4"/>
              <circle id="Ellipse_20" data-name="Ellipse 20" cx="45.594" cy="45.594" r="45.594" transform="translate(475.906 880.406)" fill="#805da7"/>
            </g>
            <g id="Group_36" data-name="Group 36" transform="matrix(0.819, -0.574, 0.574, 0.819, -437.015, 466.328)">
              <path id="Path_46" data-name="Path 46" d="M521.5,980a54.021,54.021,0,0,1-48.3-78.174" transform="translate(1456.46 420.74) rotate(91)" fill="none" stroke="#805da7" stroke-linecap="round" stroke-miterlimit="10" stroke-width="4"/>
              <circle id="Ellipse_21" data-name="Ellipse 21" cx="45.594" cy="45.594" r="45.594" transform="translate(475.906 880.406)" fill="url(#linear-gradient-2)"/>
            </g>
            <g id="Group_37" data-name="Group 37">
              <circle id="Ellipse_22" data-name="Ellipse 22" cx="106" cy="106" r="106" transform="translate(573.499 1021.006)" fill="#1c232e" stroke="#707070" stroke-miterlimit="10" stroke-width="4"/>
              <circle id="Ellipse_23" data-name="Ellipse 23" cx="106" cy="106" r="106" transform="translate(573.5 1021)" fill="none" stroke="#302e45" stroke-miterlimit="10" stroke-width="4"/>
              <path id="Path_47" data-name="Path 47" d="M580.991,1087.77a106.04,106.04,0,0,0,108.126,144.806" fill="none" stroke="#805da7" stroke-linecap="round" stroke-miterlimit="10" stroke-width="4"/>
              <circle id="Ellipse_24" data-name="Ellipse 24" cx="89.5" cy="89.5" r="89.5" transform="translate(590 1037.5)" fill="url(#linear-gradient-3)"/>
            </g>
            <g id="Group_38" data-name="Group 38">
              <ellipse id="Ellipse_25" data-name="Ellipse 25" cx="75.5" cy="75.422" rx="75.5" ry="75.422" transform="translate(850 1277)" fill="#1c232e" stroke="#302e45" stroke-miterlimit="10" stroke-width="4"/>
              <path id="Path_48" data-name="Path 48" d="M995.067,1323.064A75.457,75.457,0,0,1,936.5,1427.049" fill="none" stroke="#805da7" stroke-linecap="round" stroke-miterlimit="10" stroke-width="4.025"/>
              <ellipse id="Ellipse_26" data-name="Ellipse 26" cx="63.748" cy="63.682" rx="63.748" ry="63.682" transform="translate(861.752 1288.74)" fill="url(#linear-gradient-2)"/>
            </g>
            <g id="Group_39" data-name="Group 39" transform="translate(2279.005 426.005) rotate(90)">
              <path id="Path_49" data-name="Path 49" d="M926.068,1336.24V1355.2L938,1362.5" fill="none" stroke="#fff" stroke-linecap="round" stroke-miterlimit="10" stroke-width="5"/>
              <path id="Path_50" data-name="Path 50" d="M956.186,1330.911a36.938,36.938,0,1,1-14.257-11.55" fill="none" stroke="#f8f8f8" stroke-miterlimit="10" stroke-width="5"/>
              <circle id="Ellipse_27" data-name="Ellipse 27" cx="9.25" cy="9.25" r="9.25" transform="translate(940.515 1315.01)" fill="none" stroke="#fff" stroke-miterlimit="10" stroke-width="5"/>
            </g>
            <g id="Group_40" data-name="Group 40" transform="translate(1449.194 404.069) rotate(90)">
              <path id="Path_51" data-name="Path 51" d="M513.84,942.977l-14.413-14.413a2.734,2.734,0,0,1,0-3.865l14.413-14.413" fill="none" stroke="#fff" stroke-linecap="round" stroke-miterlimit="10" stroke-width="5"/>
              <path id="Path_52" data-name="Path 52" d="M531.286,942.977,545.7,928.564a2.734,2.734,0,0,0,0-3.865l-14.414-14.413" fill="none" stroke="#fff" stroke-linecap="round" stroke-miterlimit="10" stroke-width="5"/>
            </g>
            <g id="Group_41" data-name="Group 41" transform="translate(1953.699 44.573) rotate(90)">
              <path id="Path_53" data-name="Path 53" d="M983.094,991.054l-24.972,19.633a5.757,5.757,0,0,1-7.117,0l-24.973-19.633a5.758,5.758,0,0,1,0-9.053l24.973-19.633a5.757,5.757,0,0,1,7.117,0L983.094,982A5.757,5.757,0,0,1,983.094,991.054Z" fill="none" stroke="#fff" stroke-miterlimit="10" stroke-width="5"/>
              <path id="Path_54" data-name="Path 54" d="M983.094,1016.272l-24.972,19.633a5.757,5.757,0,0,1-7.117,0l-24.973-19.633a5.758,5.758,0,0,1,0-9.053l24.973-19.632a5.757,5.757,0,0,1,7.117,0l24.972,19.632A5.757,5.757,0,0,1,983.094,1016.272Z" fill="none" stroke="#fff" stroke-miterlimit="10" stroke-width="5"/>
            </g>
            <g id="Group_42" data-name="Group 42" transform="translate(1808.762 449.982) rotate(90)">
              <ellipse id="Ellipse_28" data-name="Ellipse 28" cx="19.671" cy="51.22" rx="19.671" ry="51.22" transform="translate(636.744 1094.85) rotate(-30)" fill="none" stroke="#fff" stroke-miterlimit="10" stroke-width="5"/>
              <ellipse id="Ellipse_29" data-name="Ellipse 29" cx="51.22" cy="19.671" rx="51.22" ry="19.671" transform="translate(636.744 1163.894) rotate(-60)" fill="none" stroke="#fff" stroke-miterlimit="10" stroke-width="5"/>
              <ellipse id="Ellipse_30" data-name="Ellipse 30" cx="51.22" cy="19.671" rx="51.22" ry="19.671" transform="translate(628.17 1109.701)" fill="none" stroke="#fff" stroke-miterlimit="10" stroke-width="5"/>
            </g>
          </g>
        </g>
        <g id="Group_45" data-name="Group 45">
          <circle id="Ellipse_2-2" data-name="Ellipse 2" cx="11.094" cy="11.094" r="11.094" transform="translate(1091.159 952.985)" fill="#dbd1ff"/>
          <path id="Path_13-2" data-name="Path 13" d="M1114.183,990.566a16.292,16.292,0,1,1,16.291-16.291h0A16.291,16.291,0,0,1,1114.183,990.566Zm0-32.208a15.917,15.917,0,1,0,15.916,15.917h0A15.916,15.916,0,0,0,1114.183,958.358Z" fill="#fff"/>
        </g>
      </g>
      <g id="Purple_Circuit_1" data-name="Purple Circuit 1" transform="translate(0 -60)">
        <g id="Label_Circuit_1" data-name="Label Circuit 1">
          <path id="Path_55" data-name="Path 55" d="M460.388,926H136.5l-35.975,66.093" fill="none" stroke="#805da7" stroke-linecap="round" stroke-linejoin="round" stroke-width="4"/>
          <circle id="Ellipse_31" data-name="Ellipse 31" cx="8" cy="8" r="8" transform="translate(88.5 991)" fill="none" stroke="#805da7" stroke-linecap="round" stroke-linejoin="round" stroke-width="4"/>
        </g>
      </g>
      <g id="Label_Circuit_3" data-name="Label Circuit 3" transform="translate(-51 -103)">
        <g id="Group_51" data-name="Group 51">
          <circle id="Ellipse_33" data-name="Ellipse 33" cx="8" cy="8" r="8" transform="translate(1249.5 834)" fill="none" stroke="#805da7" stroke-linecap="round" stroke-linejoin="round" stroke-width="4"/>
        </g>
        <line id="Line_2" data-name="Line 2" x1="213.526" transform="translate(1035.974 842)" fill="none" stroke="#805da7" stroke-linecap="round" stroke-linejoin="round" stroke-width="4"/>
        <line id="Line_3" data-name="Line 3" x1="40.467" y2="76.107" transform="translate(995.507 842.032)" fill="none" stroke="#805da7" stroke-linecap="round" stroke-miterlimit="10" stroke-width="4"/>
      </g>
      <g id="Group_54" data-name="Group 54" transform="translate(-720.803 56.37)">
        <g id="Label_Circuit_2" data-name="Label Circuit 2">
          <path id="Path_57" data-name="Path 57" d="M930.993,1353H1137.5l39-72" fill="none" stroke="#805da7" stroke-linecap="round" stroke-miterlimit="10" stroke-width="4"/>
          <circle id="Ellipse_34" data-name="Ellipse 34" cx="8" cy="8" r="8" transform="translate(914.993 1344.999)" fill="none" stroke="#805da7" stroke-linecap="round" stroke-linejoin="round" stroke-width="4"/>
        </g>
      </g>
      <g id="Group_55" data-name="Group 55" transform="translate(-208 28)">
        <rect id="Rectangle_14" data-name="Rectangle 14" width="19.275" height="19.275" transform="translate(1009.841 1388.094)" fill="#90e189"/>
        <path id="Path_7" data-name="Path 7" d="M1040.819,1396.355h-23.406v-23.406h23.406Zm-22.388-1.017h21.37v-21.37h-21.37Z" fill="#fff"/>
      </g>
      <g id="Label_Circuit_4" data-name="Label Circuit 4">
        <path id="Path_2752" data-name="Path 2752" d="M629.5,1395H341.491L248.5,1221" transform="translate(511 -20.001)" fill="none" stroke="#805da7" stroke-linecap="round" stroke-miterlimit="10" stroke-width="4"/>
        <g id="Group_854" data-name="Group 854" transform="translate(511 -20.001)">
          <g id="Group_49" data-name="Group 49" transform="translate(399)">
            <circle id="Ellipse_32" data-name="Ellipse 32" cx="8" cy="8" r="8" transform="translate(232.5 1387)" fill="none" stroke="#805da7" stroke-linecap="round" stroke-linejoin="round" stroke-width="4"/>
          </g>
        </g>
      </g>
    </g>
  </g>
</svg>
