<svg xmlns="http://www.w3.org/2000/svg" width="100.644" height="96.831" viewBox="0 0 100.644 96.831">
    <g id="Group_160" data-name="Group 160" transform="translate(2 2)">
        <g id="Layer_1" data-name="Layer 1" transform="translate(37.178 37.166)">
            <path id="Path_1798" data-name="Path 1798" d="M-1154.83,1182.227l7.423,7.423,16.5-18.146" transform="translate(1154.83 -1171.504)" fill="none" stroke="#83dc79" stroke-linecap="round" stroke-linejoin="round" stroke-miterlimit="10" stroke-width="4"/>
        </g>
        <g id="Layer_2" data-name="Layer 2">
            <g id="Group_159" data-name="Group 159">
                <g id="Group_158" data-name="Group 158">
                    <path id="Path_1799" data-name="Path 1799" d="M-1160.079,1139.311l.932,17.384-15.236,2.2-9.465,14.612-13.619-7.176-16.246,6.258-6.8-13.81-16.821-4.486,2.616-15.17-10.972-13.517,11.033-10.735-.932-17.385,15.236-2.2,9.465-14.611,13.619,7.176,16.246-6.258,6.8,13.81,16.821,4.486-2.616,15.17,10.972,13.517Z" transform="translate(1245.69 -1080.675)" fill="none" stroke="#83dc79" stroke-linecap="round" stroke-linejoin="round" stroke-miterlimit="10" stroke-width="4"/>
                </g>
            </g>
            <circle id="Ellipse_199" data-name="Ellipse 199" cx="23.804" cy="23.804" r="23.804" transform="translate(24.518 22.611)" fill="none" stroke="#83dc79" stroke-linecap="round" stroke-linejoin="round" stroke-miterlimit="10" stroke-width="4"/>
        </g>
    </g>
</svg>
