<svg xmlns="http://www.w3.org/2000/svg" width="60.072" height="62.713" viewBox="0 0 60.072 62.713">
    <g id="Group_752" data-name="Group 752" transform="translate(-4454.5 -317.668)">
        <g id="Group_212" data-name="Group 212" transform="translate(4471.084 334.087)">
            <path id="Path_106" data-name="Path 106" d="M4490.372,339.843a13.564,13.564,0,0,1-3.591,9.214,8.129,8.129,0,0,0-1.256,1.2,8.273,8.273,0,0,0-1.962,5.361v.934a1.721,1.721,0,0,1-1.725,1.723h-10.169a1.723,1.723,0,0,1-1.726-1.723v-.934a8.262,8.262,0,0,0-1.961-5.361,8.085,8.085,0,0,0-1.256-1.2,13.617,13.617,0,1,1,23.645-9.214Z" transform="translate(-4463.136 -326.226)" fill="none" stroke="#9474b6" stroke-linecap="round" stroke-linejoin="round" stroke-miterlimit="10" stroke-width="3"/>
            <path id="Path_107" data-name="Path 107" d="M4466.091,338.23a13.837,13.837,0,0,1-1.256-1.2A8.085,8.085,0,0,1,4466.091,338.23Z" transform="translate(-4461.244 -314.196)" fill="none" stroke="#9474b6" stroke-linecap="round" stroke-linejoin="round" stroke-miterlimit="10" stroke-width="3"/>
            <path id="Path_108" data-name="Path 108" d="M4474.984,337.027a13.71,13.71,0,0,1-1.256,1.2A8.129,8.129,0,0,1,4474.984,337.027Z" transform="translate(-4451.339 -314.196)" fill="none" stroke="#9474b6" stroke-linecap="round" stroke-linejoin="round" stroke-miterlimit="10" stroke-width="3"/>
        </g>
        <path id="Path_109" data-name="Path 109" d="M4465.48,334.917a5.823,5.823,0,0,1-.064-.872,5.7,5.7,0,0,1,5.7-5.7,5.637,5.637,0,0,1,.945.078" transform="translate(12.478 12.787)" fill="none" stroke="#9474b6" stroke-linecap="round" stroke-linejoin="round" stroke-miterlimit="10" stroke-width="3"/>
        <rect id="Rectangle_79" data-name="Rectangle 79" width="13.618" height="6.311" rx="1.001" transform="translate(4477.894 372.57)" fill="none" stroke="#9474b6" stroke-linecap="round" stroke-linejoin="round" stroke-miterlimit="10" stroke-width="3"/>
        <line id="Line_65" data-name="Line 65" y1="5.816" x2="5.864" transform="translate(4498.933 327.61)" fill="none" stroke="#9474b6" stroke-linecap="round" stroke-miterlimit="10" stroke-width="3"/>
        <line id="Line_66" data-name="Line 66" y1="6.043" x2="6.093" transform="translate(4464.275 361.756)" fill="none" stroke="#9474b6" stroke-linecap="round" stroke-miterlimit="10" stroke-width="3"/>
        <line id="Line_67" data-name="Line 67" x2="5.968" y2="5.968" transform="translate(4498.747 361.915)" fill="none" stroke="#9474b6" stroke-linecap="round" stroke-miterlimit="10" stroke-width="3"/>
        <line id="Line_68" data-name="Line 68" x2="6.136" y2="6.136" transform="translate(4464.358 327.526)" fill="none" stroke="#9474b6" stroke-linecap="round" stroke-miterlimit="10" stroke-width="3"/>
        <line id="Line_69" data-name="Line 69" x2="8.479" transform="translate(4504.593 347.704)" fill="none" stroke="#9474b6" stroke-linecap="round" stroke-miterlimit="10" stroke-width="3"/>
        <line id="Line_70" data-name="Line 70" x2="8.679" transform="translate(4456 347.704)" fill="none" stroke="#9474b6" stroke-linecap="round" stroke-miterlimit="10" stroke-width="3"/>
        <line id="Line_71" data-name="Line 71" y1="8.5" transform="translate(4484.536 319.168)" fill="none" stroke="#9474b6" stroke-linecap="round" stroke-miterlimit="10" stroke-width="3"/>
    </g>
</svg>
