<svg xmlns="http://www.w3.org/2000/svg" width="59.917" height="80.162" viewBox="0 0 59.917 80.162">
    <g id="Group_716" data-name="Group 716" transform="translate(2 2)">
        <path id="Path_1786" data-name="Path 1786" d="M-63.587,817.924h10.856a5.148,5.148,0,0,1,5.148,5.148v59.89a5.147,5.147,0,0,1-5.148,5.147H-98.352a5.147,5.147,0,0,1-5.148-5.147v-59.89a5.148,5.148,0,0,1,5.148-5.148H-87.11" transform="translate(103.5 -811.947)" fill="none" stroke="#805da7" stroke-linecap="round" stroke-linejoin="round" stroke-miterlimit="10" stroke-width="4"/>
        <g id="Group_140" data-name="Group 140" transform="translate(16.39 0)">
            <path id="Path_1787" data-name="Path 1787" d="M-55.648,814.065v6.556H-79.172v-6.556a1.929,1.929,0,0,1,1.928-1.928h4.816a4.961,4.961,0,0,1,4.824-3.085,4.961,4.961,0,0,1,4.824,3.085h5.2A1.929,1.929,0,0,1-55.648,814.065Z" transform="translate(79.172 -809.052)" fill="none" stroke="#805da7" stroke-linecap="round" stroke-linejoin="round" stroke-miterlimit="10" stroke-width="4"/>
        </g>
        <line id="Line_63" data-name="Line 63" x2="22.55" transform="translate(26.426 25.296)" fill="none" stroke="#805da7" stroke-linecap="round" stroke-miterlimit="10" stroke-width="4"/>
        <line id="Line_64" data-name="Line 64" x2="16.582" transform="translate(26.426 32.311)" fill="none" stroke="#805da7" stroke-linecap="round" stroke-miterlimit="10" stroke-width="4"/>
        <line id="Line_67" data-name="Line 67" x2="22.55" transform="translate(26.426 54.745)" fill="none" stroke="#805da7" stroke-linecap="round" stroke-miterlimit="10" stroke-width="4"/>
        <line id="Line_68" data-name="Line 68" x2="16.582" transform="translate(26.426 61.76)" fill="none" stroke="#805da7" stroke-linecap="round" stroke-miterlimit="10" stroke-width="4"/>
        <rect id="Rectangle_41" data-name="Rectangle 41" width="9.366" height="9.366" transform="translate(8.291 24.332)" fill="none" stroke="#805da7" stroke-linecap="round" stroke-linejoin="round" stroke-miterlimit="10" stroke-width="4"/>
        <rect id="Rectangle_43" data-name="Rectangle 43" width="9.366" height="9.366" transform="translate(8.291 53.781)" fill="none" stroke="#805da7" stroke-linecap="round" stroke-linejoin="round" stroke-miterlimit="10" stroke-width="4"/>
    </g>
</svg>
