<svg width="69" height="68" viewBox="0 0 69 68" fill="none" xmlns="http://www.w3.org/2000/svg">
<path d="M29.0579 55.5893C43.8564 55.5893 55.8529 43.5927 55.8529 28.7943C55.8529 13.9958 43.8564 1.99927 29.0579 1.99927C14.2595 1.99927 2.26294 13.9958 2.26294 28.7943C2.26294 43.5927 14.2595 55.5893 29.0579 55.5893Z" stroke="#9574B6" stroke-width="3" stroke-miterlimit="10" stroke-linecap="round" stroke-linejoin="round"/>
<path d="M48.3972 47.3291L67.1082 65.6171" stroke="#9574B6" stroke-width="3" stroke-miterlimit="10" stroke-linecap="round"/>
<path d="M24.9734 38.9352L16.5886 30.5503C16.2906 30.2521 16.1233 29.8478 16.1233 29.4262C16.1233 29.0047 16.2906 28.6004 16.5886 28.3022L24.9734 19.9172" stroke="#9474B6" stroke-width="3" stroke-miterlimit="10" stroke-linecap="round" stroke-linejoin="round"/>
<path d="M32.1399 38.9352L40.5247 30.5503C40.8227 30.2521 40.99 29.8478 40.99 29.4262C40.99 29.0047 40.8227 28.6004 40.5247 28.3022L32.1399 19.9172" stroke="#9474B6" stroke-width="3" stroke-miterlimit="10" stroke-linecap="round" stroke-linejoin="round"/>
</svg>
