<svg xmlns="http://www.w3.org/2000/svg" width="100.493" height="93.106" viewBox="0 0 100.493 93.106">
    <g id="Group_161" data-name="Group 161" transform="translate(2 2)">
        <rect id="Rectangle_51" data-name="Rectangle 51" width="9.055" height="38.147" rx="4.528" transform="translate(10.561 31.5)" fill="none" stroke="#83dc79" stroke-linecap="round" stroke-linejoin="round" stroke-miterlimit="10" stroke-width="4"/>
        <rect id="Rectangle_52" data-name="Rectangle 52" width="9.055" height="38.147" rx="4.528" transform="translate(77.222 31.5)" fill="none" stroke="#83dc79" stroke-linecap="round" stroke-linejoin="round" stroke-miterlimit="10" stroke-width="4"/>
        <path id="Path_1800" data-name="Path 1800" d="M-765.252,1724.167a17.534,17.534,0,0,1-10.039-15.854,17.537,17.537,0,0,1,10.251-15.954" transform="translate(775.291 -1658.028)" fill="none" stroke="#83dc79" stroke-linecap="round" stroke-linejoin="round" stroke-miterlimit="10" stroke-width="4"/>
        <path id="Path_1801" data-name="Path 1801" d="M-688.708,1724.167a17.533,17.533,0,0,0,10.038-15.854,17.535,17.535,0,0,0-10.251-15.954" transform="translate(775.163 -1658.028)" fill="none" stroke="#83dc79" stroke-linecap="round" stroke-linejoin="round" stroke-miterlimit="10" stroke-width="4"/>
        <path id="Path_1802" data-name="Path 1802" d="M-760.712,1688.953a33.911,33.911,0,0,1,33.824-31.493,33.91,33.91,0,0,1,33.824,31.506" transform="translate(775.693 -1657.46)" fill="none" stroke="#83dc79" stroke-linecap="round" stroke-linejoin="round" stroke-miterlimit="10" stroke-width="4"/>
        <path id="Path_1803" data-name="Path 1803" d="M-692.239,1728.651h0a14.93,14.93,0,0,1-14.931,14.931h-8.035" transform="translate(774.952 -1658.619)" fill="none" stroke="#83dc79" stroke-linecap="round" stroke-linejoin="round" stroke-miterlimit="10" stroke-width="4"/>
        <rect id="Rectangle_53" data-name="Rectangle 53" width="19.651" height="8.284" rx="4.142" transform="translate(40.038 80.821)" fill="none" stroke="#83dc79" stroke-linecap="round" stroke-linejoin="round" stroke-miterlimit="10" stroke-width="4"/>
    </g>
</svg>
