<svg xmlns="http://www.w3.org/2000/svg" width="81.481" height="66.461" viewBox="0 0 81.481 66.461">
    <g id="Group_41" data-name="Group 41" transform="translate(1039.877 -921.333) rotate(90)">
        <path id="Path_53" data-name="Path 53" d="M983.094,991.054l-24.972,19.633a5.757,5.757,0,0,1-7.117,0l-24.973-19.633a5.758,5.758,0,0,1,0-9.053l24.973-19.633a5.757,5.757,0,0,1,7.117,0L983.094,982A5.757,5.757,0,0,1,983.094,991.054Z" fill="none" stroke="#fff" stroke-miterlimit="10" stroke-width="5"/>
        <path id="Path_54" data-name="Path 54" d="M983.094,1016.272l-24.972,19.633a5.757,5.757,0,0,1-7.117,0l-24.973-19.633a5.758,5.758,0,0,1,0-9.053l24.973-19.632a5.757,5.757,0,0,1,7.117,0l24.972,19.632A5.757,5.757,0,0,1,983.094,1016.272Z" fill="none" stroke="#fff" stroke-miterlimit="10" stroke-width="5"/>
    </g>
</svg>
