<svg xmlns="http://www.w3.org/2000/svg" xmlns:xlink="http://www.w3.org/1999/xlink" width="438.932" height="544.775" viewBox="0 0 438.932 544.775">
  <defs>
    <linearGradient id="linear-gradient" y1="0.5" x2="1" y2="0.5" gradientUnits="objectBoundingBox">
      <stop offset="0" stop-color="#fff"/>
      <stop offset="1" stop-color="#9474b6"/>
    </linearGradient>
  </defs>
  <g id="Background_Logo_2" data-name="Background Logo 2" transform="translate(-1171.333 -965.366)" opacity="0.02">
    <path id="Path_37" data-name="Path 37" d="M1459.987,1247.868l-30.128-28.7a114.116,114.116,0,0,1-83.516,14.214l-16.669,37.7a154.723,154.723,0,0,0,130.313-23.22Z" fill="#ddd5ea"/>
    <path id="Path_38" data-name="Path 38" d="M1256.652,1125.209a113.206,113.206,0,0,1,13.891-57.639l-33.5-23.2a154.424,154.424,0,0,0,60.547,213.926l16.479-37.27A113.7,113.7,0,0,1,1256.652,1125.209Z" fill="#ddd5ea"/>
    <path id="Path_39" data-name="Path 39" d="M1524.7,1118.014a154.368,154.368,0,0,0-158.453-150.176c-43.23,1.16-80.493,18.58-107.73,47.976l32.486,24.84a113.775,113.775,0,0,1,164.713,156.761l29.4,28.007A153.817,153.817,0,0,0,1524.7,1118.014Z" fill="#ddd5ea"/>
    <path id="Path_40" data-name="Path 40" d="M1610.243,1307.426a59.953,59.953,0,0,0-97.76-44.906l-32.8-31.351-29.355-28.056-22.736-21.729a82.338,82.338,0,1,0-117.518-115.272l-25.535-18.632-32.875-23.981-8.517-6.213a37.448,37.448,0,1,0-7.788,11.651l7.842,5.725,32.811,23.928,25.432,18.557a82.344,82.344,0,0,0,34.529,119.814l-12.672,28.786-16.357,37.158-5.455,12.4a69.227,69.227,0,1,0,15.173,117.748l36.563,45.286a42.731,42.731,0,1,0,10.793-8.5l-37.547-46.265a69.223,69.223,0,0,0-12.515-101.189l6.254-14.22,16.431-37.323,12.781-29.054a82.469,82.469,0,0,0,66.007-10.7l23.167,22.146,29.635,28.321,33.641,32.154a59.565,59.565,0,0,0-11.491,33.607l-42.974,4.316a31.919,31.919,0,1,0,1.339,13.915l42.85-4.3a59.964,59.964,0,0,0,118.648-13.817Z" fill="url(#linear-gradient)"/>
  </g>
</svg>
