<svg xmlns="http://www.w3.org/2000/svg" xmlns:xlink="http://www.w3.org/1999/xlink" width="653.109" height="675.459" viewBox="0 0 653.109 675.459">
  <defs>
    <linearGradient id="linear-gradient" y1="0.5" x2="1" y2="0.5" gradientUnits="objectBoundingBox">
      <stop offset="0" stop-color="#805da7"/>
      <stop offset="1" stop-color="#9474b6"/>
    </linearGradient>
  </defs>
  <g id="Background_Logo" data-name="Background Logo" transform="translate(265.665 -725.331)" opacity="0.02">
    <path id="Path_33" data-name="Path 33" d="M177.616,1077.763l-47.153,25.14a145.377,145.377,0,0,0-64.048-40.1,146.481,146.481,0,0,0-34.4-6.228l-7.651-52.387a198.208,198.208,0,0,1,57.357,8.794A197.284,197.284,0,0,1,177.616,1077.763Z" fill="#ddd5ea"/>
    <path id="Path_34" data-name="Path 34" d="M-116.186,1159.559a145.4,145.4,0,0,0-2.648,76.1l-49.435,17.178a197.222,197.222,0,0,1,2.262-108.585A198.143,198.143,0,0,1-19.735,1008.976l7.564,51.786A146.022,146.022,0,0,0-116.186,1159.559Z" fill="#ddd5ea"/>
    <path id="Path_35" data-name="Path 35" d="M213.005,1260.706C180.844,1365.377,69.93,1424.152-34.732,1391.994c-53.09-16.312-93.2-50.69-116.787-96.434L-102.775,1276a145.538,145.538,0,0,0,83.354,66.16A146.123,146.123,0,0,0,163.174,1245.4a145.623,145.623,0,0,0-8.2-106.673l46.016-24.537A197.548,197.548,0,0,1,213.005,1260.706Z" fill="#ddd5ea"/>
    <path id="Path_36" data-name="Path 36" d="M384.027,1055.778A77,77,0,0,1,247.612,1077.7l-51.374,27.5-45.976,24.612-35.61,19.062a105.439,105.439,0,0,1,9.933,84.661,105.739,105.739,0,0,1-195.009,17.528l-38.006,14.266-48.93,18.359-12.677,4.756a47.733,47.733,0,0,1-1.732,20.244,48,48,0,0,1-59.981,31.785,48,48,0,0,1-31.785-59.98,48,48,0,0,1,59.981-31.785,47.8,47.8,0,0,1,27.891,22.64l11.673-4.385,48.832-18.316,37.853-14.208a105.172,105.172,0,0,1-.282-63.023A105.7,105.7,0,0,1,6.65,1098.075L.877,1058.1l-7.452-51.605-2.482-17.219a88.4,88.4,0,0,1-38.618-3.047,88.908,88.908,0,0,1-58.875-111.1,88.906,88.906,0,0,1,111.1-58.865A88.49,88.49,0,0,1,50.235,848.8l60.825-43.452a54.874,54.874,0,1,1,10.43,14.231L59.111,863.905a88.52,88.52,0,0,1,4.306,63.443A88.768,88.768,0,0,1,8.8,984.8l2.846,19.747,7.486,51.835,5.816,40.347a105.3,105.3,0,0,1,29.6,4.671,105.2,105.2,0,0,1,48.387,31.281l36.287-19.429,46.414-24.843,52.689-28.209a76.5,76.5,0,0,1-2.652-45.538l-51.688-20.129a40.991,40.991,0,1,1,6.446-16.756l51.537,20.073a77.011,77.011,0,0,1,142.052,57.926Z" fill="url(#linear-gradient)"/>
  </g>
</svg>
