<svg width="100" height="100" viewBox="0 0 100 100" fill="none" xmlns="http://www.w3.org/2000/svg">
<path d="M50 98C76.5097 98 98 76.5097 98 50C98 23.4903 76.5097 2 50 2C23.4903 2 2 23.4903 2 50C2 76.5097 23.4903 98 50 98Z" stroke="#83DC79" stroke-width="4" stroke-miterlimit="10" stroke-linecap="round" stroke-linejoin="round"/>
<path d="M72.935 65.713C70.3784 69.5069 66.9283 72.6142 62.8885 74.7614C58.8487 76.9085 54.343 78.0296 49.768 78.026C45.3059 78.0296 40.9081 76.9629 36.9435 74.9154C32.9789 72.8679 29.5632 69.8995 26.983 66.259" stroke="#83DC79" stroke-width="4" stroke-miterlimit="10" stroke-linecap="round" stroke-linejoin="round"/>
<path d="M34 42C36.7614 42 39 39.5376 39 36.5C39 33.4624 36.7614 31 34 31C31.2386 31 29 33.4624 29 36.5C29 39.5376 31.2386 42 34 42Z" fill="#83DC79" stroke="#83DC79" stroke-width="4" stroke-miterlimit="10" stroke-linecap="round" stroke-linejoin="round"/>
<path d="M67 42C69.7614 42 72 39.5376 72 36.5C72 33.4624 69.7614 31 67 31C64.2386 31 62 33.4624 62 36.5C62 39.5376 64.2386 42 67 42Z" fill="#83DC79" stroke="#83DC79" stroke-width="4" stroke-miterlimit="10" stroke-linecap="round" stroke-linejoin="round"/>
</svg>
