<svg width="102" height="98" viewBox="0 0 102 98" fill="none" xmlns="http://www.w3.org/2000/svg">
<path d="M39.7601 50.62L47.183 58.043L63.683 39.897" stroke="#83DC79" stroke-width="4" stroke-miterlimit="10" stroke-linecap="round" stroke-linejoin="round"/>
<path d="M88.193 61.367L89.125 78.7509L73.8889 80.951L64.424 95.5629L50.805 88.387L34.559 94.645L27.7591 80.835L10.938 76.3489L13.554 61.179L2.58206 47.6619L13.615 36.9269L12.683 19.5419L27.919 17.342L37.3841 2.73102L51.003 9.90692L67.2491 3.64899L74.049 17.4589L90.87 21.945L88.2541 37.1149L99.226 50.632L88.193 61.367Z" stroke="#83DC79" stroke-width="4" stroke-miterlimit="10" stroke-linecap="round" stroke-linejoin="round"/>
<path d="M50.904 72.95C64.0506 72.95 74.708 62.2926 74.708 49.146C74.708 35.9994 64.0506 25.342 50.904 25.342C37.7574 25.342 27.1 35.9994 27.1 49.146C27.1 62.2926 37.7574 72.95 50.904 72.95Z" stroke="#83DC79" stroke-width="4" stroke-miterlimit="10" stroke-linecap="round" stroke-linejoin="round"/>
</svg>
