<svg width="102" height="94" viewBox="0 0 102 94" fill="none" xmlns="http://www.w3.org/2000/svg">
<path d="M22.386 38.21C22.386 35.7093 20.359 33.682 17.8585 33.682C15.3581 33.682 13.331 35.7093 13.331 38.21V67.301C13.331 69.8018 15.3581 71.829 17.8585 71.829C20.359 71.829 22.386 69.8018 22.386 67.301V38.21Z" stroke="#83DC79" stroke-width="4" stroke-miterlimit="10" stroke-linecap="round" stroke-linejoin="round"/>
<path d="M89.047 38.21C89.047 35.7093 87.02 33.682 84.5195 33.682C82.019 33.682 79.992 35.7093 79.992 38.21V67.301C79.992 69.8018 82.019 71.829 84.5195 71.829C87.02 71.829 89.047 69.8018 89.047 67.301V38.21Z" stroke="#83DC79" stroke-width="4" stroke-miterlimit="10" stroke-linecap="round" stroke-linejoin="round"/>
<path d="M12.809 68.321C9.8056 66.9009 7.26746 64.6567 5.49014 61.8499C3.71283 59.0431 2.76949 55.7892 2.76999 52.467C2.76957 49.1049 3.73562 45.8135 5.55307 42.9849C7.37052 40.1564 9.9628 37.9098 13.021 36.513" stroke="#83DC79" stroke-width="4" stroke-miterlimit="10" stroke-linecap="round" stroke-linejoin="round"/>
<path d="M89.225 68.321C92.2283 66.9008 94.7663 64.6567 96.5435 61.8499C98.3206 59.0431 99.2638 55.7891 99.2631 52.467C99.2637 49.1048 98.2978 45.8133 96.4803 42.9847C94.6628 40.1561 92.0704 37.9096 89.012 36.513" stroke="#83DC79" stroke-width="4" stroke-miterlimit="10" stroke-linecap="round" stroke-linejoin="round"/>
<path d="M17.751 33.675C18.3625 25.1217 22.1916 17.1177 28.4675 11.2744C34.7434 5.43097 42.9999 2.18212 51.575 2.18195C60.1522 2.18212 68.4107 5.43273 74.687 11.2789C80.9633 17.125 84.7909 25.1323 85.399 33.6879" stroke="#83DC79" stroke-width="4" stroke-miterlimit="10" stroke-linecap="round" stroke-linejoin="round"/>
<path d="M85.483 72.214C85.4831 74.1748 85.097 76.1164 84.3467 77.928C83.5964 79.7396 82.4966 81.3856 81.1101 82.7721C79.7236 84.1586 78.0776 85.2584 76.266 86.0087C74.4545 86.759 72.5128 87.1452 70.552 87.145H62.517" stroke="#83DC79" stroke-width="4" stroke-miterlimit="10" stroke-linecap="round" stroke-linejoin="round"/>
<path d="M58.317 83.003H46.95C44.6625 83.003 42.808 84.8574 42.808 87.145C42.808 89.4326 44.6625 91.287 46.95 91.287H58.317C60.6046 91.287 62.459 89.4326 62.459 87.145C62.459 84.8574 60.6046 83.003 58.317 83.003Z" stroke="#83DC79" stroke-width="4" stroke-miterlimit="10" stroke-linecap="round" stroke-linejoin="round"/>
</svg>
