<svg width="705" height="489" viewBox="0 0 705 489" fill="none" xmlns="http://www.w3.org/2000/svg">
    <g filter="url(#filter0_d)">
        <path opacity="0.75" d="M40 25H665C668.978 25 672.794 26.5804 675.607 29.3934C678.42 32.2064 680 36.0218 680 40V449C680 452.978 678.42 456.794 675.607 459.607C672.794 462.42 668.978 464 665 464H40C36.0218 464 32.2064 462.42 29.3934 459.607C26.5804 456.794 25 452.978 25 449V40C25 36.0218 26.5804 32.2064 29.3934 29.3934C32.2064 26.5804 36.0218 25 40 25Z" fill="#1C232E"/>
    </g>
    <path d="M82.9272 82V73.4688H85.3354C86.0776 73.4688 86.7339 73.6328 87.3042 73.9609C87.8745 74.2891 88.314 74.7559 88.6226 75.3613C88.9351 75.9668 89.0933 76.6621 89.0972 77.4473V77.9922C89.0972 78.7969 88.9409 79.502 88.6284 80.1074C88.3198 80.7129 87.8765 81.1777 87.2983 81.502C86.7241 81.8262 86.0542 81.9922 85.2886 82H82.9272ZM84.0522 74.3945V81.0801H85.2358C86.103 81.0801 86.7769 80.8105 87.2573 80.2715C87.7417 79.7324 87.9839 78.9648 87.9839 77.9688V77.4707C87.9839 76.502 87.7554 75.75 87.2983 75.2148C86.8452 74.6758 86.2007 74.4023 85.3647 74.3945H84.0522ZM94.5464 82C94.4839 81.875 94.4331 81.6523 94.394 81.332C93.8901 81.8555 93.2886 82.1172 92.5894 82.1172C91.9644 82.1172 91.4507 81.9414 91.0483 81.5898C90.6499 81.2344 90.4507 80.7852 90.4507 80.2422C90.4507 79.582 90.7007 79.0703 91.2007 78.707C91.7046 78.3398 92.4116 78.1562 93.3218 78.1562H94.3765V77.6582C94.3765 77.2793 94.2632 76.9785 94.0366 76.7559C93.8101 76.5293 93.4761 76.416 93.0347 76.416C92.6479 76.416 92.3237 76.5137 92.062 76.709C91.8003 76.9043 91.6694 77.1406 91.6694 77.418H90.5796C90.5796 77.1016 90.6909 76.7969 90.9136 76.5039C91.1401 76.207 91.4448 75.9727 91.8276 75.8008C92.2144 75.6289 92.6382 75.543 93.0991 75.543C93.8296 75.543 94.4019 75.7266 94.8159 76.0938C95.23 76.457 95.4448 76.959 95.4604 77.5996V80.5176C95.4604 81.0996 95.5347 81.5625 95.6831 81.9062V82H94.5464ZM92.7476 81.1738C93.0874 81.1738 93.4097 81.0859 93.7144 80.9102C94.019 80.7344 94.2397 80.5059 94.3765 80.2246V78.9238H93.5269C92.1987 78.9238 91.5347 79.3125 91.5347 80.0898C91.5347 80.4297 91.6479 80.6953 91.8745 80.8867C92.1011 81.0781 92.3921 81.1738 92.7476 81.1738ZM100.851 80.3184C100.851 80.0254 100.74 79.7988 100.517 79.6387C100.298 79.4746 99.9136 79.334 99.3628 79.2168C98.8159 79.0996 98.3804 78.959 98.0562 78.7949C97.7358 78.6309 97.4976 78.4355 97.3413 78.209C97.189 77.9824 97.1128 77.7129 97.1128 77.4004C97.1128 76.8809 97.3315 76.4414 97.769 76.082C98.2104 75.7227 98.7729 75.543 99.4565 75.543C100.175 75.543 100.757 75.7285 101.203 76.0996C101.652 76.4707 101.876 76.9453 101.876 77.5234H100.787C100.787 77.2266 100.66 76.9707 100.406 76.7559C100.156 76.541 99.8394 76.4336 99.4565 76.4336C99.062 76.4336 98.7534 76.5195 98.5308 76.6914C98.3081 76.8633 98.1968 77.0879 98.1968 77.3652C98.1968 77.627 98.3003 77.8242 98.5073 77.957C98.7144 78.0898 99.0874 78.2168 99.6265 78.3379C100.169 78.459 100.609 78.6035 100.945 78.7715C101.281 78.9395 101.529 79.1426 101.689 79.3809C101.853 79.6152 101.935 79.9023 101.935 80.2422C101.935 80.8086 101.708 81.2637 101.255 81.6074C100.802 81.9473 100.214 82.1172 99.4917 82.1172C98.9839 82.1172 98.5347 82.0273 98.144 81.8477C97.7534 81.668 97.4468 81.418 97.2241 81.0977C97.0054 80.7734 96.896 80.4238 96.896 80.0488H97.98C97.9995 80.4121 98.144 80.7012 98.4136 80.916C98.687 81.127 99.0464 81.2324 99.4917 81.2324C99.9019 81.2324 100.23 81.1504 100.476 80.9863C100.726 80.8184 100.851 80.5957 100.851 80.3184ZM104.431 76.4277C104.912 75.8379 105.537 75.543 106.306 75.543C107.646 75.543 108.322 76.2988 108.333 77.8105V82H107.25V77.8047C107.246 77.3477 107.14 77.0098 106.933 76.791C106.73 76.5723 106.412 76.4629 105.978 76.4629C105.626 76.4629 105.318 76.5566 105.052 76.7441C104.787 76.9316 104.58 77.1777 104.431 77.4824V82H103.347V73H104.431V76.4277ZM115.324 78.9004C115.324 79.8691 115.101 80.6484 114.656 81.2383C114.21 81.8242 113.613 82.1172 112.863 82.1172C112.062 82.1172 111.443 81.834 111.005 81.2676L110.953 82H109.957V73H111.041V76.3574C111.478 75.8145 112.082 75.543 112.851 75.543C113.621 75.543 114.224 75.834 114.662 76.416C115.103 76.998 115.324 77.7949 115.324 78.8066V78.9004ZM114.24 78.7773C114.24 78.0391 114.097 77.4688 113.812 77.0664C113.527 76.6641 113.117 76.4629 112.582 76.4629C111.867 76.4629 111.353 76.7949 111.041 77.459V80.2012C111.373 80.8652 111.89 81.1973 112.593 81.1973C113.113 81.1973 113.517 80.9961 113.806 80.5938C114.095 80.1914 114.24 79.5859 114.24 78.7773ZM116.408 78.7715C116.408 78.1504 116.529 77.5918 116.771 77.0957C117.017 76.5996 117.357 76.2168 117.791 75.9473C118.228 75.6777 118.726 75.543 119.285 75.543C120.148 75.543 120.845 75.8418 121.376 76.4395C121.912 77.0371 122.179 77.832 122.179 78.8242V78.9004C122.179 79.5176 122.06 80.0723 121.822 80.5645C121.587 81.0527 121.25 81.4336 120.808 81.707C120.371 81.9805 119.867 82.1172 119.296 82.1172C118.437 82.1172 117.74 81.8184 117.205 81.2207C116.673 80.623 116.408 79.832 116.408 78.8477V78.7715ZM117.498 78.9004C117.498 79.6035 117.66 80.168 117.984 80.5938C118.312 81.0195 118.75 81.2324 119.296 81.2324C119.847 81.2324 120.285 81.0176 120.609 80.5879C120.933 80.1543 121.095 79.5488 121.095 78.7715C121.095 78.0762 120.929 77.5137 120.597 77.084C120.269 76.6504 119.832 76.4336 119.285 76.4336C118.75 76.4336 118.318 76.6465 117.99 77.0723C117.662 77.498 117.498 78.1074 117.498 78.9004ZM127.453 82C127.39 81.875 127.339 81.6523 127.3 81.332C126.796 81.8555 126.195 82.1172 125.496 82.1172C124.871 82.1172 124.357 81.9414 123.955 81.5898C123.556 81.2344 123.357 80.7852 123.357 80.2422C123.357 79.582 123.607 79.0703 124.107 78.707C124.611 78.3398 125.318 78.1562 126.228 78.1562H127.283V77.6582C127.283 77.2793 127.169 76.9785 126.943 76.7559C126.716 76.5293 126.382 76.416 125.941 76.416C125.554 76.416 125.23 76.5137 124.968 76.709C124.707 76.9043 124.576 77.1406 124.576 77.418H123.486C123.486 77.1016 123.597 76.7969 123.82 76.5039C124.046 76.207 124.351 75.9727 124.734 75.8008C125.121 75.6289 125.544 75.543 126.005 75.543C126.736 75.543 127.308 75.7266 127.722 76.0938C128.136 76.457 128.351 76.959 128.367 77.5996V80.5176C128.367 81.0996 128.441 81.5625 128.589 81.9062V82H127.453ZM125.654 81.1738C125.994 81.1738 126.316 81.0859 126.621 80.9102C126.925 80.7344 127.146 80.5059 127.283 80.2246V78.9238H126.433C125.105 78.9238 124.441 79.3125 124.441 80.0898C124.441 80.4297 124.554 80.6953 124.781 80.8867C125.007 81.0781 125.298 81.1738 125.654 81.1738ZM133.13 76.6328C132.966 76.6055 132.789 76.5918 132.597 76.5918C131.886 76.5918 131.404 76.8945 131.15 77.5V82H130.066V75.6602H131.121L131.138 76.3926C131.494 75.8262 131.998 75.543 132.65 75.543C132.861 75.543 133.021 75.5703 133.13 75.625V76.6328ZM133.751 78.7773C133.751 77.8047 133.982 77.0234 134.443 76.4336C134.904 75.8398 135.507 75.543 136.253 75.543C136.996 75.543 137.583 75.7969 138.017 76.3047V73H139.101V82H138.105L138.052 81.3203C137.619 81.8516 137.015 82.1172 136.242 82.1172C135.507 82.1172 134.908 81.8164 134.443 81.2148C133.982 80.6133 133.751 79.8281 133.751 78.8594V78.7773ZM134.835 78.9004C134.835 79.6191 134.984 80.1816 135.281 80.5879C135.578 80.9941 135.988 81.1973 136.511 81.1973C137.199 81.1973 137.701 80.8887 138.017 80.2715V77.3594C137.693 76.7617 137.195 76.4629 136.523 76.4629C135.992 76.4629 135.578 76.668 135.281 77.0781C134.984 77.4883 134.835 78.0957 134.835 78.9004Z" fill="white"/>
    <path d="M162.131 78.6602V82H161.006V73.4688H164.153C165.086 73.4688 165.817 73.707 166.344 74.1836C166.875 74.6602 167.141 75.291 167.141 76.0762C167.141 76.9043 166.881 77.543 166.362 77.9922C165.846 78.4375 165.106 78.6602 164.141 78.6602H162.131ZM162.131 77.7402H164.153C164.754 77.7402 165.215 77.5996 165.536 77.3184C165.856 77.0332 166.016 76.623 166.016 76.0879C166.016 75.5801 165.856 75.1738 165.536 74.8691C165.215 74.5645 164.776 74.4062 164.217 74.3945H162.131V77.7402ZM171.471 76.6328C171.307 76.6055 171.129 76.5918 170.938 76.5918C170.227 76.5918 169.745 76.8945 169.491 77.5V82H168.407V75.6602H169.461L169.479 76.3926C169.834 75.8262 170.338 75.543 170.991 75.543C171.202 75.543 171.362 75.5703 171.471 75.625V76.6328ZM172.069 78.7715C172.069 78.1504 172.19 77.5918 172.432 77.0957C172.678 76.5996 173.018 76.2168 173.452 75.9473C173.889 75.6777 174.387 75.543 174.946 75.543C175.809 75.543 176.506 75.8418 177.037 76.4395C177.573 77.0371 177.84 77.832 177.84 78.8242V78.9004C177.84 79.5176 177.721 80.0723 177.483 80.5645C177.248 81.0527 176.911 81.4336 176.469 81.707C176.032 81.9805 175.528 82.1172 174.957 82.1172C174.098 82.1172 173.401 81.8184 172.866 81.2207C172.334 80.623 172.069 79.832 172.069 78.8477V78.7715ZM173.159 78.9004C173.159 79.6035 173.321 80.168 173.645 80.5938C173.973 81.0195 174.411 81.2324 174.957 81.2324C175.508 81.2324 175.946 81.0176 176.27 80.5879C176.594 80.1543 176.756 79.5488 176.756 78.7715C176.756 78.0762 176.59 77.5137 176.258 77.084C175.93 76.6504 175.493 76.4336 174.946 76.4336C174.411 76.4336 173.979 76.6465 173.651 77.0723C173.323 77.498 173.159 78.1074 173.159 78.9004ZM180.319 75.6602V82.7324C180.319 83.9512 179.766 84.5605 178.661 84.5605C178.422 84.5605 178.202 84.5254 177.998 84.4551V83.5879C178.123 83.6191 178.287 83.6348 178.491 83.6348C178.733 83.6348 178.916 83.5684 179.041 83.4355C179.17 83.3066 179.235 83.0801 179.235 82.7559V75.6602H180.319ZM179.123 73.9785C179.123 73.8066 179.176 73.6602 179.282 73.5391C179.391 73.4141 179.549 73.3516 179.756 73.3516C179.967 73.3516 180.127 73.4121 180.237 73.5332C180.346 73.6543 180.401 73.8027 180.401 73.9785C180.401 74.1543 180.346 74.3008 180.237 74.418C180.127 74.5352 179.967 74.5938 179.756 74.5938C179.545 74.5938 179.387 74.5352 179.282 74.418C179.176 74.3008 179.123 74.1543 179.123 73.9785ZM184.702 82.1172C183.842 82.1172 183.143 81.8359 182.604 81.2734C182.065 80.707 181.795 79.9512 181.795 79.0059V78.8066C181.795 78.1777 181.914 77.6172 182.153 77.125C182.395 76.6289 182.731 76.2422 183.161 75.9648C183.594 75.6836 184.063 75.543 184.567 75.543C185.391 75.543 186.032 75.8145 186.489 76.3574C186.946 76.9004 187.174 77.6777 187.174 78.6895V79.1406H182.879C182.895 79.7656 183.077 80.2715 183.424 80.6582C183.776 81.041 184.221 81.2324 184.76 81.2324C185.143 81.2324 185.467 81.1543 185.733 80.998C185.998 80.8418 186.231 80.6348 186.43 80.377L187.092 80.8926C186.561 81.709 185.764 82.1172 184.702 82.1172ZM184.567 76.4336C184.129 76.4336 183.762 76.5938 183.465 76.9141C183.168 77.2305 182.985 77.6758 182.914 78.25H186.09V78.168C186.059 77.6172 185.911 77.1914 185.645 76.8906C185.379 76.5859 185.02 76.4336 184.567 76.4336ZM190.977 81.2324C191.364 81.2324 191.702 81.1152 191.991 80.8809C192.28 80.6465 192.44 80.3535 192.471 80.002H193.496C193.477 80.3652 193.352 80.7109 193.121 81.0391C192.891 81.3672 192.582 81.6289 192.196 81.8242C191.813 82.0195 191.407 82.1172 190.977 82.1172C190.114 82.1172 189.426 81.8301 188.914 81.2559C188.407 80.6777 188.153 79.8887 188.153 78.8887V78.707C188.153 78.0898 188.266 77.541 188.493 77.0605C188.719 76.5801 189.043 76.207 189.465 75.9414C189.891 75.6758 190.393 75.543 190.971 75.543C191.682 75.543 192.272 75.7559 192.741 76.1816C193.213 76.6074 193.465 77.1602 193.496 77.8398H192.471C192.44 77.4297 192.284 77.0938 192.002 76.832C191.725 76.5664 191.381 76.4336 190.971 76.4336C190.42 76.4336 189.993 76.6328 189.688 77.0312C189.387 77.4258 189.237 77.998 189.237 78.748V78.9531C189.237 79.6836 189.387 80.2461 189.688 80.6406C189.989 81.0352 190.418 81.2324 190.977 81.2324ZM196.186 74.125V75.6602H197.37V76.498H196.186V80.4297C196.186 80.6836 196.239 80.875 196.344 81.0039C196.45 81.1289 196.629 81.1914 196.883 81.1914C197.008 81.1914 197.18 81.168 197.399 81.1211V82C197.114 82.0781 196.836 82.1172 196.567 82.1172C196.082 82.1172 195.717 81.9707 195.471 81.6777C195.225 81.3848 195.102 80.9688 195.102 80.4297V76.498H193.948V75.6602H195.102V74.125H196.186ZM202.332 80.3184C202.332 80.0254 202.221 79.7988 201.998 79.6387C201.78 79.4746 201.395 79.334 200.844 79.2168C200.297 79.0996 199.862 78.959 199.537 78.7949C199.217 78.6309 198.979 78.4355 198.823 78.209C198.67 77.9824 198.594 77.7129 198.594 77.4004C198.594 76.8809 198.813 76.4414 199.25 76.082C199.692 75.7227 200.254 75.543 200.938 75.543C201.657 75.543 202.239 75.7285 202.684 76.0996C203.133 76.4707 203.358 76.9453 203.358 77.5234H202.268C202.268 77.2266 202.141 76.9707 201.887 76.7559C201.637 76.541 201.321 76.4336 200.938 76.4336C200.543 76.4336 200.235 76.5195 200.012 76.6914C199.789 76.8633 199.678 77.0879 199.678 77.3652C199.678 77.627 199.782 77.8242 199.989 77.957C200.196 78.0898 200.569 78.2168 201.108 78.3379C201.651 78.459 202.09 78.6035 202.426 78.7715C202.762 78.9395 203.01 79.1426 203.17 79.3809C203.334 79.6152 203.416 79.9023 203.416 80.2422C203.416 80.8086 203.19 81.2637 202.737 81.6074C202.284 81.9473 201.696 82.1172 200.973 82.1172C200.465 82.1172 200.016 82.0273 199.625 81.8477C199.235 81.668 198.928 81.418 198.705 81.0977C198.487 80.7734 198.377 80.4238 198.377 80.0488H199.461C199.481 80.4121 199.625 80.7012 199.895 80.916C200.168 81.127 200.528 81.2324 200.973 81.2324C201.383 81.2324 201.711 81.1504 201.957 80.9863C202.207 80.8184 202.332 80.5957 202.332 80.3184Z" fill="white"/>
    <path d="M225.798 82H224.673V73.4688H225.798V82ZM231.382 80.3184C231.382 80.0254 231.271 79.7988 231.048 79.6387C230.83 79.4746 230.445 79.334 229.894 79.2168C229.347 79.0996 228.912 78.959 228.587 78.7949C228.267 78.6309 228.029 78.4355 227.872 78.209C227.72 77.9824 227.644 77.7129 227.644 77.4004C227.644 76.8809 227.863 76.4414 228.3 76.082C228.742 75.7227 229.304 75.543 229.988 75.543C230.706 75.543 231.289 75.7285 231.734 76.0996C232.183 76.4707 232.408 76.9453 232.408 77.5234H231.318C231.318 77.2266 231.191 76.9707 230.937 76.7559C230.687 76.541 230.371 76.4336 229.988 76.4336C229.593 76.4336 229.285 76.5195 229.062 76.6914C228.839 76.8633 228.728 77.0879 228.728 77.3652C228.728 77.627 228.831 77.8242 229.039 77.957C229.246 78.0898 229.619 78.2168 230.158 78.3379C230.701 78.459 231.14 78.6035 231.476 78.7715C231.812 78.9395 232.06 79.1426 232.22 79.3809C232.384 79.6152 232.466 79.9023 232.466 80.2422C232.466 80.8086 232.24 81.2637 231.787 81.6074C231.333 81.9473 230.746 82.1172 230.023 82.1172C229.515 82.1172 229.066 82.0273 228.675 81.8477C228.285 81.668 227.978 81.418 227.755 81.0977C227.537 80.7734 227.427 80.4238 227.427 80.0488H228.511C228.531 80.4121 228.675 80.7012 228.945 80.916C229.218 81.127 229.578 81.2324 230.023 81.2324C230.433 81.2324 230.761 81.1504 231.007 80.9863C231.257 80.8184 231.382 80.5957 231.382 80.3184ZM237.57 80.3184C237.57 80.0254 237.458 79.7988 237.236 79.6387C237.017 79.4746 236.632 79.334 236.081 79.2168C235.535 79.0996 235.099 78.959 234.775 78.7949C234.455 78.6309 234.216 78.4355 234.06 78.209C233.908 77.9824 233.831 77.7129 233.831 77.4004C233.831 76.8809 234.05 76.4414 234.488 76.082C234.929 75.7227 235.492 75.543 236.175 75.543C236.894 75.543 237.476 75.7285 237.921 76.0996C238.371 76.4707 238.595 76.9453 238.595 77.5234H237.505C237.505 77.2266 237.378 76.9707 237.124 76.7559C236.874 76.541 236.558 76.4336 236.175 76.4336C235.781 76.4336 235.472 76.5195 235.249 76.6914C235.027 76.8633 234.915 77.0879 234.915 77.3652C234.915 77.627 235.019 77.8242 235.226 77.957C235.433 78.0898 235.806 78.2168 236.345 78.3379C236.888 78.459 237.328 78.6035 237.664 78.7715C237.999 78.9395 238.247 79.1426 238.408 79.3809C238.572 79.6152 238.654 79.9023 238.654 80.2422C238.654 80.8086 238.427 81.2637 237.974 81.6074C237.521 81.9473 236.933 82.1172 236.21 82.1172C235.703 82.1172 235.253 82.0273 234.863 81.8477C234.472 81.668 234.165 81.418 233.943 81.0977C233.724 80.7734 233.615 80.4238 233.615 80.0488H234.699C234.718 80.4121 234.863 80.7012 235.132 80.916C235.406 81.127 235.765 81.2324 236.21 81.2324C236.621 81.2324 236.949 81.1504 237.195 80.9863C237.445 80.8184 237.57 80.5957 237.57 80.3184ZM243.98 81.373C243.558 81.8691 242.939 82.1172 242.122 82.1172C241.447 82.1172 240.931 81.9219 240.576 81.5312C240.224 81.1367 240.046 80.5547 240.042 79.7852V75.6602H241.126V79.7559C241.126 80.7168 241.517 81.1973 242.298 81.1973C243.126 81.1973 243.677 80.8887 243.951 80.2715V75.6602H245.035V82H244.003L243.98 81.373ZM249.318 82.1172C248.458 82.1172 247.759 81.8359 247.22 81.2734C246.681 80.707 246.412 79.9512 246.412 79.0059V78.8066C246.412 78.1777 246.531 77.6172 246.769 77.125C247.011 76.6289 247.347 76.2422 247.777 75.9648C248.21 75.6836 248.679 75.543 249.183 75.543C250.007 75.543 250.648 75.8145 251.105 76.3574C251.562 76.9004 251.79 77.6777 251.79 78.6895V79.1406H247.496C247.511 79.7656 247.693 80.2715 248.04 80.6582C248.392 81.041 248.837 81.2324 249.376 81.2324C249.759 81.2324 250.083 81.1543 250.349 80.998C250.615 80.8418 250.847 80.6348 251.046 80.377L251.708 80.8926C251.177 81.709 250.38 82.1172 249.318 82.1172ZM249.183 76.4336C248.746 76.4336 248.378 76.5938 248.081 76.9141C247.785 77.2305 247.601 77.6758 247.531 78.25H250.706V78.168C250.675 77.6172 250.527 77.1914 250.261 76.8906C249.996 76.5859 249.636 76.4336 249.183 76.4336ZM256.742 80.3184C256.742 80.0254 256.63 79.7988 256.408 79.6387C256.189 79.4746 255.804 79.334 255.253 79.2168C254.706 79.0996 254.271 78.959 253.947 78.7949C253.626 78.6309 253.388 78.4355 253.232 78.209C253.08 77.9824 253.003 77.7129 253.003 77.4004C253.003 76.8809 253.222 76.4414 253.66 76.082C254.101 75.7227 254.664 75.543 255.347 75.543C256.066 75.543 256.648 75.7285 257.093 76.0996C257.542 76.4707 257.767 76.9453 257.767 77.5234H256.677C256.677 77.2266 256.55 76.9707 256.296 76.7559C256.046 76.541 255.73 76.4336 255.347 76.4336C254.953 76.4336 254.644 76.5195 254.421 76.6914C254.199 76.8633 254.087 77.0879 254.087 77.3652C254.087 77.627 254.191 77.8242 254.398 77.957C254.605 78.0898 254.978 78.2168 255.517 78.3379C256.06 78.459 256.499 78.6035 256.835 78.7715C257.171 78.9395 257.419 79.1426 257.58 79.3809C257.744 79.6152 257.826 79.9023 257.826 80.2422C257.826 80.8086 257.599 81.2637 257.146 81.6074C256.693 81.9473 256.105 82.1172 255.382 82.1172C254.874 82.1172 254.425 82.0273 254.035 81.8477C253.644 81.668 253.337 81.418 253.115 81.0977C252.896 80.7734 252.787 80.4238 252.787 80.0488H253.871C253.89 80.4121 254.035 80.7012 254.304 80.916C254.578 81.127 254.937 81.2324 255.382 81.2324C255.792 81.2324 256.121 81.1504 256.367 80.9863C256.617 80.8184 256.742 80.5957 256.742 80.3184Z" fill="white"/>
    <path d="M284.33 79.7734H280.756L279.953 82H278.793L282.051 73.4688H283.035L286.299 82H285.145L284.33 79.7734ZM281.096 78.8477H283.996L282.543 74.8574L281.096 78.8477ZM287.02 78.7773C287.02 77.7891 287.248 77.0039 287.705 76.4219C288.162 75.8359 288.768 75.543 289.522 75.543C290.295 75.543 290.899 75.8164 291.332 76.3633L291.385 75.6602H292.375V81.8477C292.375 82.668 292.131 83.3145 291.643 83.7871C291.158 84.2598 290.506 84.4961 289.686 84.4961C289.229 84.4961 288.781 84.3984 288.344 84.2031C287.906 84.0078 287.572 83.7402 287.342 83.4004L287.904 82.75C288.369 83.3242 288.938 83.6113 289.609 83.6113C290.137 83.6113 290.547 83.4629 290.84 83.166C291.137 82.8691 291.285 82.4512 291.285 81.9121V81.3672C290.852 81.8672 290.26 82.1172 289.51 82.1172C288.768 82.1172 288.166 81.8184 287.705 81.2207C287.248 80.623 287.02 79.8086 287.02 78.7773ZM288.109 78.9004C288.109 79.6152 288.256 80.1777 288.549 80.5879C288.842 80.9941 289.252 81.1973 289.779 81.1973C290.463 81.1973 290.965 80.8867 291.285 80.2656V77.3711C290.953 76.7656 290.455 76.4629 289.791 76.4629C289.264 76.4629 288.852 76.668 288.555 77.0781C288.258 77.4883 288.109 78.0957 288.109 78.9004ZM295.193 82H294.109V75.6602H295.193V82ZM294.022 73.9785C294.022 73.8027 294.074 73.6543 294.18 73.5332C294.289 73.4121 294.449 73.3516 294.66 73.3516C294.871 73.3516 295.031 73.4121 295.141 73.5332C295.25 73.6543 295.305 73.8027 295.305 73.9785C295.305 74.1543 295.25 74.3008 295.141 74.418C295.031 74.5352 294.871 74.5938 294.66 74.5938C294.449 74.5938 294.289 74.5352 294.18 74.418C294.074 74.3008 294.022 74.1543 294.022 73.9785ZM298.111 82H297.027V73H298.111V82ZM302.483 82.1172C301.623 82.1172 300.924 81.8359 300.385 81.2734C299.846 80.707 299.576 79.9512 299.576 79.0059V78.8066C299.576 78.1777 299.695 77.6172 299.934 77.125C300.176 76.6289 300.512 76.2422 300.942 75.9648C301.375 75.6836 301.844 75.543 302.348 75.543C303.172 75.543 303.813 75.8145 304.27 76.3574C304.727 76.9004 304.955 77.6777 304.955 78.6895V79.1406H300.66C300.676 79.7656 300.858 80.2715 301.205 80.6582C301.557 81.041 302.002 81.2324 302.541 81.2324C302.924 81.2324 303.248 81.1543 303.514 80.998C303.779 80.8418 304.012 80.6348 304.211 80.377L304.873 80.8926C304.342 81.709 303.545 82.1172 302.483 82.1172ZM302.348 76.4336C301.91 76.4336 301.543 76.5938 301.246 76.9141C300.949 77.2305 300.766 77.6758 300.695 78.25H303.871V78.168C303.84 77.6172 303.692 77.1914 303.426 76.8906C303.16 76.5859 302.801 76.4336 302.348 76.4336Z" fill="white"/>
    <path opacity="0.25" d="M595 63H437C429.268 63 423 69.268 423 77C423 84.732 429.268 91 437 91H595C602.732 91 609 84.732 609 77C609 69.268 602.732 63 595 63Z" fill="black"/>
    <path opacity="0.25" d="M441.082 76.1973C440.117 75.9199 439.414 75.5801 438.973 75.1777C438.535 74.7715 438.316 74.2715 438.316 73.6777C438.316 73.0059 438.584 72.4512 439.119 72.0137C439.658 71.5723 440.357 71.3516 441.217 71.3516C441.803 71.3516 442.324 71.4648 442.781 71.6914C443.242 71.918 443.598 72.2305 443.848 72.6289C444.101 73.0273 444.228 73.4629 444.228 73.9355H443.098C443.098 73.4199 442.933 73.0156 442.605 72.7227C442.277 72.4258 441.814 72.2773 441.217 72.2773C440.662 72.2773 440.228 72.4004 439.916 72.6465C439.607 72.8887 439.453 73.2266 439.453 73.6602C439.453 74.0078 439.599 74.3027 439.892 74.5449C440.189 74.7832 440.691 75.002 441.398 75.2012C442.109 75.4004 442.664 75.6211 443.062 75.8633C443.465 76.1016 443.762 76.3809 443.953 76.7012C444.148 77.0215 444.246 77.3984 444.246 77.832C444.246 78.5234 443.976 79.0781 443.437 79.4961C442.898 79.9102 442.178 80.1172 441.275 80.1172C440.689 80.1172 440.142 80.0059 439.635 79.7832C439.127 79.5566 438.734 79.248 438.457 78.8574C438.183 78.4668 438.047 78.0234 438.047 77.5273H439.178C439.178 78.043 439.367 78.4512 439.746 78.752C440.129 79.0488 440.639 79.1973 441.275 79.1973C441.869 79.1973 442.324 79.0762 442.641 78.834C442.957 78.5918 443.115 78.2617 443.115 77.8438C443.115 77.4258 442.969 77.1035 442.676 76.877C442.383 76.6465 441.851 76.4199 441.082 76.1973ZM448.154 80.1172C447.295 80.1172 446.596 79.8359 446.057 79.2734C445.517 78.707 445.248 77.9512 445.248 77.0059V76.8066C445.248 76.1777 445.367 75.6172 445.605 75.125C445.848 74.6289 446.183 74.2422 446.613 73.9648C447.047 73.6836 447.516 73.543 448.019 73.543C448.844 73.543 449.484 73.8145 449.941 74.3574C450.398 74.9004 450.627 75.6777 450.627 76.6895V77.1406H446.332C446.348 77.7656 446.529 78.2715 446.877 78.6582C447.228 79.041 447.674 79.2324 448.213 79.2324C448.596 79.2324 448.92 79.1543 449.185 78.998C449.451 78.8418 449.683 78.6348 449.883 78.377L450.545 78.8926C450.014 79.709 449.217 80.1172 448.154 80.1172ZM448.019 74.4336C447.582 74.4336 447.215 74.5938 446.918 74.9141C446.621 75.2305 446.437 75.6758 446.367 76.25H449.543V76.168C449.512 75.6172 449.363 75.1914 449.098 74.8906C448.832 74.5859 448.473 74.4336 448.019 74.4336ZM455.801 80C455.738 79.875 455.687 79.6523 455.648 79.332C455.144 79.8555 454.543 80.1172 453.844 80.1172C453.219 80.1172 452.705 79.9414 452.303 79.5898C451.904 79.2344 451.705 78.7852 451.705 78.2422C451.705 77.582 451.955 77.0703 452.455 76.707C452.959 76.3398 453.666 76.1562 454.576 76.1562H455.631V75.6582C455.631 75.2793 455.517 74.9785 455.291 74.7559C455.064 74.5293 454.73 74.416 454.289 74.416C453.902 74.416 453.578 74.5137 453.316 74.709C453.055 74.9043 452.924 75.1406 452.924 75.418H451.834C451.834 75.1016 451.945 74.7969 452.168 74.5039C452.394 74.207 452.699 73.9727 453.082 73.8008C453.469 73.6289 453.892 73.543 454.353 73.543C455.084 73.543 455.656 73.7266 456.07 74.0938C456.484 74.457 456.699 74.959 456.715 75.5996V78.5176C456.715 79.0996 456.789 79.5625 456.937 79.9062V80H455.801ZM454.002 79.1738C454.342 79.1738 454.664 79.0859 454.969 78.9102C455.273 78.7344 455.494 78.5059 455.631 78.2246V76.9238H454.781C453.453 76.9238 452.789 77.3125 452.789 78.0898C452.789 78.4297 452.902 78.6953 453.129 78.8867C453.355 79.0781 453.646 79.1738 454.002 79.1738ZM461.478 74.6328C461.314 74.6055 461.137 74.5918 460.945 74.5918C460.234 74.5918 459.752 74.8945 459.498 75.5V80H458.414V73.6602H459.469L459.486 74.3926C459.842 73.8262 460.346 73.543 460.998 73.543C461.209 73.543 461.369 73.5703 461.478 73.625V74.6328ZM464.906 79.2324C465.293 79.2324 465.631 79.1152 465.92 78.8809C466.209 78.6465 466.369 78.3535 466.4 78.002H467.426C467.406 78.3652 467.281 78.7109 467.051 79.0391C466.82 79.3672 466.512 79.6289 466.125 79.8242C465.742 80.0195 465.336 80.1172 464.906 80.1172C464.043 80.1172 463.355 79.8301 462.844 79.2559C462.336 78.6777 462.082 77.8887 462.082 76.8887V76.707C462.082 76.0898 462.195 75.541 462.422 75.0605C462.648 74.5801 462.973 74.207 463.394 73.9414C463.82 73.6758 464.322 73.543 464.9 73.543C465.611 73.543 466.201 73.7559 466.67 74.1816C467.142 74.6074 467.394 75.1602 467.426 75.8398H466.4C466.369 75.4297 466.213 75.0938 465.932 74.832C465.654 74.5664 465.31 74.4336 464.9 74.4336C464.349 74.4336 463.922 74.6328 463.617 75.0312C463.316 75.4258 463.166 75.998 463.166 76.748V76.9531C463.166 77.6836 463.316 78.2461 463.617 78.6406C463.918 79.0352 464.348 79.2324 464.906 79.2324ZM469.728 74.4277C470.209 73.8379 470.834 73.543 471.603 73.543C472.943 73.543 473.619 74.2988 473.631 75.8105V80H472.547V75.8047C472.543 75.3477 472.437 75.0098 472.23 74.791C472.027 74.5723 471.709 74.4629 471.275 74.4629C470.924 74.4629 470.615 74.5566 470.349 74.7441C470.084 74.9316 469.877 75.1777 469.728 75.4824V80H468.644V71H469.728V74.4277Z" fill="white"/>
    <path opacity="0.25" d="M45 183H195V451H45C42.8783 451 40.8434 450.157 39.3431 448.657C37.8429 447.157 37 445.122 37 443V191C37 188.878 37.8429 186.843 39.3431 185.343C40.8434 183.843 42.8783 183 45 183V183Z" fill="black"/>
    <path d="M47.5 74H59.5" stroke="white" stroke-linecap="round"/>
    <path d="M47.5 78H59.5" stroke="white" stroke-linecap="round"/>
    <path d="M47.5 82H59.5" stroke="white" stroke-linecap="round"/>
    <path opacity="0.25" d="M352 183H197V451H352V183Z" fill="black"/>
    <path d="M86.3307 199.395H83.5886V207H82.4694V199.395H79.7331V198.469H86.3307V199.395ZM86.5534 203.771C86.5534 203.15 86.6745 202.592 86.9167 202.096C87.1628 201.6 87.5026 201.217 87.9362 200.947C88.3737 200.678 88.8718 200.543 89.4304 200.543C90.2936 200.543 90.9909 200.842 91.5222 201.439C92.0573 202.037 92.3249 202.832 92.3249 203.824V203.9C92.3249 204.518 92.2057 205.072 91.9675 205.564C91.7331 206.053 91.3952 206.434 90.9538 206.707C90.5163 206.98 90.0124 207.117 89.4421 207.117C88.5827 207.117 87.8854 206.818 87.3503 206.221C86.819 205.623 86.5534 204.832 86.5534 203.848V203.771ZM87.6432 203.9C87.6432 204.604 87.8054 205.168 88.1296 205.594C88.4577 206.02 88.8952 206.232 89.4421 206.232C89.9929 206.232 90.4304 206.018 90.7546 205.588C91.0788 205.154 91.2409 204.549 91.2409 203.771C91.2409 203.076 91.0749 202.514 90.7429 202.084C90.4147 201.65 89.9772 201.434 89.4304 201.434C88.8952 201.434 88.4636 201.646 88.1354 202.072C87.8073 202.498 87.6432 203.107 87.6432 203.9ZM96.8307 207V198.469H99.239C99.9811 198.469 100.637 198.633 101.208 198.961C101.778 199.289 102.217 199.756 102.526 200.361C102.839 200.967 102.997 201.662 103.001 202.447V202.992C103.001 203.797 102.844 204.502 102.532 205.107C102.223 205.713 101.78 206.178 101.202 206.502C100.628 206.826 99.9577 206.992 99.1921 207H96.8307ZM97.9557 199.395V206.08H99.1393C100.007 206.08 100.68 205.811 101.161 205.271C101.645 204.732 101.887 203.965 101.887 202.969V202.471C101.887 201.502 101.659 200.75 101.202 200.215C100.749 199.676 100.104 199.402 99.2682 199.395H97.9557ZM104.249 203.771C104.249 203.15 104.37 202.592 104.612 202.096C104.858 201.6 105.198 201.217 105.632 200.947C106.069 200.678 106.567 200.543 107.126 200.543C107.989 200.543 108.686 200.842 109.217 201.439C109.753 202.037 110.02 202.832 110.02 203.824V203.9C110.02 204.518 109.901 205.072 109.663 205.564C109.428 206.053 109.091 206.434 108.649 206.707C108.212 206.98 107.708 207.117 107.137 207.117C106.278 207.117 105.581 206.818 105.046 206.221C104.514 205.623 104.249 204.832 104.249 203.848V203.771ZM105.339 203.9C105.339 204.604 105.501 205.168 105.825 205.594C106.153 206.02 106.591 206.232 107.137 206.232C107.688 206.232 108.126 206.018 108.45 205.588C108.774 205.154 108.936 204.549 108.936 203.771C108.936 203.076 108.77 202.514 108.438 202.084C108.11 201.65 107.673 201.434 107.126 201.434C106.591 201.434 106.159 201.646 105.831 202.072C105.503 202.498 105.339 203.107 105.339 203.9Z" fill="white"/>
    <path d="M236.591 207H235.466V198.469H236.591V207ZM238.22 203.777C238.22 202.805 238.451 202.023 238.912 201.434C239.372 200.84 239.976 200.543 240.722 200.543C241.464 200.543 242.052 200.797 242.486 201.305V198H243.57V207H242.574L242.521 206.32C242.087 206.852 241.484 207.117 240.71 207.117C239.976 207.117 239.376 206.816 238.912 206.215C238.451 205.613 238.22 204.828 238.22 203.859V203.777ZM239.304 203.9C239.304 204.619 239.453 205.182 239.749 205.588C240.046 205.994 240.456 206.197 240.98 206.197C241.667 206.197 242.169 205.889 242.486 205.271V202.359C242.162 201.762 241.664 201.463 240.992 201.463C240.46 201.463 240.046 201.668 239.749 202.078C239.453 202.488 239.304 203.096 239.304 203.9ZM247.888 207.117C247.029 207.117 246.33 206.836 245.79 206.273C245.251 205.707 244.982 204.951 244.982 204.006V203.807C244.982 203.178 245.101 202.617 245.339 202.125C245.581 201.629 245.917 201.242 246.347 200.965C246.781 200.684 247.249 200.543 247.753 200.543C248.578 200.543 249.218 200.814 249.675 201.357C250.132 201.9 250.361 202.678 250.361 203.689V204.141H246.066C246.081 204.766 246.263 205.271 246.611 205.658C246.962 206.041 247.408 206.232 247.947 206.232C248.33 206.232 248.654 206.154 248.919 205.998C249.185 205.842 249.417 205.635 249.617 205.377L250.279 205.893C249.747 206.709 248.951 207.117 247.888 207.117ZM247.753 201.434C247.316 201.434 246.949 201.594 246.652 201.914C246.355 202.23 246.171 202.676 246.101 203.25H249.277V203.168C249.246 202.617 249.097 202.191 248.831 201.891C248.566 201.586 248.206 201.434 247.753 201.434ZM255.535 207C255.472 206.875 255.421 206.652 255.382 206.332C254.878 206.855 254.277 207.117 253.578 207.117C252.953 207.117 252.439 206.941 252.037 206.59C251.638 206.234 251.439 205.785 251.439 205.242C251.439 204.582 251.689 204.07 252.189 203.707C252.693 203.34 253.4 203.156 254.31 203.156H255.365V202.658C255.365 202.279 255.251 201.979 255.025 201.756C254.798 201.529 254.464 201.416 254.023 201.416C253.636 201.416 253.312 201.514 253.05 201.709C252.789 201.904 252.658 202.141 252.658 202.418H251.568C251.568 202.102 251.679 201.797 251.902 201.504C252.128 201.207 252.433 200.973 252.816 200.801C253.203 200.629 253.626 200.543 254.087 200.543C254.818 200.543 255.39 200.727 255.804 201.094C256.218 201.457 256.433 201.959 256.449 202.6V205.518C256.449 206.1 256.523 206.562 256.671 206.906V207H255.535ZM253.736 206.174C254.076 206.174 254.398 206.086 254.703 205.91C255.007 205.734 255.228 205.506 255.365 205.225V203.924H254.515C253.187 203.924 252.523 204.312 252.523 205.09C252.523 205.43 252.636 205.695 252.863 205.887C253.089 206.078 253.38 206.174 253.736 206.174ZM259.619 199.125V200.66H260.802V201.498H259.619V205.43C259.619 205.684 259.671 205.875 259.777 206.004C259.882 206.129 260.062 206.191 260.316 206.191C260.441 206.191 260.613 206.168 260.831 206.121V207C260.546 207.078 260.269 207.117 259.999 207.117C259.515 207.117 259.15 206.971 258.904 206.678C258.658 206.385 258.535 205.969 258.535 205.43V201.498H257.38V200.66H258.535V199.125H259.619ZM263.251 207H262.167V200.66H263.251V207ZM262.08 198.979C262.08 198.803 262.132 198.654 262.238 198.533C262.347 198.412 262.507 198.352 262.718 198.352C262.929 198.352 263.089 198.412 263.199 198.533C263.308 198.654 263.363 198.803 263.363 198.979C263.363 199.154 263.308 199.301 263.199 199.418C263.089 199.535 262.929 199.594 262.718 199.594C262.507 199.594 262.347 199.535 262.238 199.418C262.132 199.301 262.08 199.154 262.08 198.979ZM264.705 203.771C264.705 203.15 264.826 202.592 265.068 202.096C265.314 201.6 265.654 201.217 266.087 200.947C266.525 200.678 267.023 200.543 267.581 200.543C268.445 200.543 269.142 200.842 269.673 201.439C270.208 202.037 270.476 202.832 270.476 203.824V203.9C270.476 204.518 270.357 205.072 270.119 205.564C269.884 206.053 269.546 206.434 269.105 206.707C268.667 206.98 268.164 207.117 267.593 207.117C266.734 207.117 266.037 206.818 265.501 206.221C264.97 205.623 264.705 204.832 264.705 203.848V203.771ZM265.794 203.9C265.794 204.604 265.956 205.168 266.281 205.594C266.609 206.02 267.046 206.232 267.593 206.232C268.144 206.232 268.581 206.018 268.906 205.588C269.23 205.154 269.392 204.549 269.392 203.771C269.392 203.076 269.226 202.514 268.894 202.084C268.566 201.65 268.128 201.434 267.581 201.434C267.046 201.434 266.615 201.646 266.287 202.072C265.958 202.498 265.794 203.107 265.794 203.9ZM272.861 200.66L272.896 201.457C273.38 200.848 274.013 200.543 274.794 200.543C276.134 200.543 276.81 201.299 276.822 202.811V207H275.738V202.805C275.734 202.348 275.628 202.01 275.421 201.791C275.218 201.572 274.9 201.463 274.466 201.463C274.115 201.463 273.806 201.557 273.54 201.744C273.275 201.932 273.068 202.178 272.919 202.482V207H271.835V200.66H272.861Z" fill="white"/>
    <path opacity="0.25" d="M509 183H354V451H509V183Z" fill="black"/>
    <path d="M392.828 207H391.703V198.469H392.828V207ZM395.746 200.66L395.781 201.457C396.266 200.848 396.899 200.543 397.68 200.543C399.02 200.543 399.695 201.299 399.707 202.811V207H398.623V202.805C398.619 202.348 398.514 202.01 398.307 201.791C398.104 201.572 397.785 201.463 397.352 201.463C397 201.463 396.692 201.557 396.426 201.744C396.16 201.932 395.953 202.178 395.805 202.482V207H394.721V200.66H395.746ZM405.613 203.66V207H404.488V198.469H407.635C408.568 198.469 409.299 198.707 409.826 199.184C410.358 199.66 410.623 200.291 410.623 201.076C410.623 201.904 410.363 202.543 409.844 202.992C409.328 203.438 408.588 203.66 407.623 203.66H405.613ZM405.613 202.74H407.635C408.236 202.74 408.697 202.6 409.018 202.318C409.338 202.033 409.498 201.623 409.498 201.088C409.498 200.58 409.338 200.174 409.018 199.869C408.697 199.564 408.258 199.406 407.699 199.395H405.613V202.74ZM414.953 201.633C414.789 201.605 414.611 201.592 414.42 201.592C413.709 201.592 413.227 201.895 412.973 202.5V207H411.889V200.66H412.943L412.961 201.393C413.317 200.826 413.82 200.543 414.473 200.543C414.684 200.543 414.844 200.57 414.953 200.625V201.633ZM415.551 203.771C415.551 203.15 415.672 202.592 415.914 202.096C416.16 201.6 416.5 201.217 416.934 200.947C417.371 200.678 417.869 200.543 418.428 200.543C419.291 200.543 419.988 200.842 420.52 201.439C421.055 202.037 421.322 202.832 421.322 203.824V203.9C421.322 204.518 421.203 205.072 420.965 205.564C420.731 206.053 420.393 206.434 419.951 206.707C419.514 206.98 419.01 207.117 418.44 207.117C417.58 207.117 416.883 206.818 416.348 206.221C415.817 205.623 415.551 204.832 415.551 203.848V203.771ZM416.641 203.9C416.641 204.604 416.803 205.168 417.127 205.594C417.455 206.02 417.893 206.232 418.44 206.232C418.99 206.232 419.428 206.018 419.752 205.588C420.076 205.154 420.238 204.549 420.238 203.771C420.238 203.076 420.072 202.514 419.74 202.084C419.412 201.65 418.975 201.434 418.428 201.434C417.893 201.434 417.461 201.646 417.133 202.072C416.805 202.498 416.641 203.107 416.641 203.9ZM422.424 203.777C422.424 202.789 422.652 202.004 423.109 201.422C423.567 200.836 424.172 200.543 424.926 200.543C425.699 200.543 426.303 200.816 426.736 201.363L426.789 200.66H427.779V206.848C427.779 207.668 427.535 208.314 427.047 208.787C426.563 209.26 425.91 209.496 425.09 209.496C424.633 209.496 424.186 209.398 423.748 209.203C423.311 209.008 422.977 208.74 422.746 208.4L423.309 207.75C423.774 208.324 424.342 208.611 425.014 208.611C425.541 208.611 425.951 208.463 426.244 208.166C426.541 207.869 426.69 207.451 426.69 206.912V206.367C426.256 206.867 425.664 207.117 424.914 207.117C424.172 207.117 423.57 206.818 423.109 206.221C422.652 205.623 422.424 204.809 422.424 203.777ZM423.514 203.9C423.514 204.615 423.66 205.178 423.953 205.588C424.246 205.994 424.656 206.197 425.184 206.197C425.867 206.197 426.369 205.887 426.69 205.266V202.371C426.358 201.766 425.859 201.463 425.195 201.463C424.668 201.463 424.256 201.668 423.959 202.078C423.662 202.488 423.514 203.096 423.514 203.9ZM432.484 201.633C432.32 201.605 432.143 201.592 431.951 201.592C431.24 201.592 430.758 201.895 430.504 202.5V207H429.42V200.66H430.475L430.492 201.393C430.848 200.826 431.352 200.543 432.004 200.543C432.215 200.543 432.375 200.57 432.484 200.625V201.633ZM436 207.117C435.141 207.117 434.442 206.836 433.902 206.273C433.363 205.707 433.094 204.951 433.094 204.006V203.807C433.094 203.178 433.213 202.617 433.451 202.125C433.693 201.629 434.029 201.242 434.459 200.965C434.893 200.684 435.361 200.543 435.865 200.543C436.69 200.543 437.33 200.814 437.787 201.357C438.244 201.9 438.473 202.678 438.473 203.689V204.141H434.178C434.193 204.766 434.375 205.271 434.723 205.658C435.074 206.041 435.52 206.232 436.059 206.232C436.442 206.232 436.766 206.154 437.031 205.998C437.297 205.842 437.529 205.635 437.729 205.377L438.391 205.893C437.859 206.709 437.063 207.117 436 207.117ZM435.865 201.434C435.428 201.434 435.061 201.594 434.764 201.914C434.467 202.23 434.283 202.676 434.213 203.25H437.389V203.168C437.358 202.617 437.209 202.191 436.943 201.891C436.678 201.586 436.318 201.434 435.865 201.434ZM443.424 205.318C443.424 205.025 443.313 204.799 443.09 204.639C442.871 204.475 442.486 204.334 441.936 204.217C441.389 204.1 440.953 203.959 440.629 203.795C440.309 203.631 440.07 203.436 439.914 203.209C439.762 202.982 439.686 202.713 439.686 202.4C439.686 201.881 439.904 201.441 440.342 201.082C440.783 200.723 441.346 200.543 442.029 200.543C442.748 200.543 443.33 200.729 443.776 201.1C444.225 201.471 444.449 201.945 444.449 202.523H443.359C443.359 202.227 443.233 201.971 442.979 201.756C442.729 201.541 442.412 201.434 442.029 201.434C441.635 201.434 441.326 201.52 441.104 201.691C440.881 201.863 440.77 202.088 440.77 202.365C440.77 202.627 440.873 202.824 441.08 202.957C441.287 203.09 441.66 203.217 442.199 203.338C442.742 203.459 443.182 203.604 443.518 203.771C443.854 203.939 444.102 204.143 444.262 204.381C444.426 204.615 444.508 204.902 444.508 205.242C444.508 205.809 444.281 206.264 443.828 206.607C443.375 206.947 442.787 207.117 442.065 207.117C441.557 207.117 441.108 207.027 440.717 206.848C440.326 206.668 440.02 206.418 439.797 206.098C439.578 205.773 439.469 205.424 439.469 205.049H440.553C440.572 205.412 440.717 205.701 440.986 205.916C441.26 206.127 441.619 206.232 442.065 206.232C442.475 206.232 442.803 206.15 443.049 205.986C443.299 205.818 443.424 205.596 443.424 205.318ZM449.611 205.318C449.611 205.025 449.5 204.799 449.277 204.639C449.059 204.475 448.674 204.334 448.123 204.217C447.576 204.1 447.141 203.959 446.817 203.795C446.496 203.631 446.258 203.436 446.102 203.209C445.949 202.982 445.873 202.713 445.873 202.4C445.873 201.881 446.092 201.441 446.529 201.082C446.971 200.723 447.533 200.543 448.217 200.543C448.936 200.543 449.518 200.729 449.963 201.1C450.412 201.471 450.637 201.945 450.637 202.523H449.547C449.547 202.227 449.42 201.971 449.166 201.756C448.916 201.541 448.6 201.434 448.217 201.434C447.822 201.434 447.514 201.52 447.291 201.691C447.068 201.863 446.957 202.088 446.957 202.365C446.957 202.627 447.061 202.824 447.268 202.957C447.475 203.09 447.848 203.217 448.387 203.338C448.93 203.459 449.369 203.604 449.705 203.771C450.041 203.939 450.289 204.143 450.449 204.381C450.613 204.615 450.695 204.902 450.695 205.242C450.695 205.809 450.469 206.264 450.016 206.607C449.563 206.947 448.975 207.117 448.252 207.117C447.744 207.117 447.295 207.027 446.904 206.848C446.514 206.668 446.207 206.418 445.984 206.098C445.766 205.773 445.656 205.424 445.656 205.049H446.74C446.76 205.412 446.904 205.701 447.174 205.916C447.447 206.127 447.807 206.232 448.252 206.232C448.662 206.232 448.99 206.15 449.236 205.986C449.486 205.818 449.611 205.596 449.611 205.318Z" fill="white"/>
    <path opacity="0.25" d="M511 183H662C664.122 183 666.157 183.843 667.657 185.343C669.157 186.843 670 188.878 670 191V443C670 445.122 669.157 447.157 667.657 448.657C666.157 450.157 664.122 451 662 451H511V183Z" fill="black"/>
    <path d="M548.144 207V198.469H550.552C551.295 198.469 551.951 198.633 552.521 198.961C553.092 199.289 553.531 199.756 553.84 200.361C554.152 200.967 554.31 201.662 554.314 202.447V202.992C554.314 203.797 554.158 204.502 553.845 205.107C553.537 205.713 553.094 206.178 552.515 206.502C551.941 206.826 551.271 206.992 550.506 207H548.144ZM549.269 199.395V206.08H550.453C551.32 206.08 551.994 205.811 552.474 205.271C552.959 204.732 553.201 203.965 553.201 202.969V202.471C553.201 201.502 552.972 200.75 552.515 200.215C552.062 199.676 551.418 199.402 550.582 199.395H549.269ZM555.562 203.771C555.562 203.15 555.683 202.592 555.926 202.096C556.172 201.6 556.511 201.217 556.945 200.947C557.383 200.678 557.881 200.543 558.439 200.543C559.302 200.543 560 200.842 560.531 201.439C561.066 202.037 561.334 202.832 561.334 203.824V203.9C561.334 204.518 561.215 205.072 560.976 205.564C560.742 206.053 560.404 206.434 559.963 206.707C559.525 206.98 559.021 207.117 558.451 207.117C557.592 207.117 556.894 206.818 556.359 206.221C555.828 205.623 555.562 204.832 555.562 203.848V203.771ZM556.652 203.9C556.652 204.604 556.814 205.168 557.138 205.594C557.467 206.02 557.904 206.232 558.451 206.232C559.002 206.232 559.439 206.018 559.763 205.588C560.088 205.154 560.25 204.549 560.25 203.771C560.25 203.076 560.084 202.514 559.752 202.084C559.424 201.65 558.986 201.434 558.439 201.434C557.904 201.434 557.472 201.646 557.144 202.072C556.816 202.498 556.652 203.107 556.652 203.9ZM563.719 200.66L563.754 201.457C564.238 200.848 564.871 200.543 565.652 200.543C566.992 200.543 567.668 201.299 567.679 202.811V207H566.595V202.805C566.592 202.348 566.486 202.01 566.279 201.791C566.076 201.572 565.758 201.463 565.324 201.463C564.972 201.463 564.664 201.557 564.398 201.744C564.133 201.932 563.926 202.178 563.777 202.482V207H562.693V200.66H563.719ZM571.945 207.117C571.086 207.117 570.386 206.836 569.847 206.273C569.308 205.707 569.039 204.951 569.039 204.006V203.807C569.039 203.178 569.158 202.617 569.396 202.125C569.638 201.629 569.974 201.242 570.404 200.965C570.838 200.684 571.306 200.543 571.81 200.543C572.635 200.543 573.275 200.814 573.732 201.357C574.189 201.9 574.418 202.678 574.418 203.689V204.141H570.123C570.138 204.766 570.32 205.271 570.668 205.658C571.019 206.041 571.465 206.232 572.004 206.232C572.386 206.232 572.711 206.154 572.976 205.998C573.242 205.842 573.474 205.635 573.674 205.377L574.336 205.893C573.804 206.709 573.008 207.117 571.945 207.117ZM571.81 201.434C571.373 201.434 571.006 201.594 570.709 201.914C570.412 202.23 570.228 202.676 570.158 203.25H573.334V203.168C573.302 202.617 573.154 202.191 572.888 201.891C572.623 201.586 572.263 201.434 571.81 201.434Z" fill="white"/>
    <path d="M186 247H48V304H186V247Z" fill="#222A36"/>
    <path d="M53 247H48V304H53V247Z" fill="#7F5CA6"/>
    <path d="M186 309H48V366H186V309Z" fill="#222A36"/>
    <path d="M53 309H48V366H53V309Z" fill="#83DC79"/>
    <path opacity="0.403" d="M147.5 319H64.5C63.1193 319 62 320.119 62 321.5C62 322.881 63.1193 324 64.5 324H147.5C148.881 324 150 322.881 150 321.5C150 320.119 148.881 319 147.5 319Z" fill="black"/>
    <path opacity="0.403" d="M117.5 329H64.5C63.1193 329 62 330.119 62 331.5C62 332.881 63.1193 334 64.5 334H117.5C118.881 334 120 332.881 120 331.5C120 330.119 118.881 329 117.5 329Z" fill="black"/>
    <path d="M343 247H205V304H343V247Z" fill="#222A36"/>
    <path d="M205 247H210V304H205V247Z" fill="#83DC79"/>
    <path d="M343 309H205V366H343V309Z" fill="#222A36"/>
    <path d="M210 309H205V366H210V309Z" fill="#7F5CA6"/>
    <path opacity="0.403" d="M315.5 319H220.5C219.119 319 218 320.119 218 321.5C218 322.881 219.119 324 220.5 324H315.5C316.881 324 318 322.881 318 321.5C318 320.119 316.881 319 315.5 319Z" fill="black"/>
    <path opacity="0.403" d="M260.5 329H220.5C219.119 329 218 330.119 218 331.5C218 332.881 219.119 334 220.5 334H260.5C261.881 334 263 332.881 263 331.5C263 330.119 261.881 329 260.5 329Z" fill="black"/>
    <path d="M343 371H205V428H343V371Z" fill="#222A36"/>
    <path d="M210 371H205V428H210V371Z" fill="#DBD1FE"/>
    <path opacity="0.403" d="M305.5 380H220.5C219.119 380 218 381.119 218 382.5C218 383.881 219.119 385 220.5 385H305.5C306.881 385 308 383.881 308 382.5C308 381.119 306.881 380 305.5 380Z" fill="black"/>
    <path opacity="0.403" d="M266.5 390H220.5C219.119 390 218 391.119 218 392.5C218 393.881 219.119 395 220.5 395H266.5C267.881 395 269 393.881 269 392.5C269 391.119 267.881 390 266.5 390Z" fill="black"/>
    <path d="M500 247H362V304H500V247Z" fill="#222A36"/>
    <path d="M367 247H362V304H367V247Z" fill="#7F5CA6"/>
    <path d="M500 309H362V366H500V309Z" fill="#222A36"/>
    <path d="M367 309H362V366H367V309Z" fill="#DBD1FE"/>
    <path opacity="0.403" d="M453.5 319H377.5C376.119 319 375 320.119 375 321.5C375 322.881 376.119 324 377.5 324H453.5C454.881 324 456 322.881 456 321.5C456 320.119 454.881 319 453.5 319Z" fill="black"/>
    <path opacity="0.403" d="M413.5 329H377.5C376.119 329 375 330.119 375 331.5C375 332.881 376.119 334 377.5 334H413.5C414.881 334 416 332.881 416 331.5C416 330.119 414.881 329 413.5 329Z" fill="black"/>
    <path d="M658 247H520V304H658V247Z" fill="#222A36"/>
    <path d="M525 247H520V304H525V247Z" fill="#D5FC9D"/>
    <path d="M658 309H520V366H658V309Z" fill="#222A36"/>
    <path d="M525 309H520V366H525V309Z" fill="#7F5CA6"/>
    <path opacity="0.403" d="M615.5 320H535.5C534.119 320 533 321.119 533 322.5C533 323.881 534.119 325 535.5 325H615.5C616.881 325 618 323.881 618 322.5C618 321.119 616.881 320 615.5 320Z" fill="black"/>
    <path opacity="0.403" d="M593.5 330H535.5C534.119 330 533 331.119 533 332.5C533 333.881 534.119 335 535.5 335H593.5C594.881 335 596 333.881 596 332.5C596 331.119 594.881 330 593.5 330Z" fill="black"/>
    <path d="M658 371H520V428H658V371Z" fill="#222A36"/>
    <path d="M525 371H520V428H525V371Z" fill="#83DC79"/>
    <path opacity="0.403" d="M627.5 381H535.5C534.119 381 533 382.119 533 383.5C533 384.881 534.119 386 535.5 386H627.5C628.881 386 630 384.881 630 383.5C630 382.119 628.881 381 627.5 381Z" fill="black"/>
    <path opacity="0.403" d="M573.5 391H535.5C534.119 391 533 392.119 533 393.5C533 394.881 534.119 396 535.5 396H573.5C574.881 396 576 394.881 576 393.5C576 392.119 574.881 391 573.5 391Z" fill="black"/>
    <path opacity="0.403" d="M143.5 256H65.5C64.1193 256 63 257.119 63 258.5C63 259.881 64.1193 261 65.5 261H143.5C144.881 261 146 259.881 146 258.5C146 257.119 144.881 256 143.5 256Z" fill="black"/>
    <path opacity="0.403" d="M100.5 266H65.5C64.1193 266 63 267.119 63 268.5C63 269.881 64.1193 271 65.5 271H100.5C101.881 271 103 269.881 103 268.5C103 267.119 101.881 266 100.5 266Z" fill="black"/>
    <path opacity="0.403" d="M303.5 256H220.5C219.119 256 218 257.119 218 258.5C218 259.881 219.119 261 220.5 261H303.5C304.881 261 306 259.881 306 258.5C306 257.119 304.881 256 303.5 256Z" fill="black"/>
    <path opacity="0.403" d="M273.5 266H220.5C219.119 266 218 267.119 218 268.5C218 269.881 219.119 271 220.5 271H273.5C274.881 271 276 269.881 276 268.5C276 267.119 274.881 266 273.5 266Z" fill="black"/>
    <path opacity="0.403" d="M466.5 256H377.5C376.119 256 375 257.119 375 258.5C375 259.881 376.119 261 377.5 261H466.5C467.881 261 469 259.881 469 258.5C469 257.119 467.881 256 466.5 256Z" fill="black"/>
    <path opacity="0.403" d="M430.5 266H377.5C376.119 266 375 267.119 375 268.5C375 269.881 376.119 271 377.5 271H430.5C431.881 271 433 269.881 433 268.5C433 267.119 431.881 266 430.5 266Z" fill="black"/>
    <path opacity="0.403" d="M621.5 256H532.5C531.119 256 530 257.119 530 258.5C530 259.881 531.119 261 532.5 261H621.5C622.881 261 624 259.881 624 258.5C624 257.119 622.881 256 621.5 256Z" fill="black"/>
    <path opacity="0.403" d="M585.5 266H532.5C531.119 266 530 267.119 530 268.5C530 269.881 531.119 271 532.5 271H585.5C586.881 271 588 269.881 588 268.5C588 267.119 586.881 266 585.5 266Z" fill="black"/>
    <path d="M56.772 128.338C56.772 127.713 56.5506 127.231 56.1079 126.893C55.6717 126.554 54.8807 126.212 53.7349 125.867C52.589 125.522 51.6776 125.138 51.0005 124.715C49.7049 123.901 49.0571 122.84 49.0571 121.531C49.0571 120.385 49.5226 119.441 50.4536 118.699C51.3911 117.957 52.6053 117.586 54.0962 117.586C55.0858 117.586 55.9679 117.768 56.7427 118.133C57.5174 118.497 58.1261 119.018 58.5688 119.695C59.0116 120.366 59.2329 121.111 59.2329 121.932H56.772C56.772 121.189 56.5376 120.61 56.0688 120.193C55.6066 119.77 54.9425 119.559 54.0767 119.559C53.2694 119.559 52.6411 119.731 52.1919 120.076C51.7492 120.421 51.5278 120.903 51.5278 121.521C51.5278 122.042 51.7687 122.479 52.2505 122.83C52.7323 123.175 53.5265 123.514 54.6333 123.846C55.7401 124.171 56.6287 124.546 57.2993 124.969C57.9699 125.385 58.4614 125.867 58.7739 126.414C59.0864 126.954 59.2427 127.589 59.2427 128.318C59.2427 129.503 58.7869 130.447 57.8755 131.15C56.9705 131.847 55.7401 132.195 54.1841 132.195C53.1554 132.195 52.2082 132.007 51.3423 131.629C50.4829 131.245 49.8123 130.717 49.3306 130.047C48.8553 129.376 48.6177 128.595 48.6177 127.703H51.0884C51.0884 128.51 51.3553 129.135 51.8892 129.578C52.423 130.021 53.188 130.242 54.1841 130.242C55.0435 130.242 55.688 130.07 56.1177 129.725C56.5539 129.373 56.772 128.911 56.772 128.338ZM65.522 130.301C66.1144 130.301 66.606 130.128 66.9966 129.783C67.3872 129.438 67.5955 129.012 67.6216 128.504H69.8579C69.8319 129.161 69.6268 129.777 69.2427 130.35C68.8586 130.916 68.3377 131.365 67.6802 131.697C67.0226 132.029 66.313 132.195 65.5513 132.195C64.0734 132.195 62.9015 131.717 62.0356 130.76C61.1698 129.803 60.7368 128.481 60.7368 126.795V126.551C60.7368 124.943 61.1665 123.657 62.0259 122.693C62.8853 121.723 64.0571 121.238 65.5415 121.238C66.798 121.238 67.8201 121.606 68.6079 122.342C69.4022 123.071 69.8188 124.031 69.8579 125.223H67.6216C67.5955 124.617 67.3872 124.119 66.9966 123.729C66.6125 123.338 66.1209 123.143 65.522 123.143C64.7537 123.143 64.1613 123.423 63.7446 123.982C63.328 124.536 63.1164 125.379 63.1099 126.512V126.893C63.1099 128.038 63.3149 128.895 63.7251 129.461C64.1418 130.021 64.7407 130.301 65.522 130.301ZM77.1821 123.602C76.8696 123.549 76.5474 123.523 76.2153 123.523C75.1281 123.523 74.3957 123.94 74.0181 124.773V132H71.645V121.434H73.9106L73.9692 122.615C74.5422 121.697 75.3364 121.238 76.3521 121.238C76.6906 121.238 76.9705 121.284 77.1919 121.375L77.1821 123.602ZM85.0825 130.965C84.3859 131.785 83.3963 132.195 82.1138 132.195C80.9679 132.195 80.0988 131.86 79.5063 131.189C78.9204 130.519 78.6274 129.549 78.6274 128.279V121.434H81.0005V128.25C81.0005 129.591 81.5571 130.262 82.6704 130.262C83.8228 130.262 84.6007 129.848 85.0044 129.021V121.434H87.3774V132H85.1411L85.0825 130.965ZM92.0259 121.434L92.0942 122.537C92.8364 121.671 93.8521 121.238 95.1411 121.238C96.5539 121.238 97.5207 121.779 98.0415 122.859C98.8097 121.779 99.8905 121.238 101.284 121.238C102.449 121.238 103.315 121.561 103.881 122.205C104.454 122.85 104.747 123.8 104.76 125.057V132H102.387V125.125C102.387 124.454 102.241 123.963 101.948 123.65C101.655 123.338 101.17 123.182 100.493 123.182C99.9523 123.182 99.5096 123.328 99.1646 123.621C98.826 123.908 98.5884 124.285 98.4517 124.754L98.4614 132H96.0884V125.047C96.0558 123.803 95.4211 123.182 94.1841 123.182C93.2336 123.182 92.5597 123.569 92.1626 124.344V132H89.7896V121.434H92.0259ZM112.407 132V117.781H117.28C118.888 117.781 120.112 118.104 120.952 118.748C121.792 119.393 122.211 120.353 122.211 121.629C122.211 122.28 122.036 122.866 121.684 123.387C121.333 123.908 120.818 124.311 120.141 124.598C120.909 124.806 121.502 125.2 121.918 125.779C122.342 126.352 122.553 127.042 122.553 127.85C122.553 129.184 122.124 130.21 121.264 130.926C120.411 131.642 119.187 132 117.592 132H112.407ZM114.877 125.584V130.027H117.622C118.396 130.027 119.002 129.835 119.438 129.451C119.874 129.067 120.092 128.533 120.092 127.85C120.092 126.372 119.337 125.617 117.827 125.584H114.877ZM114.877 123.768H117.299C118.068 123.768 118.667 123.595 119.096 123.25C119.532 122.898 119.75 122.404 119.75 121.766C119.75 121.062 119.549 120.555 119.145 120.242C118.748 119.93 118.126 119.773 117.28 119.773H114.877V123.768ZM124.35 126.619C124.35 125.584 124.555 124.653 124.965 123.826C125.375 122.993 125.952 122.355 126.694 121.912C127.436 121.463 128.289 121.238 129.252 121.238C130.678 121.238 131.834 121.697 132.719 122.615C133.611 123.533 134.093 124.751 134.165 126.268L134.174 126.824C134.174 127.866 133.972 128.797 133.569 129.617C133.172 130.438 132.599 131.072 131.85 131.521C131.108 131.971 130.249 132.195 129.272 132.195C127.781 132.195 126.586 131.701 125.688 130.711C124.796 129.715 124.35 128.39 124.35 126.736V126.619ZM126.723 126.824C126.723 127.911 126.948 128.764 127.397 129.383C127.846 129.995 128.471 130.301 129.272 130.301C130.073 130.301 130.694 129.988 131.137 129.363C131.586 128.738 131.811 127.824 131.811 126.619C131.811 125.551 131.58 124.705 131.118 124.08C130.662 123.455 130.04 123.143 129.252 123.143C128.478 123.143 127.862 123.452 127.407 124.07C126.951 124.682 126.723 125.6 126.723 126.824ZM142.495 132C142.39 131.798 142.299 131.469 142.221 131.014C141.466 131.801 140.542 132.195 139.448 132.195C138.387 132.195 137.521 131.893 136.85 131.287C136.18 130.682 135.844 129.933 135.844 129.041C135.844 127.915 136.261 127.052 137.094 126.453C137.934 125.848 139.132 125.545 140.688 125.545H142.143V124.852C142.143 124.305 141.99 123.868 141.684 123.543C141.378 123.211 140.913 123.045 140.288 123.045C139.747 123.045 139.305 123.182 138.959 123.455C138.614 123.722 138.442 124.064 138.442 124.48H136.069C136.069 123.901 136.261 123.361 136.645 122.859C137.029 122.352 137.55 121.954 138.208 121.668C138.872 121.382 139.611 121.238 140.424 121.238C141.661 121.238 142.648 121.551 143.383 122.176C144.119 122.794 144.497 123.667 144.516 124.793V129.559C144.516 130.509 144.65 131.268 144.917 131.834V132H142.495ZM139.887 130.291C140.356 130.291 140.795 130.177 141.206 129.949C141.622 129.721 141.935 129.415 142.143 129.031V127.039H140.864C139.985 127.039 139.324 127.192 138.881 127.498C138.439 127.804 138.217 128.237 138.217 128.797C138.217 129.253 138.367 129.617 138.667 129.891C138.972 130.158 139.379 130.291 139.887 130.291ZM152.534 123.602C152.221 123.549 151.899 123.523 151.567 123.523C150.48 123.523 149.747 123.94 149.37 124.773V132H146.997V121.434H149.262L149.321 122.615C149.894 121.697 150.688 121.238 151.704 121.238C152.042 121.238 152.322 121.284 152.543 121.375L152.534 123.602ZM153.393 126.639C153.393 125.011 153.771 123.706 154.526 122.723C155.281 121.733 156.293 121.238 157.563 121.238C158.683 121.238 159.588 121.629 160.278 122.41V117H162.651V132H160.502L160.385 130.906C159.676 131.766 158.728 132.195 157.543 132.195C156.306 132.195 155.304 131.697 154.536 130.701C153.774 129.705 153.393 128.351 153.393 126.639ZM155.766 126.844C155.766 127.918 155.971 128.758 156.381 129.363C156.798 129.962 157.387 130.262 158.149 130.262C159.119 130.262 159.829 129.829 160.278 128.963V124.451C159.842 123.605 159.139 123.182 158.168 123.182C157.4 123.182 156.808 123.488 156.391 124.1C155.974 124.705 155.766 125.62 155.766 126.844Z" fill="white"/>
    <path opacity="0.15" d="M59 214C64.5228 214 69 209.523 69 204C69 198.477 64.5228 194 59 194C53.4772 194 49 198.477 49 204C49 209.523 53.4772 214 59 214Z" fill="white"/>
    <path d="M61.965 207H56.2287V206.021L59.0705 202.922C59.4807 202.465 59.7717 202.084 59.9435 201.779C60.1193 201.471 60.2072 201.162 60.2072 200.854C60.2072 200.447 60.092 200.119 59.8615 199.869C59.6349 199.619 59.3283 199.494 58.9416 199.494C58.4807 199.494 58.1232 199.635 57.8693 199.916C57.6154 200.197 57.4885 200.582 57.4885 201.07H56.0646C56.0646 200.551 56.1818 200.084 56.4162 199.67C56.6545 199.252 56.9924 198.928 57.4299 198.697C57.8713 198.467 58.3791 198.352 58.9533 198.352C59.7814 198.352 60.4338 198.561 60.9103 198.979C61.3908 199.393 61.631 199.967 61.631 200.701C61.631 201.127 61.5099 201.574 61.2678 202.043C61.0295 202.508 60.6369 203.037 60.09 203.631L58.0041 205.863H61.965V207Z" fill="white"/>
    <path opacity="0.15" d="M214 214C219.523 214 224 209.523 224 204C224 198.477 219.523 194 214 194C208.477 194 204 198.477 204 204C204 209.523 208.477 214 214 214Z" fill="white"/>
    <path d="M212.875 202.084H213.742C214.18 202.08 214.526 201.967 214.779 201.744C215.037 201.521 215.166 201.199 215.166 200.777C215.166 200.371 215.059 200.057 214.844 199.834C214.633 199.607 214.309 199.494 213.871 199.494C213.488 199.494 213.174 199.605 212.928 199.828C212.682 200.047 212.559 200.334 212.559 200.689H211.135C211.135 200.252 211.25 199.854 211.481 199.494C211.715 199.135 212.039 198.855 212.453 198.656C212.871 198.453 213.338 198.352 213.854 198.352C214.705 198.352 215.373 198.566 215.858 198.996C216.346 199.422 216.59 200.016 216.59 200.777C216.59 201.16 216.467 201.521 216.221 201.861C215.979 202.197 215.664 202.451 215.278 202.623C215.746 202.783 216.102 203.035 216.344 203.379C216.59 203.723 216.713 204.133 216.713 204.609C216.713 205.375 216.449 205.984 215.922 206.438C215.399 206.891 214.709 207.117 213.854 207.117C213.033 207.117 212.362 206.898 211.838 206.461C211.315 206.023 211.053 205.441 211.053 204.715H212.477C212.477 205.09 212.602 205.395 212.852 205.629C213.106 205.863 213.445 205.98 213.871 205.98C214.313 205.98 214.66 205.863 214.914 205.629C215.168 205.395 215.295 205.055 215.295 204.609C215.295 204.16 215.162 203.814 214.897 203.572C214.631 203.33 214.237 203.209 213.713 203.209H212.875V202.084Z" fill="white"/>
    <path opacity="0.15" d="M371 214C376.523 214 381 209.523 381 204C381 198.477 376.523 194 371 194C365.477 194 361 198.477 361 204C361 209.523 365.477 214 371 214Z" fill="white"/>
    <path d="M373.965 207H368.229V206.021L371.07 202.922C371.481 202.465 371.772 202.084 371.944 201.779C372.119 201.471 372.207 201.162 372.207 200.854C372.207 200.447 372.092 200.119 371.862 199.869C371.635 199.619 371.328 199.494 370.942 199.494C370.481 199.494 370.123 199.635 369.869 199.916C369.615 200.197 369.488 200.582 369.488 201.07H368.065C368.065 200.551 368.182 200.084 368.416 199.67C368.654 199.252 368.992 198.928 369.43 198.697C369.871 198.467 370.379 198.352 370.953 198.352C371.781 198.352 372.434 198.561 372.91 198.979C373.391 199.393 373.631 199.967 373.631 200.701C373.631 201.127 373.51 201.574 373.268 202.043C373.029 202.508 372.637 203.037 372.09 203.631L370.004 205.863H373.965V207Z" fill="white"/>
    <path opacity="0.15" d="M527 214C532.523 214 537 209.523 537 204C537 198.477 532.523 194 527 194C521.477 194 517 198.477 517 204C517 209.523 521.477 214 527 214Z" fill="white"/>
    <path d="M525.875 202.084H526.742C527.18 202.08 527.526 201.967 527.779 201.744C528.037 201.521 528.166 201.199 528.166 200.777C528.166 200.371 528.059 200.057 527.844 199.834C527.633 199.607 527.309 199.494 526.871 199.494C526.488 199.494 526.174 199.605 525.928 199.828C525.682 200.047 525.559 200.334 525.559 200.689H524.135C524.135 200.252 524.25 199.854 524.481 199.494C524.715 199.135 525.039 198.855 525.453 198.656C525.871 198.453 526.338 198.352 526.854 198.352C527.705 198.352 528.373 198.566 528.858 198.996C529.346 199.422 529.59 200.016 529.59 200.777C529.59 201.16 529.467 201.521 529.221 201.861C528.979 202.197 528.664 202.451 528.278 202.623C528.746 202.783 529.102 203.035 529.344 203.379C529.59 203.723 529.713 204.133 529.713 204.609C529.713 205.375 529.449 205.984 528.922 206.438C528.399 206.891 527.709 207.117 526.854 207.117C526.033 207.117 525.362 206.898 524.838 206.461C524.315 206.023 524.053 205.441 524.053 204.715H525.477C525.477 205.09 525.602 205.395 525.852 205.629C526.106 205.863 526.445 205.98 526.871 205.98C527.313 205.98 527.66 205.863 527.914 205.629C528.168 205.395 528.295 205.055 528.295 204.609C528.295 204.16 528.162 203.814 527.897 203.572C527.631 203.33 527.237 203.209 526.713 203.209H525.875V202.084Z" fill="white"/>
    <path d="M55.8258 161.928C55.8258 162.725 55.6969 163.418 55.4391 164.008C55.1813 164.594 54.8239 165.064 54.3668 165.42L55.7848 166.533L54.6656 167.523L52.8492 166.064C52.6422 166.1 52.4274 166.117 52.2047 166.117C51.4977 166.117 50.8668 165.947 50.3121 165.607C49.7574 165.268 49.3278 164.783 49.0231 164.154C48.7184 163.521 48.5641 162.795 48.5602 161.975V161.553C48.5602 160.713 48.7106 159.975 49.0114 159.338C49.316 158.697 49.7438 158.207 50.2946 157.867C50.8492 157.523 51.4821 157.352 52.193 157.352C52.9039 157.352 53.5348 157.523 54.0856 157.867C54.6403 158.207 55.068 158.697 55.3688 159.338C55.6735 159.975 55.8258 160.711 55.8258 161.547V161.928ZM54.0446 161.541C54.0446 160.646 53.8844 159.967 53.5641 159.502C53.2438 159.037 52.7867 158.805 52.193 158.805C51.6031 158.805 51.1481 159.035 50.8278 159.496C50.5074 159.953 50.3453 160.625 50.3414 161.512V161.928C50.3414 162.799 50.5016 163.475 50.8219 163.955C51.1422 164.436 51.6031 164.676 52.2047 164.676C52.7946 164.676 53.2477 164.445 53.5641 163.984C53.8805 163.52 54.0406 162.844 54.0446 161.957V161.541ZM60.8004 165.355C60.3824 165.863 59.8043 166.117 59.066 166.117C58.3864 166.117 57.8668 165.922 57.5074 165.531C57.152 165.141 56.9703 164.568 56.9625 163.814V159.66H58.6559V163.756C58.6559 164.416 58.9567 164.746 59.5582 164.746C60.1324 164.746 60.527 164.547 60.7418 164.148V159.66H62.441V166H60.8473L60.8004 165.355ZM65.5055 166H63.8063V159.66H65.5055V166ZM63.7067 158.02C63.7067 157.766 63.7906 157.557 63.9586 157.393C64.1305 157.229 64.3629 157.146 64.6559 157.146C64.9449 157.146 65.1754 157.229 65.3473 157.393C65.5192 157.557 65.6051 157.766 65.6051 158.02C65.6051 158.277 65.5172 158.488 65.3414 158.652C65.1696 158.816 64.941 158.898 64.6559 158.898C64.3707 158.898 64.1403 158.816 63.9645 158.652C63.7926 158.488 63.7067 158.277 63.7067 158.02ZM69.5426 164.752C69.8551 164.752 70.109 164.666 70.3043 164.494C70.4996 164.322 70.6012 164.094 70.609 163.809H72.1969C72.193 164.238 72.0758 164.633 71.8453 164.992C71.6149 165.348 71.2985 165.625 70.8961 165.824C70.4977 166.02 70.0563 166.117 69.5719 166.117C68.6656 166.117 67.9508 165.83 67.4274 165.256C66.9039 164.678 66.6422 163.881 66.6422 162.865V162.754C66.6422 161.777 66.902 160.998 67.4215 160.416C67.941 159.834 68.6539 159.543 69.5602 159.543C70.3531 159.543 70.9879 159.77 71.4645 160.223C71.9449 160.672 72.1891 161.271 72.1969 162.021H70.609C70.6012 161.693 70.4996 161.428 70.3043 161.225C70.109 161.018 69.8512 160.914 69.5309 160.914C69.1364 160.914 68.8375 161.059 68.6344 161.348C68.4352 161.633 68.3356 162.098 68.3356 162.742V162.918C68.3356 163.57 68.4352 164.039 68.6344 164.324C68.8336 164.609 69.1364 164.752 69.5426 164.752ZM75.4664 163.457L74.8571 164.066V166H73.1637V157H74.8571V161.986L75.1852 161.564L76.8082 159.66H78.8414L76.5504 162.303L79.0406 166H77.0953L75.4664 163.457ZM87.8063 162.514H84.4313V166H82.6735V157.469H88.2281V158.893H84.4313V161.096H87.8063V162.514ZM90.9235 166H89.2242V159.66H90.9235V166ZM89.1246 158.02C89.1246 157.766 89.2086 157.557 89.3766 157.393C89.5485 157.229 89.7809 157.146 90.0739 157.146C90.3629 157.146 90.5934 157.229 90.7653 157.393C90.9371 157.557 91.0231 157.766 91.0231 158.02C91.0231 158.277 90.9352 158.488 90.7594 158.652C90.5875 158.816 90.359 158.898 90.0739 158.898C89.7887 158.898 89.5582 158.816 89.3824 158.652C89.2106 158.488 89.1246 158.277 89.1246 158.02ZM94.111 166H92.4117V157H94.111V166ZM97.5387 158.102V159.66H98.6227V160.902H97.5387V164.066C97.5387 164.301 97.5836 164.469 97.6735 164.57C97.7633 164.672 97.9352 164.723 98.1891 164.723C98.3766 164.723 98.5426 164.709 98.6871 164.682V165.965C98.3551 166.066 98.0133 166.117 97.6617 166.117C96.4742 166.117 95.8688 165.518 95.8453 164.318V160.902H94.9196V159.66H95.8453V158.102H97.5387ZM102.484 166.117C101.554 166.117 100.797 165.832 100.211 165.262C99.6285 164.691 99.3375 163.932 99.3375 162.982V162.818C99.3375 162.182 99.4606 161.613 99.7067 161.113C99.9528 160.609 100.3 160.223 100.75 159.953C101.203 159.68 101.718 159.543 102.297 159.543C103.164 159.543 103.845 159.816 104.341 160.363C104.841 160.91 105.091 161.686 105.091 162.689V163.381H101.054C101.109 163.795 101.273 164.127 101.547 164.377C101.824 164.627 102.173 164.752 102.595 164.752C103.248 164.752 103.757 164.516 104.125 164.043L104.957 164.975C104.703 165.334 104.359 165.615 103.925 165.818C103.492 166.018 103.011 166.117 102.484 166.117ZM102.291 160.914C101.955 160.914 101.681 161.027 101.47 161.254C101.263 161.48 101.13 161.805 101.072 162.227H103.427V162.092C103.42 161.717 103.318 161.428 103.123 161.225C102.927 161.018 102.65 160.914 102.291 160.914ZM109.621 161.248C109.39 161.217 109.187 161.201 109.011 161.201C108.371 161.201 107.951 161.418 107.752 161.852V166H106.058V159.66H107.658L107.705 160.416C108.045 159.834 108.515 159.543 109.117 159.543C109.304 159.543 109.48 159.568 109.644 159.619L109.621 161.248ZM113.875 164.248C113.875 164.041 113.771 163.879 113.564 163.762C113.361 163.641 113.033 163.533 112.58 163.439C111.072 163.123 110.318 162.482 110.318 161.518C110.318 160.955 110.55 160.486 111.015 160.111C111.484 159.732 112.095 159.543 112.849 159.543C113.654 159.543 114.297 159.732 114.777 160.111C115.261 160.49 115.504 160.982 115.504 161.588H113.81C113.81 161.346 113.732 161.146 113.576 160.99C113.42 160.83 113.175 160.75 112.843 160.75C112.558 160.75 112.338 160.814 112.181 160.943C112.025 161.072 111.947 161.236 111.947 161.436C111.947 161.623 112.035 161.775 112.211 161.893C112.39 162.006 112.691 162.105 113.113 162.191C113.535 162.273 113.89 162.367 114.179 162.473C115.074 162.801 115.521 163.369 115.521 164.178C115.521 164.756 115.273 165.225 114.777 165.584C114.281 165.939 113.64 166.117 112.855 166.117C112.324 166.117 111.851 166.023 111.437 165.836C111.027 165.645 110.705 165.385 110.47 165.057C110.236 164.725 110.119 164.367 110.119 163.984H111.724C111.74 164.285 111.851 164.516 112.058 164.676C112.265 164.836 112.543 164.916 112.89 164.916C113.214 164.916 113.459 164.855 113.623 164.734C113.791 164.609 113.875 164.447 113.875 164.248Z" fill="white"/>
    <path opacity="0.5" d="M136.813 162.675C136.813 163.371 136.696 163.98 136.461 164.501C136.227 165.019 135.895 165.414 135.465 165.688C135.036 165.961 134.534 166.098 133.961 166.098C133.402 166.098 132.905 165.961 132.472 165.688C132.039 165.411 131.702 165.019 131.461 164.511C131.224 164 131.102 163.409 131.095 162.738V162.226C131.095 161.542 131.214 160.938 131.452 160.414C131.689 159.89 132.025 159.49 132.458 159.213C132.894 158.933 133.392 158.793 133.952 158.793C134.521 158.793 135.023 158.931 135.456 159.208C135.892 159.481 136.227 159.88 136.461 160.404C136.696 160.925 136.813 161.532 136.813 162.226V162.675ZM135.88 162.216C135.88 161.373 135.711 160.727 135.373 160.277C135.034 159.825 134.56 159.599 133.952 159.599C133.359 159.599 132.892 159.825 132.55 160.277C132.212 160.727 132.038 161.352 132.028 162.152V162.675C132.028 163.492 132.199 164.135 132.541 164.604C132.886 165.069 133.359 165.302 133.961 165.302C134.567 165.302 135.036 165.082 135.368 164.643C135.7 164.2 135.871 163.567 135.88 162.743V162.216ZM138.932 160.717L138.961 161.381C139.365 160.873 139.892 160.619 140.543 160.619C141.66 160.619 142.223 161.249 142.233 162.509V166H141.33V162.504C141.326 162.123 141.238 161.841 141.066 161.659C140.897 161.477 140.631 161.386 140.27 161.386C139.977 161.386 139.72 161.464 139.499 161.62C139.277 161.776 139.105 161.981 138.981 162.235V166H138.078V160.717H138.932ZM144.577 166H143.673V158.5H144.577V166ZM147.755 164.677L148.986 160.717H149.953L147.829 166.815C147.5 167.694 146.977 168.134 146.261 168.134L146.09 168.119L145.753 168.056V167.323L145.998 167.343C146.304 167.343 146.541 167.281 146.71 167.157C146.883 167.034 147.025 166.807 147.135 166.479L147.335 165.941L145.451 160.717H146.437L147.755 164.677ZM154.596 158.891L156.92 164.691L159.245 158.891H160.46V166H159.523V163.231L159.611 160.243L157.277 166H156.559L154.23 160.258L154.323 163.231V166H153.385V158.891H154.596ZM163.703 164.677L164.933 160.717H165.9L163.776 166.815C163.447 167.694 162.925 168.134 162.208 168.134L162.038 168.119L161.701 168.056V167.323L161.945 167.343C162.251 167.343 162.488 167.281 162.658 167.157C162.83 167.034 162.972 166.807 163.083 166.479L163.283 165.941L161.398 160.717H162.384L163.703 164.677ZM170.338 166H169.401V158.891H170.338V166ZM174.992 164.599C174.992 164.354 174.899 164.166 174.713 164.032C174.531 163.896 174.21 163.778 173.751 163.681C173.296 163.583 172.933 163.466 172.663 163.329C172.396 163.192 172.197 163.03 172.067 162.841C171.94 162.652 171.876 162.427 171.876 162.167C171.876 161.734 172.059 161.368 172.423 161.068C172.791 160.769 173.26 160.619 173.83 160.619C174.429 160.619 174.914 160.774 175.285 161.083C175.659 161.392 175.846 161.788 175.846 162.27H174.938C174.938 162.022 174.832 161.809 174.621 161.63C174.412 161.451 174.149 161.361 173.83 161.361C173.501 161.361 173.244 161.433 173.058 161.576C172.873 161.719 172.78 161.907 172.78 162.138C172.78 162.356 172.866 162.52 173.039 162.631C173.211 162.742 173.522 162.847 173.971 162.948C174.424 163.049 174.79 163.17 175.07 163.31C175.35 163.45 175.556 163.619 175.69 163.817C175.827 164.013 175.895 164.252 175.895 164.535C175.895 165.007 175.706 165.386 175.329 165.673C174.951 165.956 174.461 166.098 173.859 166.098C173.436 166.098 173.061 166.023 172.736 165.873C172.41 165.723 172.155 165.515 171.969 165.248C171.787 164.978 171.696 164.687 171.696 164.374H172.599C172.615 164.677 172.736 164.918 172.96 165.097C173.188 165.272 173.488 165.36 173.859 165.36C174.201 165.36 174.474 165.292 174.679 165.155C174.888 165.015 174.992 164.83 174.992 164.599ZM180.148 164.599C180.148 164.354 180.055 164.166 179.87 164.032C179.687 163.896 179.367 163.778 178.908 163.681C178.452 163.583 178.089 163.466 177.819 163.329C177.552 163.192 177.353 163.03 177.223 162.841C177.096 162.652 177.033 162.427 177.033 162.167C177.033 161.734 177.215 161.368 177.58 161.068C177.947 160.769 178.416 160.619 178.986 160.619C179.585 160.619 180.07 160.774 180.441 161.083C180.815 161.392 181.002 161.788 181.002 162.27H180.094C180.094 162.022 179.988 161.809 179.777 161.63C179.569 161.451 179.305 161.361 178.986 161.361C178.657 161.361 178.4 161.433 178.214 161.576C178.029 161.719 177.936 161.907 177.936 162.138C177.936 162.356 178.022 162.52 178.195 162.631C178.367 162.742 178.678 162.847 179.127 162.948C179.58 163.049 179.946 163.17 180.226 163.31C180.506 163.45 180.713 163.619 180.846 163.817C180.983 164.013 181.051 164.252 181.051 164.535C181.051 165.007 180.862 165.386 180.485 165.673C180.107 165.956 179.617 166.098 179.015 166.098C178.592 166.098 178.218 166.023 177.892 165.873C177.567 165.723 177.311 165.515 177.125 165.248C176.943 164.978 176.852 164.687 176.852 164.374H177.755C177.772 164.677 177.892 164.918 178.117 165.097C178.345 165.272 178.644 165.36 179.015 165.36C179.357 165.36 179.63 165.292 179.835 165.155C180.044 165.015 180.148 164.83 180.148 164.599ZM185.49 165.478C185.138 165.891 184.622 166.098 183.942 166.098C183.379 166.098 182.949 165.935 182.653 165.609C182.36 165.281 182.212 164.796 182.208 164.154V160.717H183.112V164.13C183.112 164.931 183.437 165.331 184.088 165.331C184.778 165.331 185.237 165.074 185.465 164.56V160.717H186.369V166H185.509L185.49 165.478ZM189.938 166.098C189.222 166.098 188.639 165.863 188.19 165.395C187.741 164.923 187.516 164.293 187.516 163.505V163.339C187.516 162.815 187.615 162.348 187.814 161.938C188.016 161.524 188.296 161.202 188.654 160.971C189.015 160.736 189.406 160.619 189.826 160.619C190.513 160.619 191.046 160.845 191.427 161.298C191.808 161.75 191.999 162.398 191.999 163.241V163.617H188.419C188.432 164.138 188.584 164.56 188.874 164.882C189.167 165.201 189.538 165.36 189.987 165.36C190.306 165.36 190.576 165.295 190.797 165.165C191.019 165.035 191.212 164.862 191.378 164.647L191.93 165.077C191.487 165.757 190.823 166.098 189.938 166.098ZM189.826 161.361C189.461 161.361 189.155 161.495 188.908 161.762C188.66 162.025 188.507 162.396 188.449 162.875H191.095V162.807C191.069 162.348 190.945 161.993 190.724 161.742C190.503 161.488 190.203 161.361 189.826 161.361ZM196.125 164.599C196.125 164.354 196.032 164.166 195.846 164.032C195.664 163.896 195.343 163.778 194.884 163.681C194.429 163.583 194.066 163.466 193.795 163.329C193.528 163.192 193.33 163.03 193.2 162.841C193.073 162.652 193.009 162.427 193.009 162.167C193.009 161.734 193.192 161.368 193.556 161.068C193.924 160.769 194.393 160.619 194.962 160.619C195.561 160.619 196.046 160.774 196.417 161.083C196.792 161.392 196.979 161.788 196.979 162.27H196.071C196.071 162.022 195.965 161.809 195.753 161.63C195.545 161.451 195.281 161.361 194.962 161.361C194.634 161.361 194.376 161.433 194.191 161.576C194.005 161.719 193.913 161.907 193.913 162.138C193.913 162.356 193.999 162.52 194.171 162.631C194.344 162.742 194.655 162.847 195.104 162.948C195.556 163.049 195.923 163.17 196.203 163.31C196.483 163.45 196.689 163.619 196.823 163.817C196.959 164.013 197.028 164.252 197.028 164.535C197.028 165.007 196.839 165.386 196.461 165.673C196.084 165.956 195.594 166.098 194.992 166.098C194.569 166.098 194.194 166.023 193.869 165.873C193.543 165.723 193.288 165.515 193.102 165.248C192.92 164.978 192.829 164.687 192.829 164.374H193.732C193.748 164.677 193.869 164.918 194.093 165.097C194.321 165.272 194.621 165.36 194.992 165.36C195.333 165.36 195.607 165.292 195.812 165.155C196.02 165.015 196.125 164.83 196.125 164.599Z" fill="white"/>
    <path d="M215.541 163.124H213.871V166H212.928V158.891H215.282C216.083 158.891 216.698 159.073 217.128 159.438C217.561 159.802 217.777 160.333 217.777 161.029C217.777 161.472 217.657 161.858 217.416 162.187C217.178 162.515 216.846 162.761 216.42 162.924L218.089 165.941V166H217.084L215.541 163.124ZM213.871 162.357H215.311C215.777 162.357 216.146 162.237 216.42 161.996C216.696 161.755 216.835 161.433 216.835 161.029C216.835 160.59 216.703 160.253 216.439 160.019C216.179 159.784 215.801 159.665 215.306 159.662H213.871V162.357ZM221.146 166.098C220.43 166.098 219.847 165.863 219.398 165.395C218.949 164.923 218.724 164.293 218.724 163.505V163.339C218.724 162.815 218.824 162.348 219.022 161.938C219.224 161.524 219.504 161.202 219.862 160.971C220.223 160.736 220.614 160.619 221.034 160.619C221.721 160.619 222.255 160.845 222.635 161.298C223.016 161.75 223.207 162.398 223.207 163.241V163.617H219.628C219.641 164.138 219.792 164.56 220.082 164.882C220.375 165.201 220.746 165.36 221.195 165.36C221.514 165.36 221.784 165.295 222.005 165.165C222.227 165.035 222.421 164.862 222.587 164.647L223.138 165.077C222.696 165.757 222.032 166.098 221.146 166.098ZM221.034 161.361C220.669 161.361 220.363 161.495 220.116 161.762C219.868 162.025 219.715 162.396 219.657 162.875H222.303V162.807C222.277 162.348 222.154 161.993 221.932 161.742C221.711 161.488 221.411 161.361 221.034 161.361ZM226.376 165.36C226.698 165.36 226.979 165.263 227.22 165.067C227.461 164.872 227.595 164.628 227.621 164.335H228.475C228.459 164.638 228.355 164.926 228.163 165.199C227.971 165.473 227.714 165.691 227.391 165.854C227.072 166.016 226.734 166.098 226.376 166.098C225.656 166.098 225.083 165.858 224.657 165.38C224.234 164.898 224.022 164.241 224.022 163.407V163.256C224.022 162.742 224.116 162.284 224.305 161.884C224.494 161.483 224.764 161.173 225.116 160.951C225.471 160.73 225.889 160.619 226.371 160.619C226.963 160.619 227.455 160.797 227.845 161.151C228.239 161.506 228.449 161.967 228.475 162.533H227.621C227.595 162.191 227.464 161.911 227.23 161.693C226.999 161.472 226.713 161.361 226.371 161.361C225.912 161.361 225.555 161.527 225.301 161.859C225.051 162.188 224.925 162.665 224.925 163.29V163.461C224.925 164.07 225.051 164.538 225.301 164.867C225.552 165.196 225.91 165.36 226.376 165.36ZM231.683 166.098C230.967 166.098 230.384 165.863 229.935 165.395C229.486 164.923 229.261 164.293 229.261 163.505V163.339C229.261 162.815 229.361 162.348 229.559 161.938C229.761 161.524 230.041 161.202 230.399 160.971C230.76 160.736 231.151 160.619 231.571 160.619C232.258 160.619 232.792 160.845 233.172 161.298C233.553 161.75 233.744 162.398 233.744 163.241V163.617H230.165C230.178 164.138 230.329 164.56 230.619 164.882C230.912 165.201 231.283 165.36 231.732 165.36C232.051 165.36 232.321 165.295 232.543 165.165C232.764 165.035 232.958 164.862 233.124 164.647L233.675 165.077C233.233 165.757 232.569 166.098 231.683 166.098ZM231.571 161.361C231.206 161.361 230.9 161.495 230.653 161.762C230.406 162.025 230.253 162.396 230.194 162.875H232.84V162.807C232.814 162.348 232.691 161.993 232.469 161.742C232.248 161.488 231.949 161.361 231.571 161.361ZM235.648 160.717L235.677 161.381C236.081 160.873 236.608 160.619 237.259 160.619C238.376 160.619 238.939 161.249 238.949 162.509V166H238.046V162.504C238.042 162.123 237.954 161.841 237.782 161.659C237.613 161.477 237.347 161.386 236.986 161.386C236.693 161.386 236.436 161.464 236.214 161.62C235.993 161.776 235.821 161.981 235.697 162.235V166H234.794V160.717H235.648ZM241.537 159.438V160.717H242.523V161.415H241.537V164.691C241.537 164.903 241.581 165.062 241.669 165.17C241.756 165.274 241.906 165.326 242.118 165.326C242.222 165.326 242.365 165.307 242.547 165.268V166C242.31 166.065 242.079 166.098 241.854 166.098C241.45 166.098 241.146 165.976 240.941 165.731C240.736 165.487 240.633 165.141 240.633 164.691V161.415H239.672V160.717H240.633V159.438H241.537ZM244.564 166H243.661V158.5H244.564V166ZM247.743 164.677L248.973 160.717H249.94L247.816 166.815C247.487 167.694 246.965 168.134 246.249 168.134L246.078 168.119L245.741 168.056V167.323L245.985 167.343C246.291 167.343 246.529 167.281 246.698 167.157C246.87 167.034 247.012 166.807 247.123 166.479L247.323 165.941L245.438 160.717H246.424L247.743 164.677ZM258.378 158.891V163.725C258.374 164.395 258.163 164.944 257.743 165.37C257.326 165.797 256.76 166.036 256.044 166.088L255.795 166.098C255.017 166.098 254.396 165.888 253.934 165.468C253.472 165.048 253.238 164.47 253.231 163.734V158.891H254.159V163.705C254.159 164.219 254.3 164.62 254.584 164.906C254.867 165.189 255.27 165.331 255.795 165.331C256.325 165.331 256.73 165.189 257.01 164.906C257.294 164.623 257.435 164.224 257.435 163.71V158.891H258.378ZM264.178 163.417C264.178 164.221 263.994 164.869 263.627 165.36C263.259 165.852 262.761 166.098 262.132 166.098C261.491 166.098 260.987 165.894 260.619 165.487V168.031H259.715V160.717H260.541L260.585 161.303C260.952 160.847 261.464 160.619 262.118 160.619C262.753 160.619 263.254 160.858 263.622 161.337C263.993 161.815 264.178 162.481 264.178 163.334V163.417ZM263.275 163.314C263.275 162.719 263.148 162.248 262.894 161.903C262.64 161.558 262.292 161.386 261.849 161.386C261.302 161.386 260.892 161.628 260.619 162.113V164.638C260.889 165.119 261.302 165.36 261.859 165.36C262.292 165.36 262.635 165.189 262.889 164.848C263.146 164.503 263.275 163.992 263.275 163.314ZM265.111 163.314C265.111 162.504 265.303 161.853 265.687 161.361C266.071 160.867 266.574 160.619 267.196 160.619C267.814 160.619 268.304 160.831 268.666 161.254V158.5H269.569V166H268.739L268.695 165.434C268.334 165.876 267.831 166.098 267.186 166.098C266.574 166.098 266.075 165.847 265.687 165.346C265.303 164.844 265.111 164.19 265.111 163.383V163.314ZM266.014 163.417C266.014 164.016 266.138 164.485 266.385 164.823C266.633 165.162 266.975 165.331 267.411 165.331C267.984 165.331 268.402 165.074 268.666 164.56V162.133C268.395 161.635 267.98 161.386 267.421 161.386C266.978 161.386 266.633 161.557 266.385 161.898C266.138 162.24 266.014 162.746 266.014 163.417ZM274.237 166C274.185 165.896 274.143 165.71 274.11 165.443C273.69 165.88 273.189 166.098 272.606 166.098C272.085 166.098 271.657 165.951 271.322 165.658C270.99 165.362 270.824 164.988 270.824 164.535C270.824 163.985 271.032 163.559 271.449 163.256C271.869 162.95 272.458 162.797 273.216 162.797H274.095V162.382C274.095 162.066 274.001 161.815 273.812 161.63C273.623 161.441 273.345 161.347 272.977 161.347C272.655 161.347 272.385 161.428 272.167 161.591C271.949 161.754 271.839 161.951 271.839 162.182H270.931C270.931 161.918 271.024 161.664 271.21 161.42C271.398 161.173 271.652 160.977 271.971 160.834C272.294 160.691 272.647 160.619 273.031 160.619C273.64 160.619 274.116 160.772 274.462 161.078C274.807 161.381 274.986 161.799 274.999 162.333V164.765C274.999 165.25 275.061 165.635 275.184 165.922V166H274.237ZM272.738 165.312C273.021 165.312 273.29 165.238 273.544 165.092C273.797 164.945 273.981 164.755 274.095 164.521V163.437H273.387C272.281 163.437 271.727 163.76 271.727 164.408C271.727 164.691 271.822 164.913 272.01 165.072C272.199 165.232 272.442 165.312 272.738 165.312ZM277.64 159.438V160.717H278.627V161.415H277.64V164.691C277.64 164.903 277.684 165.062 277.772 165.17C277.86 165.274 278.01 165.326 278.221 165.326C278.325 165.326 278.469 165.307 278.651 165.268V166C278.413 166.065 278.182 166.098 277.958 166.098C277.554 166.098 277.25 165.976 277.045 165.731C276.839 165.487 276.737 165.141 276.737 164.691V161.415H275.775V160.717H276.737V159.438H277.64ZM281.879 166.098C281.162 166.098 280.58 165.863 280.13 165.395C279.681 164.923 279.457 164.293 279.457 163.505V163.339C279.457 162.815 279.556 162.348 279.755 161.938C279.956 161.524 280.236 161.202 280.594 160.971C280.956 160.736 281.346 160.619 281.766 160.619C282.453 160.619 282.987 160.845 283.368 161.298C283.749 161.75 283.939 162.398 283.939 163.241V163.617H280.36C280.373 164.138 280.524 164.56 280.814 164.882C281.107 165.201 281.478 165.36 281.927 165.36C282.246 165.36 282.517 165.295 282.738 165.165C282.959 165.035 283.153 164.862 283.319 164.647L283.871 165.077C283.428 165.757 282.764 166.098 281.879 166.098ZM281.766 161.361C281.402 161.361 281.096 161.495 280.848 161.762C280.601 162.025 280.448 162.396 280.389 162.875H283.036V162.807C283.01 162.348 282.886 161.993 282.665 161.742C282.443 161.488 282.144 161.361 281.766 161.361ZM284.769 163.314C284.769 162.504 284.961 161.853 285.345 161.361C285.729 160.867 286.232 160.619 286.854 160.619C287.473 160.619 287.963 160.831 288.324 161.254V158.5H289.227V166H288.397L288.353 165.434C287.992 165.876 287.489 166.098 286.844 166.098C286.232 166.098 285.733 165.847 285.345 165.346C284.961 164.844 284.769 164.19 284.769 163.383V163.314ZM285.672 163.417C285.672 164.016 285.796 164.485 286.044 164.823C286.291 165.162 286.633 165.331 287.069 165.331C287.642 165.331 288.06 165.074 288.324 164.56V162.133C288.054 161.635 287.639 161.386 287.079 161.386C286.636 161.386 286.291 161.557 286.044 161.898C285.796 162.24 285.672 162.746 285.672 163.417Z" fill="white"/>
    <path d="M589.237 80.1351C591.432 80.1351 593.212 78.3554 593.212 76.1601C593.212 73.9647 591.432 72.1851 589.237 72.1851C587.041 72.1851 585.262 73.9647 585.262 76.1601C585.262 78.3554 587.041 80.1351 589.237 80.1351Z" stroke="white" stroke-miterlimit="10" stroke-linecap="round" stroke-linejoin="round"/>
    <path d="M592.107 78.9099L594.883 81.6229" stroke="white" stroke-miterlimit="10" stroke-linecap="round"/>
    <path d="M48 52C50.7614 52 53 49.7614 53 47C53 44.2386 50.7614 42 48 42C45.2386 42 43 44.2386 43 47C43 49.7614 45.2386 52 48 52Z" fill="#FF5F57"/>
    <path d="M68 52C70.7614 52 73 49.7614 73 47C73 44.2386 70.7614 42 68 42C65.2386 42 63 44.2386 63 47C63 49.7614 65.2386 52 68 52Z" fill="#FFBC3C"/>
    <path d="M88 52C90.7614 52 93 49.7614 93 47C93 44.2386 90.7614 42 88 42C85.2386 42 83 44.2386 83 47C83 49.7614 85.2386 52 88 52Z" fill="#21C94B"/>
    <defs>
        <filter id="filter0_d" x="0" y="0" width="705" height="489" filterUnits="userSpaceOnUse" color-interpolation-filters="sRGB">
            <feFlood flood-opacity="0" result="BackgroundImageFix"/>
            <feColorMatrix in="SourceAlpha" type="matrix" values="0 0 0 0 0 0 0 0 0 0 0 0 0 0 0 0 0 0 127 0"/>
            <feOffset/>
            <feGaussianBlur stdDeviation="12.5"/>
            <feColorMatrix type="matrix" values="0 0 0 0 0 0 0 0 0 0 0 0 0 0 0 0 0 0 0.251 0"/>
            <feBlend mode="normal" in2="BackgroundImageFix" result="effect1_dropShadow"/>
            <feBlend mode="normal" in="SourceGraphic" in2="effect1_dropShadow" result="shape"/>
        </filter>
    </defs>
</svg>
