<svg xmlns="http://www.w3.org/2000/svg" xmlns:xlink="http://www.w3.org/1999/xlink" width="282.776" height="163" viewBox="0 0 282.776 163">
  <defs>
    <linearGradient id="linear-gradient" x1="0.681" y1="0.175" x2="0.278" y2="0.897" gradientUnits="objectBoundingBox">
      <stop offset="0" stop-color="#3e8744"/>
      <stop offset="0.33" stop-color="#3d8a42"/>
      <stop offset="0.637" stop-color="#3c953f"/>
      <stop offset="0.934" stop-color="#3aa839"/>
      <stop offset="1" stop-color="#3aae38"/>
    </linearGradient>
    <linearGradient id="linear-gradient-2" y1="0.5" x2="1" y2="0.5" gradientUnits="objectBoundingBox">
      <stop offset="0" stop-color="#805da7"/>
      <stop offset="1" stop-color="#9474b6"/>
    </linearGradient>
    <clipPath id="clip-path">
      <path id="Path_31" data-name="Path 31" d="M1154.728,232.865a.519.519,0,0,0-.52,0l-4.307,2.486a.518.518,0,0,0-.26.45v4.975a.521.521,0,0,0,.26.451l4.307,2.487a.521.521,0,0,0,.521,0l4.306-2.487a.521.521,0,0,0,.26-.451V235.8a.518.518,0,0,0-.26-.45Z" fill="url(#linear-gradient)" clip-rule="evenodd"/>
    </clipPath>
    <linearGradient id="linear-gradient-4" x1="0.432" y1="0.552" x2="1.591" y2="-0.183" gradientUnits="objectBoundingBox">
      <stop offset="0.138" stop-color="#3e8744"/>
      <stop offset="0.397" stop-color="#509f4a"/>
      <stop offset="0.711" stop-color="#62b650"/>
      <stop offset="0.908" stop-color="#69bf53"/>
    </linearGradient>
    <linearGradient id="linear-gradient-5" x1="-57.192" y1="0.5" x2="68.9" y2="0.5" gradientUnits="objectBoundingBox">
      <stop offset="0.092" stop-color="#69bf53"/>
      <stop offset="0.289" stop-color="#62b650"/>
      <stop offset="0.603" stop-color="#509f4a"/>
      <stop offset="0.862" stop-color="#3e8744"/>
    </linearGradient>
    <linearGradient id="linear-gradient-6" x1="-0.045" y1="0.5" x2="1.016" y2="0.5" xlink:href="#linear-gradient-5"/>
    <linearGradient id="linear-gradient-7" x1="-347.637" y1="0.5" x2="1.001" y2="0.5" xlink:href="#linear-gradient-5"/>
    <linearGradient id="linear-gradient-8" x1="-1.037" y1="0.5" x2="1.006" y2="0.5" xlink:href="#linear-gradient-5"/>
    <linearGradient id="linear-gradient-9" x1="1.303" y1="-2.111" x2="0.044" y2="2.012" xlink:href="#linear-gradient"/>
  </defs>
  <g id="Technology_Migration_Services_Graphic" data-name="Technology Migration Services Graphic" transform="translate(-1025 -176)">
    <g id="Group_3" data-name="Group 3">
      <path id="Path_80" data-name="Path 80" d="M1076.188,237.878a33.329,33.329,0,0,1,32.48,26.089,26.688,26.688,0,0,1-20.271,31.784,21.366,21.366,0,0,1-25.475-16.248h0a17.151,17.151,0,0,1,13.028-20.427,13.818,13.818,0,0,1,15.455,7.664.2.2,0,0,1-.368.169,13.409,13.409,0,0,0-15-7.438,16.748,16.748,0,0,0-12.722,19.946,20.961,20.961,0,0,0,24.993,15.939,26.282,26.282,0,0,0,19.964-31.3,32.9,32.9,0,0,0-39.188-24.994,41.073,41.073,0,0,0-27.536,21.043.2.2,0,0,1-.36-.186l0,0A41.479,41.479,0,0,1,1069,238.667a33.231,33.231,0,0,1,7.189-.789Z" fill="#fff"/>
      <path id="Path_81" data-name="Path 81" d="M1036.86,283.379a.2.2,0,0,1,.2.181,41.817,41.817,0,0,0,.745,4.546,51.569,51.569,0,0,0,51.224,40.353.2.2,0,0,1,.008.4,51.888,51.888,0,0,1-51.627-40.67,42.151,42.151,0,0,1-.752-4.59.2.2,0,0,1,.18-.223h.021Z" fill="#fff"/>
      <path id="Path_82" data-name="Path 82" d="M1148.33,250.231a.2.2,0,0,1,.2.159,64.731,64.731,0,0,1-21.126,63.223.2.2,0,0,1-.271-.3l.008-.007a64.331,64.331,0,0,0,21-62.829.2.2,0,0,1,.153-.241.22.22,0,0,1,.044,0Z" fill="#fff"/>
      <path id="Path_83" data-name="Path 83" d="M1092.47,306.459H1124a3.439,3.439,0,0,1,3.436,3.436v25.669A3.439,3.439,0,0,1,1124,339H1092.47a3.441,3.441,0,0,1-3.436-3.436V309.895A3.441,3.441,0,0,1,1092.47,306.459ZM1124,338.6a3.035,3.035,0,0,0,3.032-3.032V309.895a3.035,3.035,0,0,0-3.032-3.032H1092.47a3.035,3.035,0,0,0-3.031,3.032v25.669a3.035,3.035,0,0,0,3.031,3.032Z" fill="#fff"/>
      <g id="Group_10" data-name="Group 10">
        <path id="Path_411" data-name="Path 411" d="M1120.417,314.167H1104.5a.551.551,0,0,1-.561-.5.531.531,0,0,1,.5-.559h16.227c.534.469.208,1.063-.255,1.063Z" fill="#ccc"/>
        <path id="Path_412" data-name="Path 412" d="M1120.417,316.958H1104.5a.551.551,0,0,1-.561-.5.531.531,0,0,1,.5-.559h16.227c.534.469.208,1.063-.255,1.063Z" fill="#ccc"/>
        <path id="Path_413" data-name="Path 413" d="M1101.064,318.548h-4.857a.6.6,0,0,1-.6-.6v-5.732a.6.6,0,0,1,.6-.6h4.857a.6.6,0,0,1,.6.6v5.732A.6.6,0,0,1,1101.064,318.548Z" fill="#90e189"/>
        <path id="Path_414" data-name="Path 414" d="M1120.37,322.673h-24.286a.552.552,0,0,1-.561-.5.532.532,0,0,1,.5-.56h24.6c.534.469.208,1.064-.255,1.064Z" fill="#ccc"/>
        <path id="Path_415" data-name="Path 415" d="M1120.37,325.466h-24.286a.553.553,0,0,1-.561-.5.531.531,0,0,1,.5-.559h24.6c.534.469.208,1.064-.255,1.064Z" fill="#ccc"/>
        <path id="Path_416" data-name="Path 416" d="M1120.37,328.256h-24.286a.552.552,0,0,1-.561-.5.532.532,0,0,1,.5-.56h24.6c.534.469.208,1.064-.255,1.064Z" fill="#ccc"/>
        <path id="Path_417" data-name="Path 417" d="M1120.37,331.048h-24.286a.552.552,0,0,1-.561-.5.532.532,0,0,1,.5-.56h24.6c.534.469.208,1.064-.255,1.064Z" fill="#ccc"/>
        <path id="Path_418" data-name="Path 418" d="M1120.37,333.838h-24.286a.552.552,0,0,1-.561-.5.531.531,0,0,1,.5-.559h24.6c.534.469.208,1.063-.255,1.063Z" fill="#ccc"/>
      </g>
      <path id="Path_84" data-name="Path 84" d="M1027.691,259.807h22.84a2.7,2.7,0,0,1,2.691,2.691v18.594a2.694,2.694,0,0,1-2.691,2.691h-22.84a2.694,2.694,0,0,1-2.691-2.691V262.5A2.694,2.694,0,0,1,1027.691,259.807Zm22.84,23.572a2.289,2.289,0,0,0,2.286-2.287V262.5a2.289,2.289,0,0,0-2.286-2.287h-22.84a2.291,2.291,0,0,0-2.287,2.287v18.594a2.29,2.29,0,0,0,2.287,2.287Z" fill="#fff"/>
      <g id="Group_11" data-name="Group 11">
        <path id="Path_411-2" data-name="Path 411-2" d="M1047.934,265.593h-11.526a.4.4,0,0,1-.407-.364.386.386,0,0,1,.364-.406h11.754c.386.34.151.77-.185.77Z" fill="#ccc"/>
        <path id="Path_412-2" data-name="Path 412-2" d="M1047.934,267.615h-11.526a.4.4,0,0,1-.407-.364.386.386,0,0,1,.364-.406h11.754c.386.34.151.77-.185.77Z" fill="#ccc"/>
        <path id="Path_413-2" data-name="Path 413-2" d="M1033.915,268.766H1030.4a.435.435,0,0,1-.434-.434v-4.151a.434.434,0,0,1,.434-.433h3.516a.434.434,0,0,1,.434.433v4.151A.435.435,0,0,1,1033.915,268.766Z" fill="#90e189"/>
        <path id="Path_414-2" data-name="Path 414-2" d="M1047.9,271.754h-17.592a.4.4,0,0,1-.407-.363.386.386,0,0,1,.364-.406h17.819c.387.339.151.77-.185.77Z" fill="#ccc"/>
        <path id="Path_415-2" data-name="Path 415-2" d="M1047.9,273.777h-17.592a.4.4,0,0,1-.407-.364.386.386,0,0,1,.364-.4h17.819c.387.34.151.77-.185.77Z" fill="#ccc"/>
        <path id="Path_416-2" data-name="Path 416-2" d="M1047.9,275.8h-17.592a.4.4,0,0,1-.407-.364.386.386,0,0,1,.364-.4h17.819c.387.34.151.771-.185.771Z" fill="#ccc"/>
        <path id="Path_417-2" data-name="Path 417-2" d="M1047.9,277.82h-17.592a.4.4,0,0,1-.407-.364.386.386,0,0,1,.364-.4h17.819c.387.34.151.771-.185.771Z" fill="#ccc"/>
        <path id="Path_418-2" data-name="Path 418-2" d="M1047.9,279.842h-17.592a.4.4,0,0,1-.407-.364.386.386,0,0,1,.364-.406h17.819c.387.34.151.77-.185.77Z" fill="#ccc"/>
      </g>
      <path id="Path_85" data-name="Path 85" d="M1083.815,266.547h14.48a1.781,1.781,0,0,1,1.78,1.78v11.788a1.782,1.782,0,0,1-1.78,1.78h-14.48a1.782,1.782,0,0,1-1.78-1.78V268.327a1.781,1.781,0,0,1,1.78-1.78Zm14.48,14.944a1.379,1.379,0,0,0,1.376-1.376V268.327a1.378,1.378,0,0,0-1.376-1.376h-14.48a1.377,1.377,0,0,0-1.376,1.376v11.788a1.378,1.378,0,0,0,1.376,1.376Z" fill="#fff"/>
      <g id="Group_12" data-name="Group 12">
        <path id="Path_86" data-name="Path 86" d="M1086.1,275.484h9.9a.91.91,0,0,0,0-1.819h-9.9a.91.91,0,1,0,0,1.819Z" fill="#ccc"/>
        <path id="Path_87" data-name="Path 87" d="M1088.125,271.745h5.861a.91.91,0,1,0,0-1.819h-5.861a.91.91,0,1,0,0,1.819Z" fill="#ccc"/>
        <path id="Path_88" data-name="Path 88" d="M1086.1,278.516h9.9a.91.91,0,0,0,0-1.819h-9.9a.91.91,0,1,0,0,1.819Z" fill="#ccc"/>
      </g>
      <circle id="Ellipse_11" data-name="Ellipse 11" cx="2.83" cy="2.83" r="2.83" transform="translate(1141.458 287.826)" fill="#90e189"/>
      <circle id="Ellipse_12" data-name="Ellipse 12" cx="2.83" cy="2.83" r="2.83" transform="translate(1051.515 312.686)" fill="#90e189"/>
      <circle id="Ellipse_13" data-name="Ellipse 13" cx="2.83" cy="2.83" r="2.83" transform="translate(1082.439 236.285)" fill="#90e189"/>
    </g>
    <circle id="Ellipse_2" data-name="Ellipse 2" cx="7.954" cy="7.954" r="7.954" transform="translate(1154.171 309.266)" fill="#90e189"/>
    <path id="Path_13" data-name="Path 13" d="M1170.678,336.21a11.68,11.68,0,1,1,11.681-11.681h0A11.681,11.681,0,0,1,1170.678,336.21Zm0-23.092a11.411,11.411,0,1,0,11.412,11.411h0A11.411,11.411,0,0,0,1170.678,313.118Z" fill="#fff"/>
    <g id="Group_23" data-name="Group 23">
      <g id="Group_2" data-name="Group 2">
        <path id="Path_25" data-name="Path 25" d="M1301.748,295.244H1125.9a4.533,4.533,0,0,1-4.528-4.528V182.282a3.321,3.321,0,0,1,3.317-3.317H1302.9a3.379,3.379,0,0,1,3.375,3.376V290.716A4.533,4.533,0,0,1,1301.748,295.244Z" stroke="#3f3d56" stroke-miterlimit="10" stroke-width="3" fill="url(#linear-gradient-2)"/>
        <path id="Path_26" data-name="Path 26" d="M1296.062,289.528h-163.89a4.23,4.23,0,0,1-4.357-4.08V191.022a3.135,3.135,0,0,1,3.228-3.026h166.094a3.187,3.187,0,0,1,3.282,3.075v94.375A4.231,4.231,0,0,1,1296.062,289.528Z" opacity="0.1" style="isolation: isolate"/>
        <path id="Path_27" data-name="Path 27" d="M1306.212,182.847H1121v-2.306a4.552,4.552,0,0,1,4.552-4.541h176.109a4.551,4.551,0,0,1,4.551,4.541Z" fill="#3f3d56"/>
        <circle id="Ellipse_3" data-name="Ellipse 3" cx="1.175" cy="1.175" r="1.175" transform="translate(1128.387 178.255)" fill="#fff"/>
        <circle id="Ellipse_4" data-name="Ellipse 4" cx="1.175" cy="1.175" r="1.175" transform="translate(1132.848 178.255)" fill="#fff"/>
        <circle id="Ellipse_5" data-name="Ellipse 5" cx="1.175" cy="1.175" r="1.175" transform="translate(1137.31 178.255)" fill="#fff"/>
      </g>
      <g id="Group_14" data-name="Group 14">
        <g id="Group_13" data-name="Group 13">
          <path id="Path_54" data-name="Path 54" d="M1256.193,226.475l15.292-5.449,15.7,5.351-2.543,20.234-13.161,7.289-12.956-7.192Z" fill="#e23237"/>
          <path id="Path_55" data-name="Path 55" d="M1287.189,226.377l-15.7-5.352V253.9l13.161-7.277Z" fill="#b52e31"/>
        </g>
        <path id="Path_56" data-name="Path 56" d="M1271.509,224.864l-9.529,21.2,3.56-.061,1.913-4.783H1276l2.1,4.844,3.4.06-9.989-21.262Zm.023,6.793,3.221,6.732H1268.7Z" fill="#fff"/>
      </g>
      <g id="Group_14-2" data-name="Group 14">
        <path id="Path_57" data-name="Path 57" d="M1196.4,237.322c-.009,2.966,2.878,5.744,7.439,7.319-.926,4.587-.189,8.289,2.306,9.739,2.563,1.49,6.4.476,10.039-2.688,3.531,3.059,7.107,4.269,9.609,2.831,2.572-1.477,3.365-5.426,2.443-10.162,4.76-1.558,7.428-3.91,7.438-6.915.009-2.9-2.885-5.413-7.383-6.978,1.025-4.926.181-8.538-2.418-10.049-2.505-1.455-6.129-.205-9.733,2.911-3.728-3.331-7.31-4.356-9.915-2.859-2.512,1.444-3.239,5.209-2.339,9.887C1199.47,231.883,1196.412,234.436,1196.4,237.322Z" fill="#fff"/>
        <path id="Path_58" data-name="Path 58" d="M1227.333,232.005q-.556-.192-1.121-.357c.063-.254.122-.509.175-.765.863-4.124.318-7.449-1.576-8.549-1.816-1.055-4.8.03-7.809,2.636q-.445.386-.872.794-.282-.273-.576-.535c-3.141-2.807-6.294-4-8.193-2.9-1.821,1.047-2.37,4.17-1.617,8.082q.112.581.254,1.156c-.447.126-.879.26-1.292.4-3.7,1.276-6.062,3.286-6.068,5.379-.007,2.161,2.518,4.338,6.36,5.665q.468.16.942.3-.156.618-.278,1.244c-.741,3.84-.181,6.892,1.628,7.944,1.869,1.086,5.016-.014,8.085-2.68q.363-.315.729-.668.459.444.94.863c2.957,2.56,5.881,3.6,7.7,2.556,1.874-1.076,2.492-4.352,1.716-8.342-.06-.3-.128-.615-.206-.933q.331-.1.65-.2c4-1.312,6.611-3.446,6.617-5.636.007-2.1-2.421-4.14-6.184-5.448Z" fill="#50c0dc"/>
        <path id="Path_59" data-name="Path 59" d="M1226.435,241.674c-.19.062-.387.122-.586.181a34.937,34.937,0,0,0-1.752-4.424,34.987,34.987,0,0,0,1.711-4.349q.534.157,1.036.331c3.224,1.121,5.188,2.77,5.184,4.036-.005,1.348-2.137,3.092-5.592,4.225Zm-1.441,2.834a12.65,12.65,0,0,1,.154,4.6,3.083,3.083,0,0,1-1.149,2.162c-1.1.633-3.45-.2-5.977-2.391q-.437-.377-.875-.8a34.879,34.879,0,0,0,2.935-3.7,34.877,34.877,0,0,0,4.725-.714c.07.288.132.569.186.845Zm-14.508,6.613a3.077,3.077,0,0,1-2.446.085c-1.1-.638-1.548-3.089-.914-6.373q.114-.582.259-1.157a34.943,34.943,0,0,0,4.7.7,36.265,36.265,0,0,0,2.982,3.708q-.325.312-.666.61a12.632,12.632,0,0,1-3.912,2.432Zm-5-9.521a12.643,12.643,0,0,1-4.061-2.174,3.079,3.079,0,0,1-1.295-2.076c0-1.27,1.9-2.884,5.064-3.975q.6-.205,1.2-.374a35.64,35.64,0,0,0,1.686,4.409,36.219,36.219,0,0,0-1.735,4.462q-.433-.126-.861-.273Zm1.723-11.474c-.645-3.352-.2-5.878.9-6.509,1.169-.672,3.746.3,6.458,2.723.173.154.347.317.521.485a35.675,35.675,0,0,0-2.982,3.667,36.41,36.41,0,0,0-4.657.709q-.132-.536-.236-1.077Zm15.033,3.762q-.508-.885-1.055-1.747c1.113.144,2.179.333,3.179.566a32,32,0,0,1-1.126,3q-.482-.919-1-1.818Zm-6.116-6a31.99,31.99,0,0,1,2.045,2.484q-2.061-.1-4.123-.014c.681-.891,1.377-1.719,2.077-2.47Zm-6.194,5.967q-.516.888-.99,1.8c-.431-1.03-.8-2.043-1.1-3.021,1-.22,2.058-.4,3.164-.533q-.558.865-1.075,1.755Zm1.073,8.907a32.011,32.011,0,0,1-3.213-.527c.311-.993.694-2.025,1.14-3.076q.471.915.984,1.807.523.914,1.089,1.8Zm5.1,4.244c-.7-.764-1.405-1.61-2.09-2.518q1,.042,2.04.046,1.066,0,2.106-.04a31.683,31.683,0,0,1-2.056,2.512Zm7.138-7.854a31.413,31.413,0,0,1,1.161,3.072,31.665,31.665,0,0,1-3.255.544q.555-.874,1.077-1.771Q1222.754,240.088,1223.243,239.155Zm-2.306,1.1q-.8,1.375-1.682,2.695c-1.035.071-2.1.1-3.194.1s-2.141-.04-3.157-.109q-.9-1.323-1.7-2.71t-1.48-2.815q.693-1.431,1.493-2.807h0q.8-1.375,1.7-2.687c1.037-.075,2.1-.113,3.176-.109s2.145.048,3.181.13q.883,1.315,1.672,2.689t1.495,2.8q-.7,1.436-1.508,2.819Zm3.128-16.628c1.165.677,1.611,3.4.866,6.954q-.074.348-.159.692a35.618,35.618,0,0,0-4.661-.751,34.984,34.984,0,0,0-2.937-3.689q.393-.376.805-.733c2.582-2.233,4.991-3.11,6.086-2.474Z" fill="#fff"/>
        <path id="Path_60" data-name="Path 60" d="M1216.088,234.284a3.115,3.115,0,1,1-3.125,3.1,3.115,3.115,0,0,1,3.125-3.1" fill="#50c0dc"/>
      </g>
      <g id="Group_22" data-name="Group 22">
        <g id="Group_15" data-name="Group 15">
          <path id="Path_13-2" data-name="Path 13" d="M1160.129,254.163a.853.853,0,0,1-.428-.115l-1.363-.807c-.2-.114-.1-.154-.037-.177a2.743,2.743,0,0,0,.616-.281.1.1,0,0,1,.1.008l1.048.622a.136.136,0,0,0,.127,0l4.083-2.357a.131.131,0,0,0,.063-.111v-4.713a.131.131,0,0,0-.064-.112l-4.082-2.356a.128.128,0,0,0-.126,0l-4.081,2.356a.131.131,0,0,0-.065.112v4.713a.124.124,0,0,0,.065.109l1.119.647c.607.3.978-.054.978-.413v-4.654a.118.118,0,0,1,.119-.117h.518a.117.117,0,0,1,.118.117v4.654a1.131,1.131,0,0,1-1.209,1.274,1.752,1.752,0,0,1-.941-.255l-1.071-.617a.864.864,0,0,1-.428-.745v-4.713a.861.861,0,0,1,.428-.744l4.084-2.36a.9.9,0,0,1,.858,0l4.084,2.36a.861.861,0,0,1,.429.744v4.713a.864.864,0,0,1-.429.745l-4.084,2.358A.85.85,0,0,1,1160.129,254.163Z" fill="#669e66"/>
          <path id="Path_14" data-name="Path 14" d="M1161.391,250.916c-1.787,0-2.162-.821-2.162-1.509a.117.117,0,0,1,.118-.117h.528a.119.119,0,0,1,.118.1c.079.537.317.808,1.4.808.86,0,1.227-.194,1.227-.651,0-.263-.1-.458-1.441-.589-1.118-.111-1.809-.357-1.809-1.251,0-.824.695-1.316,1.859-1.316,1.308,0,1.956.454,2.038,1.429a.118.118,0,0,1-.118.128h-.53a.117.117,0,0,1-.114-.092c-.128-.566-.437-.747-1.276-.747-.939,0-1.048.328-1.048.573,0,.3.128.383,1.4.551s1.851.4,1.851,1.283S1162.685,250.916,1161.391,250.916Z" fill="#669e66"/>
        </g>
        <g id="Group_16" data-name="Group 16">
          <path id="Path_15" data-name="Path 15" d="M1167.28,245.973a.787.787,0,1,1-.787-.787A.789.789,0,0,1,1167.28,245.973Zm-1.447,0a.66.66,0,1,0,.658-.658A.66.66,0,0,0,1165.833,245.971Zm.364-.44h.3c.1,0,.308,0,.308.234a.2.2,0,0,1-.166.216c.121.009.129.088.145.2a.873.873,0,0,0,.046.233h-.187c0-.041-.034-.266-.034-.279-.012-.05-.029-.075-.091-.075h-.154v.354h-.171Zm.167.388h.137a.119.119,0,0,0,.133-.125c0-.121-.083-.121-.129-.121h-.141Z" fill="#669e66"/>
        </g>
        <path id="Path_16" data-name="Path 16" d="M1147.483,235.723a.521.521,0,0,0-.262-.454l-4.329-2.492a.524.524,0,0,0-.239-.069h-.045a.531.531,0,0,0-.239.069l-4.329,2.492a.523.523,0,0,0-.262.454l.009,6.71a.259.259,0,0,0,.131.226.253.253,0,0,0,.26,0l2.573-1.474a.525.525,0,0,0,.262-.453V237.6a.522.522,0,0,1,.261-.453l1.095-.631a.524.524,0,0,1,.263-.07.515.515,0,0,1,.26.07l1.1.631a.522.522,0,0,1,.261.453v3.135a.527.527,0,0,0,.263.453l2.572,1.474a.256.256,0,0,0,.262,0,.263.263,0,0,0,.129-.226Z" fill="#333" fill-rule="evenodd"/>
        <path id="Path_17" data-name="Path 17" d="M1168.316,226.5a.262.262,0,0,0-.389.228v6.645a.182.182,0,0,1-.274.158l-1.084-.624a.523.523,0,0,0-.523,0l-4.332,2.5a.521.521,0,0,0-.261.452v5a.523.523,0,0,0,.261.453l4.332,2.5a.525.525,0,0,0,.523,0l4.332-2.5a.523.523,0,0,0,.261-.453V228.4a.521.521,0,0,0-.268-.457Zm-.4,12.717a.129.129,0,0,1-.066.113l-1.487.857a.128.128,0,0,1-.131,0l-1.487-.857a.13.13,0,0,1-.065-.113V237.5a.133.133,0,0,1,.065-.114l1.487-.859a.133.133,0,0,1,.131,0l1.487.859a.132.132,0,0,1,.066.114Z" fill="#333" fill-rule="evenodd"/>
        <g id="Group_17" data-name="Group 17">
          <path id="Path_18" data-name="Path 18" d="M1182.74,237.455A.524.524,0,0,0,1183,237v-1.212a.524.524,0,0,0-.26-.453l-4.3-2.5a.522.522,0,0,0-.524,0l-4.33,2.5a.523.523,0,0,0-.262.453v5a.522.522,0,0,0,.265.454l4.3,2.452a.519.519,0,0,0,.512,0l2.6-1.447a.261.261,0,0,0,0-.455l-4.357-2.5a.262.262,0,0,1-.131-.227V237.5a.261.261,0,0,1,.13-.226l1.357-.782a.259.259,0,0,1,.261,0l1.356.782a.262.262,0,0,1,.131.226v1.233a.261.261,0,0,0,.393.226Z" fill="#333" fill-rule="evenodd"/>
          <path id="Path_19" data-name="Path 19" d="M1178.11,237.221a.1.1,0,0,1,.1,0l.832.479a.1.1,0,0,1,.05.087v.96a.1.1,0,0,1-.05.087l-.832.479a.1.1,0,0,1-.1,0l-.83-.479a.1.1,0,0,1-.051-.087v-.96a.1.1,0,0,1,.051-.087Z" fill="#669e66" fill-rule="evenodd"/>
        </g>
        <g id="Group_21" data-name="Group 21">
          <path id="Path_20" data-name="Path 20" d="M1154.728,232.865a.519.519,0,0,0-.52,0l-4.307,2.486a.518.518,0,0,0-.26.45v4.975a.521.521,0,0,0,.26.451l4.307,2.487a.521.521,0,0,0,.521,0l4.306-2.487a.521.521,0,0,0,.26-.451V235.8a.518.518,0,0,0-.26-.45Z" fill-rule="evenodd" fill="url(#linear-gradient)"/>
          <g id="Group_20" data-name="Group 20" clip-path="url(#clip-path)">
            <g id="Group_18" data-name="Group 18">
              <path id="Path_21" data-name="Path 21" d="M1154.2,232.865l-4.316,2.486a.535.535,0,0,0-.278.45v4.975a.5.5,0,0,0,.134.331l4.85-8.3A.532.532,0,0,0,1154.2,232.865Z" fill="none"/>
              <path id="Path_22" data-name="Path 22" d="M1154.613,243.765a.557.557,0,0,0,.121-.051l4.312-2.487a.532.532,0,0,0,.27-.451V235.8a.513.513,0,0,0-.157-.361Z" fill="none"/>
              <path id="Path_23" data-name="Path 23" d="M1159.043,235.351l-4.319-2.486a.521.521,0,0,0-.135-.054l-4.85,8.3a.616.616,0,0,0,.145.12l4.327,2.487a.524.524,0,0,0,.4.051l4.546-8.325A.526.526,0,0,0,1159.043,235.351Z" fill="url(#linear-gradient-4)"/>
            </g>
            <g id="Group_19" data-name="Group 19">
              <path id="Path_24" data-name="Path 24" d="M1159.316,240.776V235.8a.53.53,0,0,0-.273-.45l-4.319-2.486a.516.516,0,0,0-.159-.058l4.735,8.089A.481.481,0,0,0,1159.316,240.776Z" fill="none"/>
              <path id="Path_25-2" data-name="Path 25" d="M1149.883,235.351a.535.535,0,0,0-.278.45v4.975a.539.539,0,0,0,.279.451l4.327,2.487a.526.526,0,0,0,.333.065l-4.635-8.443Z" fill="none"/>
              <path id="Path_26-2" data-name="Path 26" d="M1154.065,231.951l-.059.034h.079Z" fill="url(#linear-gradient-5)"/>
              <path id="Path_27-2" data-name="Path 27" d="M1159.046,241.227a.547.547,0,0,0,.254-.331l-4.735-8.089a.527.527,0,0,0-.366.058l-4.29,2.471,4.635,8.443a.505.505,0,0,0,.19-.065Z" fill="url(#linear-gradient-6)"/>
              <path id="Path_28" data-name="Path 28" d="M1159.447,241.147l-.029-.049v.065Z" fill="url(#linear-gradient-7)"/>
              <path id="Path_29" data-name="Path 29" d="M1159.046,241.227l-4.312,2.487a.505.505,0,0,1-.19.065l.086.156,4.789-2.772V241.1l-.119-.2A.547.547,0,0,1,1159.046,241.227Z" fill="url(#linear-gradient-8)"/>
              <path id="Path_30" data-name="Path 30" d="M1159.046,241.227l-4.312,2.487a.505.505,0,0,1-.19.065l.086.156,4.789-2.772V241.1l-.119-.2A.547.547,0,0,1,1159.046,241.227Z" fill="url(#linear-gradient-9)"/>
            </g>
          </g>
        </g>
      </g>
    </g>
  </g>
</svg>
