<svg xmlns="http://www.w3.org/2000/svg" xmlns:xlink="http://www.w3.org/1999/xlink" width="294.385" height="169.147" viewBox="0 0 294.385 169.147">
  <defs>
    <linearGradient id="linear-gradient" y1="0.5" x2="1" y2="0.5" gradientUnits="objectBoundingBox">
      <stop offset="0" stop-color="#805da7"/>
      <stop offset="1" stop-color="#9474b6"/>
    </linearGradient>
  </defs>
  <g id="Web_and_Mobile_App_Development_Graphic" data-name="Web and Mobile App Development Graphic" transform="translate(-337.627 -182)">
    <circle id="Ellipse_1" data-name="Ellipse 1" cx="15.31" cy="15.31" r="15.31" transform="translate(386.103 301.525)" fill="#f2f2f2"/>
    <circle id="Ellipse_2" data-name="Ellipse 2" cx="15.31" cy="15.31" r="15.31" transform="translate(388.592 299.284)" fill="#90e189"/>
    <rect id="Rectangle_1" data-name="Rectangle 1" width="189.422" height="0.517" transform="translate(416.232 297.654)" fill="#fff"/>
    <path id="Path_1" data-name="Path 1" d="M514.333,186.82H447.1v-1.385H416.614v1.385H349.1a4.548,4.548,0,0,0-4.548,4.548h0V283.43a4.549,4.549,0,0,0,4.548,4.549H514.333a4.549,4.549,0,0,0,4.548-4.549V191.368a4.548,4.548,0,0,0-4.548-4.548Z" fill="#3f3d56"/>
    <rect id="Rectangle_2" data-name="Rectangle 2" width="162.13" height="91.458" transform="translate(350.654 194.857)" fill="url(#linear-gradient)"/>
    <circle id="Ellipse_3" data-name="Ellipse 3" cx="1.663" cy="1.663" r="1.663" transform="translate(429.917 189.037)" fill="#dbd1ff"/>
    <path id="Path_2" data-name="Path 2" d="M466.417,286.315H350.654V194.857Z" opacity="0.1" style="isolation: isolate"/>
    <circle id="Ellipse_4" data-name="Ellipse 4" cx="15.585" cy="15.585" r="15.585" transform="translate(360.438 248.303)" fill="#f2f2f2"/>
    <rect id="Rectangle_3" data-name="Rectangle 3" width="15.145" height="3.165" transform="translate(469.41 244.181)" fill="#3f3d56"/>
    <rect id="Rectangle_4" data-name="Rectangle 4" width="51.763" height="1.356" transform="translate(451.1 219.543)" fill="#3f3d56"/>
    <rect id="Rectangle_5" data-name="Rectangle 5" width="51.763" height="1.356" transform="translate(451.1 223.838)" fill="#3f3d56"/>
    <rect id="Rectangle_6" data-name="Rectangle 6" width="51.763" height="1.356" transform="translate(451.1 228.133)" fill="#3f3d56"/>
    <rect id="Rectangle_7" data-name="Rectangle 7" width="51.763" height="1.356" transform="translate(451.1 232.427)" fill="#3f3d56"/>
    <rect id="Rectangle_8" data-name="Rectangle 8" width="51.763" height="1.356" transform="translate(451.1 236.722)" fill="#3f3d56"/>
    <rect id="Rectangle_9" data-name="Rectangle 9" width="6.329" height="6.329" transform="translate(496.534 196.713)" fill="#f2f2f2"/>
    <path id="Path_3" data-name="Path 3" d="M505.8,205.981h-7.685v-7.686H505.8Zm-7.351-.335h7.016v-7.017h-7.016Z" fill="#3f3d56"/>
    <path id="Path_4" data-name="Path 4" d="M523.433,284.653H507.61v-1.141a.226.226,0,0,0-.226-.226h-5.425a.226.226,0,0,0-.226.226h0v1.141h-3.39v-1.141a.227.227,0,0,0-.227-.226h-5.424a.226.226,0,0,0-.226.226h0v1.141h-3.391v-1.141a.226.226,0,0,0-.226-.226h-5.425a.226.226,0,0,0-.226.226h0v1.14h-3.392v-1.14a.226.226,0,0,0-.226-.226h-5.424a.226.226,0,0,0-.226.226h0v1.14h-3.39v-1.14a.226.226,0,0,0-.226-.226h-5.425a.227.227,0,0,0-.227.226h0v1.14h-3.39v-1.14a.226.226,0,0,0-.226-.226h-5.425a.226.226,0,0,0-.226.226h0v1.14H452v-1.14a.226.226,0,0,0-.226-.226H409.284a.226.226,0,0,0-.226.226h0v1.14h-3.392v-1.14a.226.226,0,0,0-.226-.226h-5.425a.226.226,0,0,0-.226.226h0v1.14H396.4v-1.14a.226.226,0,0,0-.226-.226h-5.425a.226.226,0,0,0-.226.226h0v1.14h-3.39v-1.14a.227.227,0,0,0-.227-.226h-5.425a.226.226,0,0,0-.226.226h0v1.14h-3.39v-1.14a.226.226,0,0,0-.226-.226h-5.425a.226.226,0,0,0-.226.226h0v1.14H368.6v-1.14a.226.226,0,0,0-.226-.226h-5.425a.226.226,0,0,0-.226.226h0v1.14h-3.39v-1.14a.227.227,0,0,0-.227-.226h-5.424a.226.226,0,0,0-.226.226h0v1.14h-10.4a5.425,5.425,0,0,0-5.425,5.425v2.453a5.425,5.425,0,0,0,5.425,5.425H523.433a5.424,5.424,0,0,0,5.425-5.425v-2.452A5.424,5.424,0,0,0,523.433,284.653Z" fill="#3f3d56"/>
    <path id="Path_5" data-name="Path 5" d="M379.794,273.621a19.64,19.64,0,1,1,19.64-19.64,19.64,19.64,0,0,1-19.64,19.64Zm0-38.763a19.123,19.123,0,1,0,19.123,19.123,19.123,19.123,0,0,0-19.123-19.123Z" fill="#3f3d56"/>
    <rect id="Rectangle_10" data-name="Rectangle 10" width="65.897" height="0.517" transform="translate(489.106 190.41)" fill="#fff"/>
    <rect id="Rectangle_11" data-name="Rectangle 11" width="189.422" height="0.517" transform="translate(442.59 326.855)" fill="#fff"/>
    <rect id="Rectangle_12" data-name="Rectangle 12" width="65.897" height="0.517" transform="translate(387.418 350.63)" fill="#fff"/>
    <rect id="Rectangle_13" data-name="Rectangle 13" width="7.236" height="7.236" transform="translate(459.343 324.131)" fill="#90e189"/>
    <path id="Path_6" data-name="Path 6" d="M470.972,327.232h-8.786v-8.786h8.786Zm-8.4-.382h8.022v-8.022h-8.022Z" fill="#fff"/>
    <rect id="Rectangle_14" data-name="Rectangle 14" width="7.236" height="7.236" transform="translate(543.33 187.685)" fill="#90e189"/>
    <path id="Path_7" data-name="Path 7" d="M554.959,190.786h-8.787V182h8.787Zm-8.4-.382h8.022v-8.022h-8.022Z" fill="#fff"/>
    <rect id="Rectangle_15" data-name="Rectangle 15" width="7.236" height="7.236" transform="translate(616.204 324.131)" fill="#90e189"/>
    <path id="Path_8" data-name="Path 8" d="M627.833,327.232h-8.786v-8.786h8.786Zm-8.4-.382h8.022v-8.022h-8.022Z" fill="#fff"/>
    <path id="Path_9" data-name="Path 9" d="M610.821,241.943h-.614V225.1a9.746,9.746,0,0,0-9.746-9.746H564.785a9.745,9.745,0,0,0-9.746,9.746v92.38a9.746,9.746,0,0,0,9.746,9.746h35.676a9.747,9.747,0,0,0,9.746-9.746V253.929h.615Z" fill="#3f3d56"/>
    <path id="Path_10" data-name="Path 10" d="M608.131,225.677v92.244a7.278,7.278,0,0,1-7.277,7.28H565.007a7.278,7.278,0,0,1-7.277-7.278V225.677a7.278,7.278,0,0,1,7.277-7.278h4.349a3.458,3.458,0,0,0,3.2,4.763H593a3.459,3.459,0,0,0,3.2-4.763h4.656a7.278,7.278,0,0,1,7.277,7.277Z" fill="url(#linear-gradient)"/>
    <rect id="Rectangle_16" data-name="Rectangle 16" width="10.679" height="3.165" transform="translate(577.591 279.222)" fill="#3f3d56"/>
    <rect id="Rectangle_17" data-name="Rectangle 17" width="36.499" height="1.356" transform="translate(564.681 254.584)" fill="#3f3d56"/>
    <rect id="Rectangle_18" data-name="Rectangle 18" width="36.499" height="1.356" transform="translate(564.681 258.878)" fill="#3f3d56"/>
    <rect id="Rectangle_19" data-name="Rectangle 19" width="36.499" height="1.356" transform="translate(564.681 263.173)" fill="#3f3d56"/>
    <rect id="Rectangle_20" data-name="Rectangle 20" width="36.499" height="1.356" transform="translate(564.681 267.468)" fill="#3f3d56"/>
    <rect id="Rectangle_21" data-name="Rectangle 21" width="36.499" height="1.356" transform="translate(564.681 271.763)" fill="#3f3d56"/>
    <rect id="Rectangle_22" data-name="Rectangle 22" width="6.329" height="6.329" transform="translate(577.876 236.573)" fill="#f2f2f2"/>
    <path id="Path_11" data-name="Path 11" d="M580.3,238.156v7.685h7.685v-7.685Zm7.352,7.352h-7.019v-7.019h7.019Z" fill="#3f3d56"/>
    <path id="Path_12" data-name="Path 12" d="M608.131,308.071v9.85a7.278,7.278,0,0,1-7.277,7.28H565.007a7.278,7.278,0,0,1-7.277-7.278V268.251l30.2,23.86.517.408,5.618,4.437.524.416Z" opacity="0.1" style="isolation: isolate"/>
    <circle id="Ellipse_5" data-name="Ellipse 5" cx="11.336" cy="11.336" r="11.336" transform="translate(568.493 299.539)" fill="#f2f2f2"/>
    <path id="Path_13" data-name="Path 13" d="M420.366,351.147a22.482,22.482,0,1,1,22.483-22.483h0A22.483,22.483,0,0,1,420.366,351.147Zm0-44.448a21.965,21.965,0,1,0,21.966,21.965h0A21.965,21.965,0,0,0,420.366,306.7Z" fill="#fff"/>
    <path id="Path_14" data-name="Path 14" d="M583.171,319.62a14.213,14.213,0,1,1,14.213-14.213h0a14.214,14.214,0,0,1-14.213,14.213Zm0-27.91a13.7,13.7,0,1,0,13.7,13.7h0a13.7,13.7,0,0,0-13.7-13.7Z" fill="#3f3d56"/>
  </g>
</svg>
