<svg xmlns="http://www.w3.org/2000/svg" width="207.282" height="260.283" viewBox="0 0 207.282 260.283">
  <g id="Dotted_Circle_and_Small_Circle" data-name="Dotted Circle and Small Circle" transform="translate(-1271.662 -424.717)" opacity="0.25">
    <path id="Path_1" data-name="Path 1" d="M1375.673,484.342a29.813,29.813,0,1,1,29.813-29.813A29.847,29.847,0,0,1,1375.673,484.342Z" fill="#fff"/>
    <path id="Path_2" data-name="Path 2" d="M1375.594,657.191a2.757,2.757,0,0,1-2.695-2.847h0a2.778,2.778,0,0,1,2.848-2.709h0a2.779,2.779,0,0,1,2.7,2.861h0a2.779,2.779,0,0,1-2.778,2.7h-.07Zm8.46-2.861a2.78,2.78,0,0,1,2.528-3h0a2.783,2.783,0,0,1,3.014,2.527h0a2.8,2.8,0,0,1-2.542,3.014h0v-.013h0a1.348,1.348,0,0,1-.236.013h0A2.778,2.778,0,0,1,1384.054,654.33Zm-19.892,1.9a2.77,2.77,0,0,1-2.361-3.139h0a2.774,2.774,0,0,1,3.139-2.362h0a2.778,2.778,0,0,1,2.361,3.141h0a2.779,2.779,0,0,1-2.75,2.389h0A3.391,3.391,0,0,1,1364.162,656.232Zm30.977-3.166a2.784,2.784,0,0,1,2.181-3.265h0a2.784,2.784,0,0,1,3.278,2.168h0a2.8,2.8,0,0,1-2.181,3.277h0a3.425,3.425,0,0,1-.555.056h0A2.8,2.8,0,0,1,1395.139,653.066Zm-42.229.9h0a2.774,2.774,0,0,1-1.986-3.388h0a2.776,2.776,0,0,1,3.389-1.988h0a2.777,2.777,0,0,1,1.987,3.39h0a2.8,2.8,0,0,1-2.681,2.084h0A3.1,3.1,0,0,1,1352.91,653.968Zm53.1-3.431a2.787,2.787,0,0,1,1.779-3.5h.014a2.787,2.787,0,0,1,3.5,1.792h0a2.783,2.783,0,0,1-1.792,3.5h0a3.044,3.044,0,0,1-.861.124h0A2.777,2.777,0,0,1,1406.015,650.537Zm-64.037-.111a2.8,2.8,0,0,1-1.584-3.6h0a2.794,2.794,0,0,1,3.612-1.583h-.014a2.779,2.779,0,0,1,1.584,3.6h0a2.769,2.769,0,0,1-2.584,1.777h0A2.911,2.911,0,0,1,1341.978,650.426Zm74.553-3.639a2.771,2.771,0,0,1,1.375-3.681h0a2.781,2.781,0,0,1,3.682,1.361h0a2.8,2.8,0,0,1-1.376,3.7h0a2.818,2.818,0,0,1-1.152.25h0A2.8,2.8,0,0,1,1416.531,646.787Zm-84.986-1.125h0a2.784,2.784,0,0,1-1.166-3.751h0a2.769,2.769,0,0,1,3.75-1.166h0a2.783,2.783,0,0,1,1.167,3.75h0a2.794,2.794,0,0,1-2.459,1.486h0A2.659,2.659,0,0,1,1331.545,645.662Zm94.988-3.806a2.793,2.793,0,0,1,.945-3.821h0a2.789,2.789,0,0,1,3.82.931h0a2.792,2.792,0,0,1-.945,3.82h0a2.69,2.69,0,0,1-1.431.4h0A2.791,2.791,0,0,1,1426.533,641.856ZM1321.71,639.73a2.784,2.784,0,0,1-.722-3.861h0a2.785,2.785,0,0,1,3.862-.723h0a2.785,2.785,0,0,1,.723,3.862h0a2.8,2.8,0,0,1-2.292,1.209h0A2.751,2.751,0,0,1,1321.71,639.73Zm114.214-3.932a2.756,2.756,0,0,1,.5-3.889h0a2.758,2.758,0,0,1,3.89.5h0a2.756,2.756,0,0,1-.5,3.889h0a2.672,2.672,0,0,1-1.695.583h0A2.75,2.75,0,0,1,1435.924,635.8Zm-123.3-3.069a2.779,2.779,0,0,1-.278-3.932h0a2.785,2.785,0,0,1,3.917-.276h0a2.785,2.785,0,0,1,.278,3.916h0a2.757,2.757,0,0,1-2.1.959h0A2.8,2.8,0,0,1,1312.626,632.729Zm131.924-4a2.784,2.784,0,0,1,.055-3.931h0a2.786,2.786,0,0,1,3.932.055h0a2.785,2.785,0,0,1-.056,3.932h0a2.762,2.762,0,0,1-1.931.792h0A2.833,2.833,0,0,1,1444.55,628.728Zm-140.162-4a2.788,2.788,0,0,1,.167-3.932h0a2.77,2.77,0,0,1,3.917.181h0a2.768,2.768,0,0,1-.152,3.917h0a2.819,2.819,0,0,1-1.89.737h0A2.777,2.777,0,0,1,1304.388,624.728Zm147.941-4a2.793,2.793,0,0,1-.389-3.918h0a2.793,2.793,0,0,1,3.917-.388h0a2.791,2.791,0,0,1,.389,3.917h0a2.791,2.791,0,0,1-2.153,1.014h0A2.852,2.852,0,0,1,1452.329,620.727Zm-155.206-4.875a2.775,2.775,0,0,1,.6-3.876h0a2.779,2.779,0,0,1,3.89.61h0a2.776,2.776,0,0,1-.611,3.876h0a2.768,2.768,0,0,1-1.639.528h0A2.753,2.753,0,0,1,1297.123,615.852Zm162.026-3.974a2.763,2.763,0,0,1-.819-3.833h0a2.767,2.767,0,0,1,3.834-.835h0a2.773,2.773,0,0,1,.833,3.836h0a2.767,2.767,0,0,1-2.348,1.277h0A2.733,2.733,0,0,1,1459.149,611.878ZM1290.9,606.211a2.76,2.76,0,0,1,1.042-3.778h0a2.779,2.779,0,0,1,3.792,1.042h0a2.785,2.785,0,0,1-1.041,3.778h0a2.8,2.8,0,0,1-1.376.375h0A2.778,2.778,0,0,1,1290.9,606.211Zm174.028-3.89a2.776,2.776,0,0,1-1.264-3.722h0a2.793,2.793,0,0,1,3.723-1.264h0a2.781,2.781,0,0,1,1.264,3.722h0a2.783,2.783,0,0,1-2.5,1.556h0A2.822,2.822,0,0,1,1464.928,602.321Zm-179.112-6.389a2.8,2.8,0,0,1,1.472-3.655h0a2.811,2.811,0,0,1,3.654,1.487h0a2.783,2.783,0,0,1-1.487,3.64h0a2.7,2.7,0,0,1-1.083.222h0A2.8,2.8,0,0,1,1285.816,595.932Zm183.751-3.764a2.781,2.781,0,0,1-1.68-3.557h0a2.784,2.784,0,0,1,3.556-1.681h0a2.786,2.786,0,0,1,1.681,3.557h0a2.772,2.772,0,0,1-2.612,1.846h0A2.886,2.886,0,0,1,1469.567,592.168Zm-187.613-7.044a2.771,2.771,0,0,1,1.875-3.445h0a2.78,2.78,0,0,1,3.459,1.876h0A2.777,2.777,0,0,1,1285.4,587h0a2.545,2.545,0,0,1-.777.111h0A2.775,2.775,0,0,1,1281.954,585.124Zm191.059-3.584a2.776,2.776,0,0,1-2.07-3.334h0a2.775,2.775,0,0,1,3.334-2.069h0a2.768,2.768,0,0,1,2.07,3.333h0a2.76,2.76,0,0,1-2.7,2.14h0A2.547,2.547,0,0,1,1473.013,581.54Zm-193.656-7.6a2.773,2.773,0,0,1,2.264-3.209h0A2.774,2.774,0,0,1,1284.83,573h0a2.774,2.774,0,0,1-2.264,3.209h0a2.936,2.936,0,0,1-.473.042h0A2.771,2.771,0,0,1,1279.357,573.942Zm195.865-3.348a2.76,2.76,0,0,1-2.446-3.07h0a2.769,2.769,0,0,1,3.07-2.444h0a2.765,2.765,0,0,1,2.445,3.07h0a2.776,2.776,0,0,1-2.75,2.471h0A2.455,2.455,0,0,1,1475.222,570.594Zm-197.185-8.056v.013h0a2.794,2.794,0,0,1,2.625-2.945h0a2.79,2.79,0,0,1,2.931,2.625h0a2.788,2.788,0,0,1-2.611,2.932h-.167A2.8,2.8,0,0,1,1278.037,562.538Zm195.351-5.835v-.111h0v-.1h0a2.766,2.766,0,0,1,2.764-2.778h0a2.79,2.79,0,0,1,2.792,2.778h0v.1h0v.111h0a2.786,2.786,0,0,1-2.778,2.778h0A2.777,2.777,0,0,1,1473.388,556.7Zm-192.74-2.7a2.787,2.787,0,0,1-2.611-2.93h0a2.77,2.77,0,0,1,2.917-2.627h0a2.783,2.783,0,0,1,2.626,2.932h0a2.786,2.786,0,0,1-2.779,2.625h-.153Zm192.1-8.335a2.78,2.78,0,0,1,2.445-3.083h0a2.769,2.769,0,0,1,3.07,2.444h0a2.75,2.75,0,0,1-2.431,3.07h0a2.531,2.531,0,0,1-.32.029h0A2.778,2.778,0,0,1,1472.749,545.673Zm-191.156-2.792a2.792,2.792,0,0,1-2.278-3.208h0a2.793,2.793,0,0,1,3.209-2.279h0a2.774,2.774,0,0,1,2.264,3.21h0a2.771,2.771,0,0,1-2.737,2.319h0A2.455,2.455,0,0,1,1281.593,542.881Zm189.294-7.889a2.782,2.782,0,0,1,2.084-3.335h0a2.783,2.783,0,0,1,3.334,2.07h0a2.775,2.775,0,0,1-2.07,3.333h0a2.579,2.579,0,0,1-.639.084h0A2.8,2.8,0,0,1,1470.887,534.992Zm-187.113-3.057a2.79,2.79,0,0,1-1.889-3.446h0a2.791,2.791,0,0,1,3.445-1.888h0a2.787,2.787,0,0,1,1.9,3.444h0a2.8,2.8,0,0,1-2.681,2h0A3.112,3.112,0,0,1,1283.774,531.935Zm184.043-7.335a2.784,2.784,0,0,1,1.681-3.555h0a2.789,2.789,0,0,1,3.556,1.681h0a2.769,2.769,0,0,1-1.68,3.542h0a2.771,2.771,0,0,1-.945.166h0A2.791,2.791,0,0,1,1467.817,524.6Zm-180.6-3.292a2.778,2.778,0,0,1-1.487-3.64h0a2.782,2.782,0,0,1,3.64-1.485h0a2.781,2.781,0,0,1,1.486,3.64h0a2.765,2.765,0,0,1-2.556,1.707h0A2.7,2.7,0,0,1,1287.219,521.308Zm176.362-6.681a2.773,2.773,0,0,1,1.25-3.722h0a2.773,2.773,0,0,1,3.722,1.249h0v.013h0a2.758,2.758,0,0,1-1.25,3.709h0a2.807,2.807,0,0,1-1.235.293h0A2.788,2.788,0,0,1,1463.581,514.627Zm-171.737-3.473a2.78,2.78,0,0,1-1.041-3.793h0a2.777,2.777,0,0,1,3.778-1.055h0a2.776,2.776,0,0,1,1.056,3.778v.015a2.787,2.787,0,0,1-2.431,1.4h0A2.841,2.841,0,0,1,1291.844,511.154Zm166.375-5.959a2.771,2.771,0,0,1,.833-3.834h0a2.776,2.776,0,0,1,3.834.82h0a2.78,2.78,0,0,1-.82,3.847h0a2.729,2.729,0,0,1-1.5.445h0A2.783,2.783,0,0,1,1458.219,505.2Zm-160.6-3.611a2.767,2.767,0,0,1-.625-3.876h0a2.792,2.792,0,0,1,3.89-.625h0a2.79,2.79,0,0,1,.611,3.889h0a2.759,2.759,0,0,1-2.25,1.139h0A2.708,2.708,0,0,1,1297.623,501.584Zm154.206-5.14a2.764,2.764,0,0,1,.389-3.9h0a2.774,2.774,0,0,1,3.9.375h0a2.79,2.79,0,0,1-.375,3.917h0a2.85,2.85,0,0,1-1.764.625h0A2.794,2.794,0,0,1,1451.829,496.444Zm-147.4-3.709a2.77,2.77,0,0,1-.167-3.918h0a2.77,2.77,0,0,1,3.918-.18h0a2.787,2.787,0,0,1,.18,3.931h0a2.8,2.8,0,0,1-2.056.9h0A2.721,2.721,0,0,1,1304.43,492.735Zm140.051-4.265a2.767,2.767,0,0,1-.056-3.918h0a2.755,2.755,0,0,1,3.917-.069h0a2.771,2.771,0,0,1,.069,3.931h0a2.809,2.809,0,0,1-2,.848h0A2.754,2.754,0,0,1,1444.481,488.47Zm-132.272-3.738a2.789,2.789,0,0,1,.264-3.931h0v.015h0a2.772,2.772,0,0,1,3.918.263h0a2.774,2.774,0,0,1-.265,3.918h0a2.769,2.769,0,0,1-1.819.681h0A2.769,2.769,0,0,1,1312.209,484.732Zm124.062-3.346a2.769,2.769,0,0,1-.5-3.891h0a2.771,2.771,0,0,1,3.889-.514h0a2.772,2.772,0,0,1,.514,3.891h0a2.762,2.762,0,0,1-2.209,1.082h0A2.8,2.8,0,0,1,1436.271,481.386Zm-115.436-3.737a2.77,2.77,0,0,1,.709-3.863h0a2.789,2.789,0,0,1,3.876.71h0a2.785,2.785,0,0,1-.722,3.861h0a2.774,2.774,0,0,1-1.571.5h0A2.8,2.8,0,0,1,1320.835,477.649Zm106.49-2.376h-.014a2.79,2.79,0,0,1-.944-3.82h0a2.791,2.791,0,0,1,3.82-.944h0a2.792,2.792,0,0,1,.944,3.82h0a2.786,2.786,0,0,1-2.389,1.347h0A2.765,2.765,0,0,1,1427.325,475.273Zm-97.113-3.681a2.76,2.76,0,0,1,1.153-3.75h0a2.774,2.774,0,0,1,3.751,1.138h0a2.78,2.78,0,0,1-1.153,3.765h0a2.741,2.741,0,0,1-1.292.32h0A2.765,2.765,0,0,1,1330.212,471.592Zm87.514-1.375a2.77,2.77,0,0,1-1.375-3.681h0a2.77,2.77,0,0,1,3.667-1.376h.014a2.782,2.782,0,0,1,1.375,3.682h0a2.786,2.786,0,0,1-2.528,1.625h0A2.84,2.84,0,0,1,1417.726,470.217Zm-77.512-3.57a2.779,2.779,0,0,1,1.583-3.6h0a2.783,2.783,0,0,1,3.6,1.57h0a2.779,2.779,0,0,1-1.584,3.6h0a2.576,2.576,0,0,1-1.014.194h0A2.77,2.77,0,0,1,1340.214,466.647Zm67.4-.347a2.784,2.784,0,0,1-1.792-3.5h0a2.784,2.784,0,0,1,3.5-1.792h0a2.787,2.787,0,0,1,1.792,3.5h0a2.792,2.792,0,0,1-2.653,1.93h0A2.577,2.577,0,0,1,1407.614,466.3Zm-56.885-3.418a2.766,2.766,0,0,1,1.973-3.389h0a2.776,2.776,0,0,1,3.4,1.972h0a2.775,2.775,0,0,1-1.987,3.39h0a2.5,2.5,0,0,1-.708.1h0A2.775,2.775,0,0,1,1350.729,462.882Zm46.383.681v.014a2.8,2.8,0,0,1-2.182-3.279h0a2.786,2.786,0,0,1,3.279-2.18h0a2.788,2.788,0,0,1,2.181,3.264h0a2.789,2.789,0,0,1-2.723,2.237h0A2.638,2.638,0,0,1,1397.112,463.563Zm-35.52-3.209a2.788,2.788,0,0,1,2.361-3.153h0a2.766,2.766,0,0,1,3.14,2.362h0a2.772,2.772,0,0,1-2.348,3.139h0a3.875,3.875,0,0,1-.4.027h0A2.79,2.79,0,0,1,1361.592,460.354Zm24.8,1.709a2.794,2.794,0,0,1-2.543-3h0a2.775,2.775,0,0,1,3-2.542h0a2.784,2.784,0,0,1,2.542,3h0a2.792,2.792,0,0,1-2.778,2.542h-.222Zm-13.711-2.987a2.777,2.777,0,0,1,2.695-2.861h0a2.769,2.769,0,0,1,2.861,2.694h0a2.777,2.777,0,0,1-2.7,2.862h-.083A2.788,2.788,0,0,1,1372.677,459.076Z" fill="#fff"/>
    <path id="Path_3" data-name="Path 3" d="M1292.361,643.6a20.7,20.7,0,1,0,20.7,20.7A20.721,20.721,0,0,0,1292.361,643.6Zm0,37.97a17.272,17.272,0,1,1,17.27-17.272A17.291,17.291,0,0,1,1292.361,681.572Z" fill="#fff"/>
  </g>
</svg>
